<?xml version="1.0" encoding="UTF-8"?>
<svg id="colored_icon" data-name="colored icon" xmlns="http://www.w3.org/2000/svg" viewBox="0 0 178 235">
  <defs>
    <style>
      .cls-1 {
        fill: #f0e919;
      }
    </style>
  </defs>
  <g id="YellowIcon">
    <path class="cls-1" d="M117.53,15.96l7.53,1.32c8.75,2.69,18.48,6.11,24.71,13.12,13.6,15.32,10.2,45.58,6.95,64.34-2.57,14.83-4.49,29.82-22.21,31.7-13.94,1.48-28.27-.37-42.3.41-9.69.54-19.57,3.18-29.08,3.26-9.49.08-18.77-6.14-25.54-12.31-11.29-10.3-11.73-24.13-5.69-37.54-10.14,1.99-15.39-4.22-16.85-13.56l-.64-5.77c.12-1.98-.17-4.15,0-6.1,1.1-12.92,13.61-27.79,25.23-32.85,10.31-4.49,23.4-4.89,34.37-2.86,5.64,1.04,9.5,2.75,15.55,2.34,7.31-.49,13.36-5.17,20.73-5.3l.32-.19h6.92ZM82.13,107.12h-3.56c-1.95,0-6-2.18-7.52-3.47-8.75-7.41-5.8-21.18,4.77-24.82-1.58-3.09-5.19-5.82-8.4-7.16-12.35-5.15-23.53,2.73-29.13,13.46-8.8,16.87,10.57,31.22,24.44,36.36,11.79-2.66,23.92-3.92,35.98-3.4,10,.43,20.96,3.14,30.34-1.58,15.37-7.74,18.81-30.79,20.78-46.15,1.55-12.11,3.37-22.12-5.47-31.91-6.55-7.26-19.73-12.54-29.39-13.13-9.63-.59-17.97,2.52-27.47,2.45-5.62-.04-9.47-1.27-14.74-2.35-11.55-2.37-28.61.53-37.93,8.04-9.48,7.65-16.77,26.73-8.03,37.12,7.85,9.34,15.11-.96,22.23-5.01,13.25-7.55,24.79.57,35.27,8.54,17.5,1.2,37.96-2.9,49.16-17.48l7.65-11.58c0,3.3-.56,6.68-1.44,9.85-5.63,20.31-25.96,29.46-45.85,28.4-5.42-.29-7.39-1.55-12.91.72-11.05,4.53-9.52,14.13-1.73,21.05l2.94,2.04Z"/>
    <polygon class="cls-1" points="125.05 129.91 120.17 157.37 100.03 157.99 102.28 130.52 125.05 129.91"/>
    <path class="cls-1" d="M121.59,190.74l-1.32,9.16-58.68,4.68c.19-2.67,0-5.6.21-8.24.04-.47.18-1.99.53-2.11l59.26-3.49Z"/>
    <polygon class="cls-1" points="119.74 214.12 60.98 218.62 61.58 208.33 120.98 204.58 119.74 214.12"/>
    <polygon class="cls-1" points="86 131.74 84.49 158.41 63.62 159.61 64.03 133.36 86 131.74"/>
    <polygon class="cls-1" points="122.41 160.83 117.5 186.65 97.39 187.28 99.72 161.43 122.41 160.83"/>
    <polygon class="cls-1" points="83.15 188.71 63.22 190.34 63.62 163.07 84.37 161.65 83.15 188.71"/>
    <polygon class="cls-1" points="96.17 161.24 93.91 188.08 86.61 188.51 88.04 161.66 96.17 161.24"/>
    <polygon class="cls-1" points="97.8 131.13 95.56 157.78 88.24 158.19 89.49 131.56 97.8 131.13"/>
  </g>
</svg>