<?xml version="1.0" encoding="utf-8"?>
<!-- Generator: Adobe Adobe Illustrator 24.2.0, SVG Export Plug-In . SVG Version: 6.00 Build 0)  -->
<svg version="1.1" xmlns="http://www.w3.org/2000/svg" xmlns:xlink="http://www.w3.org/1999/xlink" x="0px" y="0px" width="1000px"
	 height="1000px" viewBox="0 0 1000 1000" style="enable-background:new 0 0 1000 1000;" xml:space="preserve">
<style type="text/css">
	.st0{fill:#FCEAA2;}
	.st1{fill:#1F122C;}
</style>
<g id="Vector_layer_3_">
	<path d="M643.93,443.43c3.02,0,6.05,0.59,8.93,1.65c-3.26,0.58-6.53,1.15-9.85,1.23c-2.39,0.09-5.19-0.27-7.53-1.06
		c-0.05-0.02-0.09-0.03-0.14-0.04C638.09,443.99,641,443.43,643.93,443.43z"/>
	<path d="M498.13,154.69c0.06,0.05,0.11,0.1,0.17,0.15C498.25,154.79,498.19,154.74,498.13,154.69z"/>
	<path d="M498.37,154.91c0.02,0.02,0.05,0.05,0.07,0.07C498.42,154.95,498.39,154.93,498.37,154.91z"/>
	<path d="M498.55,155.08c0.01,0.01,0.03,0.03,0.04,0.04C498.58,155.1,498.56,155.09,498.55,155.08z"/>
	<path d="M498.75,155.27c0.01,0.01,0.02,0.02,0.02,0.02C498.77,155.28,498.76,155.28,498.75,155.27z"/>
	<path d="M498.93,155.44C498.93,155.44,498.93,155.45,498.93,155.44C498.93,155.45,498.93,155.44,498.93,155.44z"/>
	<path d="M502.11,159.38c0,0.01,0.01,0.01,0.01,0.02C502.12,159.39,502.11,159.39,502.11,159.38z"/>
	<path d="M502.23,159.58c0.01,0.01,0.01,0.02,0.02,0.03C502.24,159.59,502.24,159.58,502.23,159.58z"/>
	<path d="M502.36,159.79c0.01,0.01,0.01,0.03,0.02,0.04C502.37,159.82,502.36,159.8,502.36,159.79z"/>
	<path d="M502.46,159.97c0.01,0.02,0.03,0.04,0.04,0.07C502.49,160.02,502.47,159.99,502.46,159.97z"/>
	<path d="M502.58,160.18c0.02,0.03,0.04,0.07,0.06,0.1C502.62,160.25,502.6,160.21,502.58,160.18z"/>
	<path d="M502.69,160.38c0.02,0.03,0.04,0.07,0.05,0.1C502.72,160.45,502.71,160.41,502.69,160.38z"/>
	<path d="M502.77,160.54c0.04,0.08,0.08,0.16,0.13,0.24C502.86,160.7,502.82,160.62,502.77,160.54z"/>
	<path d="M504.77,167.76c0,0.04,0,0.08,0.01,0.12C504.77,167.84,504.77,167.8,504.77,167.76z"/>
	<path d="M474.91,175.16c0,0,0.01,0,0.01,0.01C474.92,175.17,474.91,175.16,474.91,175.16z"/>
	<path d="M475.14,175.28c0.01,0.01,0.03,0.01,0.04,0.02C475.17,175.3,475.16,175.29,475.14,175.28z"/>
	<path d="M475.39,175.41c0.02,0.01,0.04,0.02,0.06,0.03C475.43,175.43,475.41,175.42,475.39,175.41z"/>
	<path d="M475.65,175.55c0.02,0.01,0.04,0.02,0.05,0.03C475.68,175.57,475.67,175.56,475.65,175.55z"/>
	<path d="M475.89,175.68c0.03,0.01,0.05,0.03,0.08,0.04C475.94,175.71,475.92,175.7,475.89,175.68z"/>
	<path d="M476.15,175.82c0.03,0.02,0.06,0.03,0.09,0.05C476.21,175.85,476.18,175.84,476.15,175.82z"/>
	<path d="M476.4,175.96c0.03,0.02,0.06,0.04,0.1,0.05C476.46,175.99,476.43,175.98,476.4,175.96z"/>
	<path d="M476.66,176.11c0.03,0.01,0.05,0.03,0.08,0.04C476.71,176.14,476.69,176.12,476.66,176.11z"/>
	<path d="M476.91,176.25c0.03,0.02,0.07,0.04,0.1,0.06C476.98,176.28,476.95,176.27,476.91,176.25z"/>
	<path d="M477.17,176.39c0.04,0.02,0.08,0.05,0.12,0.07C477.25,176.44,477.21,176.42,477.17,176.39z"/>
	<path d="M477.42,176.54c0.04,0.02,0.08,0.04,0.11,0.07C477.5,176.58,477.46,176.56,477.42,176.54z"/>
	<path d="M477.86,176.8c0.02,0.01,0.04,0.03,0.06,0.04C477.91,176.82,477.89,176.81,477.86,176.8z"/>
	<path d="M478.08,176.93c0.03,0.02,0.07,0.04,0.1,0.06C478.15,176.97,478.12,176.95,478.08,176.93z"/>
	<path d="M478.33,177.07c0.04,0.02,0.08,0.05,0.11,0.07C478.41,177.12,478.37,177.1,478.33,177.07z"/>
	<path d="M478.59,177.23c0.03,0.02,0.07,0.04,0.1,0.06C478.66,177.27,478.63,177.25,478.59,177.23z"/>
	<path d="M478.84,177.38c0.04,0.02,0.08,0.05,0.11,0.07C478.92,177.43,478.88,177.41,478.84,177.38z"/>
	<path d="M479.09,177.54c0.04,0.03,0.08,0.05,0.12,0.08C479.17,177.59,479.13,177.56,479.09,177.54z"/>
	<path d="M479.34,177.69c0.04,0.03,0.09,0.05,0.13,0.08C479.43,177.75,479.39,177.72,479.34,177.69z"/>
	<path d="M479.6,177.86c0.04,0.02,0.08,0.05,0.12,0.07C479.68,177.91,479.64,177.88,479.6,177.86z"/>
	<path d="M479.86,178.02c0.04,0.03,0.09,0.06,0.13,0.08C479.94,178.07,479.9,178.05,479.86,178.02z"/>
	<path d="M480.11,178.18c0.04,0.03,0.09,0.06,0.13,0.08C480.2,178.24,480.15,178.21,480.11,178.18z"/>
	<path d="M480.36,178.35c0.05,0.03,0.09,0.06,0.14,0.09C480.45,178.41,480.41,178.38,480.36,178.35z"/>
	<path d="M480.62,178.52c0.04,0.03,0.08,0.05,0.12,0.08C480.7,178.57,480.66,178.55,480.62,178.52z"/>
	<path d="M480.88,178.69c0.05,0.03,0.09,0.06,0.14,0.09C480.97,178.75,480.92,178.72,480.88,178.69z"/>
	<path d="M481.13,178.86c0.05,0.03,0.1,0.07,0.15,0.1C481.23,178.92,481.18,178.89,481.13,178.86z"/>
	<path d="M481.38,179.03c0.08,0.06,0.17,0.11,0.25,0.17C481.55,179.15,481.47,179.09,481.38,179.03z"/>
	<path d="M482.28,179.65C482.28,179.65,482.28,179.65,482.28,179.65C482.28,179.65,482.28,179.65,482.28,179.65z"/>
	<path d="M482.39,179.73c0.39,0.27,0.78,0.55,1.17,0.84C483.17,180.29,482.78,180.01,482.39,179.73z"/>
	<path d="M503.89,91.32C503.89,91.32,503.89,91.32,503.89,91.32C503.89,91.32,503.89,91.32,503.89,91.32z"/>
	<path d="M503.99,91.38c0.01,0.01,0.03,0.02,0.04,0.03C504.02,91.4,504.01,91.39,503.99,91.38z"/>
	<path d="M504.13,91.46c0.02,0.01,0.03,0.02,0.05,0.03C504.16,91.48,504.15,91.47,504.13,91.46z"/>
	<path d="M504.32,91.58c0.02,0.01,0.05,0.03,0.07,0.04C504.37,91.61,504.35,91.6,504.32,91.58z"/>
	<path d="M504.46,91.67c0.02,0.02,0.05,0.03,0.07,0.05C504.51,91.71,504.49,91.69,504.46,91.67z"/>
	<path d="M504.6,91.76c0.04,0.03,0.08,0.06,0.13,0.08C504.69,91.82,504.65,91.79,504.6,91.76z"/>
	<path d="M504.79,91.89c0.03,0.02,0.05,0.04,0.08,0.06C504.84,91.93,504.82,91.91,504.79,91.89z"/>
	<path d="M504.93,91.99c0.03,0.02,0.07,0.05,0.1,0.07C505,92.04,504.97,92.01,504.93,91.99z"/>
	<path d="M505.09,92.1c0.04,0.03,0.07,0.05,0.11,0.08C505.16,92.15,505.13,92.13,505.09,92.1z"/>
	<path d="M505.25,92.22c0.03,0.02,0.06,0.04,0.09,0.07C505.31,92.26,505.28,92.24,505.25,92.22z"/>
	<path d="M505.39,92.32c0.04,0.03,0.09,0.06,0.13,0.1C505.48,92.39,505.43,92.36,505.39,92.32z"/>
	<path d="M505.56,92.46c0.03,0.02,0.06,0.05,0.09,0.07C505.62,92.5,505.59,92.48,505.56,92.46z"/>
	<path d="M505.71,92.57c0.03,0.02,0.06,0.05,0.09,0.07C505.77,92.62,505.74,92.59,505.71,92.57z"/>
	<path d="M505.84,92.68c0.04,0.03,0.08,0.07,0.12,0.1C505.92,92.74,505.88,92.71,505.84,92.68z"/>
	<path d="M506.02,92.83c0.02,0.02,0.05,0.04,0.07,0.06C506.07,92.87,506.05,92.85,506.02,92.83z"/>
	<path d="M506.15,92.94c0.02,0.02,0.05,0.04,0.07,0.06C506.2,92.98,506.18,92.96,506.15,92.94z"/>
	<path d="M506.33,93.09c0.02,0.02,0.04,0.04,0.06,0.06C506.37,93.13,506.35,93.11,506.33,93.09z"/>
	<path d="M506.46,93.21c0.02,0.02,0.04,0.03,0.05,0.05C506.5,93.24,506.48,93.23,506.46,93.21z"/>
	<path d="M506.59,93.32c0.01,0.01,0.02,0.02,0.04,0.03C506.61,93.35,506.6,93.34,506.59,93.32z"/>
	<path d="M506.77,93.49c0.01,0.01,0.03,0.03,0.04,0.04C506.79,93.52,506.78,93.51,506.77,93.49z"/>
	<path d="M506.89,93.61c0.01,0.01,0.02,0.02,0.03,0.03C506.91,93.63,506.9,93.62,506.89,93.61z"/>
	<path d="M507.19,93.91c0,0,0.01,0.01,0.01,0.01C507.2,93.92,507.19,93.91,507.19,93.91z"/>
	<path d="M507.58,94.33L507.58,94.33C507.58,94.33,507.58,94.33,507.58,94.33z"/>
	<path d="M510.32,98.55c0,0.01,0.01,0.02,0.01,0.03C510.33,98.57,510.32,98.56,510.32,98.55z"/>
	<path d="M510.38,98.68c0.01,0.02,0.01,0.03,0.02,0.05C510.39,98.71,510.38,98.7,510.38,98.68z"/>
	<path d="M510.47,98.89c0.01,0.02,0.02,0.05,0.03,0.07C510.48,98.94,510.47,98.92,510.47,98.89z"/>
	<path d="M510.52,99.04c0.01,0.03,0.02,0.06,0.04,0.09C510.55,99.1,510.53,99.07,510.52,99.04z"/>
	<path d="M510.64,99.35c-0.02-0.05-0.04-0.1-0.06-0.16C510.6,99.25,510.62,99.3,510.64,99.35z"/>
	<path d="M512.73,108.85c0,0.07,0.01,0.14,0.01,0.2C512.74,108.99,512.73,108.92,512.73,108.85z"/>
	<path d="M512.75,109.11c0,0.06,0.01,0.11,0.01,0.17C512.75,109.23,512.75,109.17,512.75,109.11z"/>
	<path d="M512.76,109.37c0,0.04,0,0.08,0.01,0.13C512.76,109.45,512.76,109.41,512.76,109.37z"/>
	<path d="M512.77,109.64c0,0.02,0,0.04,0,0.06C512.77,109.68,512.77,109.66,512.77,109.64z"/>
	<path d="M512.78,109.89c0,0.01,0,0.02,0,0.03C512.78,109.91,512.78,109.9,512.78,109.89z"/>
	<path d="M512.37,118.24c0,0.03-0.01,0.05-0.01,0.08C512.37,118.29,512.37,118.27,512.37,118.24z"/>
	<path d="M512.35,118.4c-0.01,0.08-0.02,0.15-0.03,0.23C512.33,118.55,512.34,118.48,512.35,118.4z"/>
	<path d="M512.32,118.66c-0.01,0.08-0.02,0.16-0.03,0.24C512.3,118.82,512.31,118.74,512.32,118.66z"/>
	<path d="M512.29,118.95c-0.01,0.06-0.01,0.11-0.02,0.17C512.27,119.06,512.28,119,512.29,118.95z"/>
	<path d="M511.66,123.16c-0.02,0.09-0.03,0.18-0.05,0.27C511.63,123.34,511.64,123.25,511.66,123.16z"/>
	<path d="M511.6,123.53c-0.32,1.91-0.67,3.82-1,5.7C510.93,127.35,511.28,125.44,511.6,123.53z"/>
	<path d="M536.01,112.76c0.02,0.01,0.03,0.02,0.05,0.03C536.04,112.78,536.03,112.77,536.01,112.76z"/>
	<path d="M536.08,112.8c0.01,0.01,0.03,0.02,0.04,0.03C536.11,112.82,536.09,112.81,536.08,112.8z"/>
	<path d="M536.14,112.85c0.01,0.01,0.02,0.02,0.03,0.03C536.17,112.86,536.16,112.85,536.14,112.85z"/>
	<path d="M536.21,112.89c0.01,0.01,0.02,0.02,0.03,0.02C536.23,112.91,536.22,112.9,536.21,112.89z"/>
	<path d="M536.27,112.94c0.01,0.01,0.02,0.01,0.03,0.02C536.28,112.96,536.28,112.95,536.27,112.94z"/>
	<path d="M536.33,112.99c0.01,0.01,0.02,0.02,0.03,0.02C536.34,113.01,536.33,113,536.33,112.99z"/>
	<path d="M536.38,113.04c0.01,0.01,0.02,0.02,0.03,0.03C536.4,113.06,536.39,113.05,536.38,113.04z"/>
	<path d="M536.44,113.1c0.01,0.01,0.02,0.02,0.03,0.03C536.45,113.12,536.45,113.11,536.44,113.1z"/>
	<path d="M536.49,113.15c0.01,0.01,0.02,0.02,0.03,0.03C536.51,113.18,536.5,113.17,536.49,113.15z"/>
	<path d="M536.54,113.21c0.01,0.01,0.02,0.03,0.03,0.04C536.56,113.24,536.55,113.22,536.54,113.21z"/>
	<path d="M536.59,113.27c0.01,0.02,0.03,0.03,0.04,0.05C536.61,113.3,536.6,113.29,536.59,113.27z"/>
	<path d="M537.41,116.17c0,0.04,0,0.08,0,0.12C537.4,116.25,537.41,116.21,537.41,116.17z"/>
	<path d="M529.63,131.6c0.01,0.02,0.02,0.03,0.03,0.05C529.65,131.63,529.64,131.61,529.63,131.6z"/>
	<path d="M529.7,131.72c0.01,0.01,0.01,0.02,0.02,0.03C529.71,131.74,529.71,131.73,529.7,131.72z"/>
	<path d="M529.78,131.85c0,0,0.01,0.01,0.01,0.01C529.79,131.86,529.78,131.85,529.78,131.85z"/>
	<path d="M533.51,135.07c0,0,0.01,0,0.01,0.01C533.52,135.08,533.52,135.07,533.51,135.07z"/>
	<path d="M533.65,135.13c0.01,0,0.01,0.01,0.02,0.01C533.67,135.14,533.66,135.14,533.65,135.13z"/>
	<path d="M653.83,110.14c0,0,0,0.01,0,0.01C653.83,110.15,653.83,110.15,653.83,110.14z"/>
	<path d="M623.29,123.6c-0.31,0.05-0.63,0.09-0.94,0.14C622.66,123.69,622.98,123.64,623.29,123.6z"/>
	<path d="M612.71,125.01c-0.03,0-0.06,0.01-0.09,0.01C612.65,125.02,612.68,125.02,612.71,125.01z"/>
	<path class="st0" d="M104.67,641.78c0.27,0.13,0.54,0.26,0.81,0.4C105.21,642.04,104.95,641.9,104.67,641.78z M107.94,709.04
		c7.71-15.27-1.21-39.43-4.65-55.45c-0.85-3.31-1.72-6.62-2.44-9.97c-0.11-0.5-0.21-1.01-0.32-1.52c-0.05-0.27-0.11-0.55-0.16-0.83
		c0-0.01,0-0.02-0.01-0.03c-0.05-0.27-0.1-0.53-0.15-0.8h0c0.14,0.01,0.29,0.02,0.43,0.04c0.14,0.02,0.29,0.04,0.43,0.06
		c0.14,0.02,0.28,0.05,0.42,0.08c0.12,0.02,0.24,0.05,0.36,0.08c0.13,0.04,0.26,0.07,0.39,0.11c0.09,0.02,0.18,0.05,0.26,0.08l0,0
		c-0.09-0.03-0.18-0.05-0.26-0.08c-0.13-0.04-0.26-0.07-0.39-0.11c-0.12-0.03-0.24-0.06-0.36-0.08c-0.14-0.03-0.28-0.06-0.42-0.08
		c-0.14-0.03-0.29-0.05-0.43-0.06c-0.14-0.02-0.28-0.03-0.43-0.04h0c0.05,0.27,0.1,0.53,0.15,0.8c0,0.01,0.01,0.02,0.01,0.03
		c0.05,0.28,0.11,0.55,0.16,0.83c0.1,0.51,0.21,1.01,0.32,1.52c0.72,3.34,1.59,6.66,2.44,9.97
		C106.73,669.6,115.64,693.76,107.94,709.04c-2.38,4.12-6.49,6.3-10.8,8.08v0C101.45,715.34,105.57,713.16,107.94,709.04z
		 M132.28,655.56L132.28,655.56c-0.85,0.07-1.7,0.1-2.55,0.07c-0.16,0-0.32-0.01-0.48-0.02c-0.02,0-0.04,0-0.06,0
		c-0.75-0.04-1.5-0.12-2.26-0.25c-0.39-0.07-0.79-0.17-1.16-0.28c0.38,0.11,0.77,0.21,1.17,0.28c0.76,0.13,1.51,0.21,2.26,0.25
		c0.02,0,0.04,0,0.06,0c0.16,0.01,0.32,0.01,0.48,0.02C130.59,655.66,131.43,655.63,132.28,655.56z M148.38,808.08
		c-1.06-0.29-2.12-0.59-3.17-0.9C146.27,807.49,147.32,807.79,148.38,808.08z M206.85,823.99c-2.46-0.8-4.92-1.58-7.4-2.3
		c-13.51-4.18-27.23-7.57-40.94-11.03c-1.25-0.31-2.49-0.61-3.74-0.92c1.25,0.31,2.5,0.62,3.74,0.93
		c13.71,3.45,27.43,6.85,40.94,11.03C201.93,822.41,204.39,823.19,206.85,823.99z M228.02,831.06c-1.05-0.34-2.11-0.68-3.16-1.02
		C225.92,830.38,226.97,830.73,228.02,831.06z M229.7,529.04c0.01-0.11,0.02-0.21,0.04-0.32c-0.16,0.11-0.32,0.23-0.48,0.36
		C229.41,529.07,229.55,529.05,229.7,529.04z M238.34,834.05c-0.88-0.23-1.76-0.46-2.63-0.7
		C236.58,833.59,237.46,833.83,238.34,834.05z M241.82,834.91c-0.63-0.14-1.26-0.3-1.89-0.45
		C240.55,834.61,241.18,834.76,241.82,834.91z M284.79,830.08c5.11,0.01,10.22,0,15.34,0.03
		C295.01,830.08,289.89,830.09,284.79,830.08c-7.7,0.17-15.64,0.36-22.93,3.04c-2.14,0.82-3.96,2.14-5.52,3.73
		c-3.01-0.05-6.03-0.3-9.07-0.81c-1.68-0.31-3.35-0.66-5.01-1.04c1.66,0.38,3.34,0.73,5.02,1.04c3.04,0.51,6.06,0.75,9.07,0.81
		c1.57-1.59,3.38-2.91,5.52-3.73C269.16,830.44,277.1,830.26,284.79,830.08z M319.46,830.46c-1.28-0.05-2.56-0.09-3.84-0.12
		C316.9,830.37,318.18,830.41,319.46,830.46z M327.13,830.81c-1.28-0.07-2.55-0.14-3.83-0.2
		C324.57,830.67,325.85,830.74,327.13,830.81z M339.64,831.77c-2.01-0.2-4.02-0.38-6.04-0.53
		C335.62,831.39,337.63,831.57,339.64,831.77z M344.39,842.06c-2.52-0.56-5.07-1.04-7.62-1.45c0,0,0,0,0,0
		C339.33,841.02,341.87,841.51,344.39,842.06z M351.43,833.25C351.43,833.24,351.43,833.24,351.43,833.25
		c-0.8-0.12-1.6-0.25-2.4-0.36c-0.6-0.08-1.2-0.16-1.8-0.24c-0.33-0.04-0.66-0.09-1-0.13c-2.05-0.26-4.11-0.5-6.17-0.7
		c2.06,0.21,4.12,0.44,6.17,0.7c0.33,0.04,0.66,0.09,1,0.13c0.6,0.08,1.2,0.16,1.8,0.24C349.83,833,350.63,833.12,351.43,833.25z
		 M378.21,689.04c0.82-0.14,1.64-0.26,2.45-0.35C379.85,688.77,379.03,688.88,378.21,689.04c-0.29,0.04-0.57,0.1-0.85,0.16
		c-0.46,0.09-0.91,0.2-1.38,0.31c-0.16,0.04-0.32,0.08-0.48,0.12c-0.23,0.06-0.46,0.12-0.7,0.19l0,0c0.23-0.07,0.47-0.13,0.7-0.19
		c0.16-0.04,0.32-0.08,0.48-0.12c0.46-0.12,0.92-0.22,1.38-0.31C377.65,689.14,377.93,689.08,378.21,689.04z M405.46,516.73
		c3.21,0,6.38,0.17,9.5,0.48c-5.9-0.59-11.95-0.67-18.2-0.07c-16.4,1.32-32.8,2.27-49.25,2.71c-20.48,1.29-41.02,0.84-61.38-1.94
		c-1.43,0.05-12.04-1.84-22.36-3.18v0c10.32,1.35,20.93,3.24,22.36,3.18c20.36,2.78,40.89,3.23,61.38,1.94
		c16.45-0.45,32.85-1.39,49.25-2.71C399.71,516.86,402.61,516.73,405.46,516.73z M412.44,727.91c0.06,0.24,0.11,0.49,0.16,0.73
		C412.55,728.39,412.5,728.15,412.44,727.91z M413.15,732.35c-0.09-0.75-0.19-1.54-0.32-2.38c-0.03-0.2-0.06-0.4-0.1-0.6
		c0.04,0.2,0.07,0.4,0.09,0.6C412.96,730.8,413.05,731.6,413.15,732.35z M413.34,733.71c-0.04-0.26-0.08-0.53-0.12-0.8
		C413.26,733.18,413.3,733.45,413.34,733.71z M415.14,517.23c1.11,0.11,2.21,0.24,3.3,0.39
		C417.35,517.47,416.25,517.34,415.14,517.23z M420,738.95c0,0-0.01,0-0.01,0c-1.65,1.05-3.38,2-5.33,2.67
		c-5.53,1.86-11.23,3.55-16.84,5.5c-0.09,0.03-0.18,0.06-0.27,0.09c-0.61,0.21-1.22,0.43-1.83,0.65c-0.7,0.25-1.4,0.51-2.09,0.77
		c0,0,0,0,0.01,0c0.69-0.26,1.39-0.52,2.09-0.77c0.61-0.22,1.21-0.44,1.83-0.65c0.09-0.03,0.18-0.06,0.27-0.09
		c5.61-1.95,11.31-3.65,16.84-5.5C416.62,740.95,418.34,740,420,738.95z M426.28,518.97c-1.06-0.22-2.13-0.43-3.2-0.62
		C424.14,518.54,425.21,518.75,426.28,518.97z M430.51,519.94c-0.94-0.23-1.88-0.45-2.82-0.66
		C428.63,519.49,429.57,519.71,430.51,519.94z M431.21,684.68c0.17-0.22,0.34-0.45,0.51-0.68
		C431.55,684.23,431.38,684.46,431.21,684.68z M434.11,784.53c1.55-1.76,2.57-3.78,3.06-5.89
		C436.67,780.75,435.65,782.77,434.11,784.53c-1.73,2.09-3.66,4.03-5.63,5.92c-1.36,1.3-2.75,2.59-4.11,3.9c0,0,0.01,0,0.01,0
		c1.36-1.3,2.75-2.59,4.11-3.89C430.46,788.56,432.38,786.63,434.11,784.53z M440.18,522.68c-1.05-0.34-2.11-0.66-3.16-0.97
		C438.07,522.02,439.12,522.34,440.18,522.68z M442.8,797.66c0.17-0.79,0.14-1.43-0.05-1.97
		C442.94,796.23,442.97,796.87,442.8,797.66c-1.54,7.4-5.87,14.08-10.8,19.71c-8.15,8.33-17.8,15.15-25.6,23.82
		c-0.04,0.04-0.08,0.09-0.12,0.13c-0.22,0.25-0.45,0.51-0.67,0.76c-0.29,0.32-0.57,0.65-0.84,0.98c-0.26,0.31-0.52,0.62-0.77,0.93
		c0,0,0,0,0.01,0c0.25-0.31,0.51-0.62,0.77-0.93c0.27-0.33,0.55-0.66,0.84-0.98c0.22-0.25,0.45-0.51,0.67-0.76
		c0.04-0.04,0.08-0.09,0.12-0.13c7.8-8.67,17.45-15.49,25.6-23.82C436.94,811.74,441.27,805.06,442.8,797.66z M451.97,831.24
		C451.97,831.24,451.97,831.24,451.97,831.24c-2.47,1.88-4.96,3.72-7.5,5.5c-2.55,1.77-5.14,3.48-7.79,5.11
		c-11.56,6.78-26.04,16.22-39.88,15.73c-4.69-0.1-9.15-1.64-13.57-3.05c-0.91-0.29-1.81-0.59-2.71-0.89c0.91,0.3,1.81,0.61,2.72,0.9
		c4.42,1.41,8.88,2.95,13.57,3.05c13.84,0.5,28.31-8.95,39.88-15.73c2.65-1.63,5.24-3.34,7.78-5.12
		C447.02,834.97,449.51,833.13,451.97,831.24z M454.53,543.01L454.53,543.01c-5.43,16.03-11.71,31.8-15.29,48.38
		c-6.11,28.73-6.39,58.2-4.25,87.44c-0.62,1.13-1.24,2.18-1.87,3.14c0.63-0.97,1.26-2.02,1.87-3.14
		c-2.14-29.24-1.86-58.71,4.25-87.44C442.82,574.82,449.1,559.04,454.53,543.01z M455.18,654.32c0.06-1,0.12-2.01,0.18-3.02
		C455.3,652.31,455.23,653.31,455.18,654.32z M457.85,725.66c-0.26-0.78-0.5-1.56-0.73-2.34
		C457.35,724.11,457.59,724.89,457.85,725.66z M483.35,376.19c-1.74-0.51-3.48-1.02-5.21-1.55v0
		C479.87,375.17,481.61,375.68,483.35,376.19z M485.34,401.82c0.16-0.89,0.36-1.77,0.59-2.64
		C485.69,400.05,485.49,400.93,485.34,401.82c-0.71,4.07-0.81,8.21-0.82,12.33c0.05,9.57-0.03,19.17-0.91,28.71
		c-0.86,11.07-4.31,21.7-7.79,32.19c-6.27,17.96-11.26,36.33-16.94,54.49l0,0c5.68-18.16,10.67-36.52,16.94-54.49
		c3.48-10.49,6.93-21.12,7.79-32.19c0.88-9.54,0.97-19.13,0.91-28.71C484.53,410.04,484.62,405.89,485.34,401.82z M489.07,391.61
		C489.07,391.61,489.07,391.61,489.07,391.61c-0.43,0.75-0.82,1.5-1.18,2.27C488.26,393.11,488.66,392.35,489.07,391.61z
		 M504.79,168.09c0-0.07-0.01-0.14-0.01-0.21c0-0.04,0-0.08-0.01-0.12c-0.02-0.33-0.04-0.65-0.08-0.97
		c-0.03-0.29-0.07-0.58-0.12-0.87c-0.05-0.32-0.11-0.64-0.18-0.96c-0.02-0.07-0.03-0.13-0.05-0.2c-0.02-0.08-0.04-0.16-0.06-0.24
		c-0.02-0.11-0.05-0.22-0.08-0.32c0,0,0-0.01,0-0.01c-0.05-0.18-0.09-0.36-0.15-0.53c-0.04-0.12-0.08-0.25-0.12-0.38
		c-0.02-0.06-0.04-0.12-0.06-0.18c-0.05-0.17-0.12-0.34-0.18-0.51c-0.01-0.03-0.02-0.06-0.03-0.09c0,0,0,0,0-0.01
		c-0.01-0.02-0.02-0.05-0.03-0.07c-0.02-0.06-0.04-0.12-0.07-0.17c-0.04-0.11-0.09-0.22-0.14-0.33c-0.07-0.16-0.14-0.32-0.21-0.48
		c-0.01-0.03-0.02-0.05-0.04-0.08c-0.01-0.03-0.03-0.06-0.04-0.09c-0.02-0.04-0.04-0.08-0.05-0.12c-0.03-0.07-0.06-0.14-0.1-0.21
		c-0.01-0.02-0.02-0.04-0.03-0.05c-0.02-0.03-0.03-0.07-0.05-0.1c0,0,0,0,0-0.01c-0.04-0.08-0.09-0.16-0.13-0.25
		c-0.01-0.02-0.02-0.04-0.03-0.06c-0.02-0.04-0.04-0.07-0.05-0.1c-0.02-0.03-0.04-0.07-0.05-0.1c-0.02-0.04-0.04-0.07-0.06-0.1
		c-0.03-0.05-0.05-0.09-0.08-0.14c-0.01-0.02-0.02-0.05-0.04-0.07c-0.03-0.05-0.05-0.1-0.08-0.14c-0.01-0.01-0.02-0.03-0.02-0.04
		c-0.08-0.13-0.16-0.26-0.23-0.39c0,0-0.01-0.01-0.01-0.02c-0.44-0.7-0.93-1.38-1.45-2.03c-0.01-0.01-0.02-0.03-0.03-0.04
		c-0.09-0.11-0.18-0.21-0.27-0.32c-0.02-0.03-0.04-0.05-0.07-0.08c-0.02-0.02-0.04-0.05-0.06-0.07c-0.04-0.05-0.09-0.1-0.13-0.15
		c-0.01-0.01-0.02-0.02-0.03-0.03c-0.04-0.05-0.08-0.09-0.12-0.14c-0.02-0.01-0.03-0.03-0.04-0.04c-0.1-0.11-0.2-0.22-0.3-0.33
		c-0.01-0.01-0.01-0.01-0.02-0.02c-0.11-0.11-0.21-0.23-0.32-0.34c0,0-0.01-0.01-0.01-0.01c-0.11-0.12-0.23-0.23-0.34-0.34
		c-0.05-0.05-0.11-0.11-0.16-0.16c-0.01-0.01-0.02-0.02-0.02-0.02c-0.05-0.05-0.11-0.09-0.16-0.15c-0.02-0.02-0.03-0.03-0.04-0.04
		c-0.04-0.03-0.07-0.07-0.11-0.1c-0.01-0.01-0.02-0.02-0.04-0.03c0,0-0.01,0-0.01,0c-0.03-0.03-0.07-0.06-0.1-0.1
		c-0.01-0.01-0.02-0.02-0.03-0.03c-0.04-0.04-0.09-0.08-0.14-0.12c-0.01-0.01-0.02-0.02-0.03-0.03c-0.02-0.02-0.03-0.03-0.05-0.04
		c-0.07-0.06-0.13-0.12-0.2-0.18c-1.04,0.19-2.07,0.38-3.1,0.58c0,0,0,0,0,0c-1.03,0.2-2.05,0.41-3.07,0.64h0
		c-0.38,0.09-0.76,0.17-1.13,0.26c-0.21,0.05-0.43,0.1-0.64,0.16c-0.16,0.04-0.33,0.08-0.49,0.12c-0.32,0.08-0.63,0.16-0.95,0.25
		c-0.32,0.08-0.63,0.17-0.95,0.26c-0.25,0.07-0.5,0.14-0.76,0.22c-0.19,0.05-0.38,0.11-0.56,0.17c-0.19,0.06-0.37,0.12-0.56,0.18
		c-0.77,0.27-1.53,0.55-2.28,0.86c-0.23,0.09-0.46,0.19-0.69,0.29c-0.16,0.06-0.32,0.13-0.47,0.2c-0.25,0.11-0.51,0.22-0.76,0.34
		c-0.34,0.16-0.68,0.32-1.02,0.48c-0.48,0.23-0.96,0.47-1.44,0.72c-0.41,0.21-0.82,0.43-1.23,0.66s-0.81,0.45-1.21,0.68
		c-0.39,0.23-0.78,0.46-1.16,0.69c-0.04,0.02-0.08,0.05-0.12,0.07c-0.36,0.23-0.73,0.45-1.09,0.68h0c-0.29,0.19-0.59,0.38-0.88,0.57
		c-0.29,0.19-0.58,0.39-0.87,0.59c-0.3,0.2-0.6,0.41-0.9,0.62c-0.27,0.19-0.54,0.39-0.81,0.58c-1.09,0.79-2.16,1.61-3.21,2.45
		c-0.35,0.28-0.7,0.56-1.05,0.85h0c-0.21,0.17-0.41,0.34-0.61,0.51c-0.62,0.51-1.23,1.03-1.84,1.55c0.35,0.12,0.7,0.23,1.05,0.35
		c0.04,0.02,0.09,0.03,0.13,0.04c0.44,0.15,0.88,0.31,1.32,0.46c0.03,0.01,0.05,0.02,0.08,0.03c0.04,0.02,0.08,0.03,0.12,0.04
		c0.08,0.03,0.15,0.05,0.23,0.08c0,0,0,0,0,0c2.76,1.01,5.4,2.15,7.97,3.48c0,0,0.01,0,0.01,0c0.07,0.04,0.15,0.08,0.22,0.12
		c0.02,0.01,0.03,0.02,0.04,0.02c0.23,0.12,0.47,0.25,0.7,0.38c0.03,0.01,0.05,0.03,0.08,0.04c0.06,0.03,0.12,0.06,0.18,0.09
		c0.03,0.02,0.06,0.03,0.09,0.05c0.17,0.09,0.34,0.19,0.51,0.28c0.06,0.04,0.11,0.07,0.17,0.09c0.04,0.02,0.07,0.04,0.1,0.06
		c0.05,0.03,0.11,0.06,0.16,0.09c0,0,0.01,0,0.01,0.01c0.04,0.02,0.07,0.04,0.11,0.06c0.19,0.11,0.38,0.22,0.57,0.33
		c0.02,0.01,0.04,0.02,0.07,0.04c0.05,0.03,0.1,0.06,0.15,0.09c0.04,0.02,0.07,0.04,0.1,0.06c0.05,0.03,0.1,0.06,0.14,0.09
		c0.12,0.07,0.24,0.14,0.36,0.22c0.07,0.04,0.14,0.09,0.21,0.13c0.02,0.01,0.04,0.02,0.05,0.03c0.04,0.03,0.09,0.06,0.13,0.08
		c0.04,0.03,0.08,0.05,0.12,0.08c0.04,0.03,0.09,0.05,0.13,0.08s0.09,0.05,0.13,0.08s0.09,0.05,0.13,0.08
		c0.04,0.02,0.08,0.05,0.12,0.07c0.05,0.03,0.09,0.06,0.14,0.09c0,0,0,0,0.01,0.01c0.04,0.02,0.08,0.05,0.12,0.07
		c0.04,0.03,0.08,0.05,0.12,0.08s0.08,0.05,0.12,0.08h0c0.04,0.03,0.08,0.05,0.12,0.08c0.05,0.03,0.09,0.06,0.14,0.09
		c0.04,0.03,0.08,0.05,0.12,0.08s0.08,0.05,0.12,0.08s0.09,0.06,0.13,0.09c0,0,0.01,0.01,0.02,0.01c0.04,0.03,0.08,0.05,0.12,0.08
		c0.09,0.06,0.18,0.12,0.27,0.18c0.04,0.03,0.07,0.05,0.11,0.07c0.09,0.05,0.17,0.11,0.25,0.17c0,0,0,0,0,0
		c0.21,0.14,0.43,0.29,0.64,0.44c0,0,0,0,0,0c0.04,0.03,0.07,0.05,0.11,0.08c0.39,0.27,0.78,0.55,1.17,0.84c0,0,0,0,0,0
		c0.16,0.12,0.32,0.23,0.47,0.36c0.05,0.04,0.11,0.08,0.17,0.12c0.37,0.28,0.73,0.56,1.1,0.85
		C491.71,177.19,498.27,172.66,504.79,168.09z M512.36,118.32c0.34-2.81,0.53-5.63,0.42-8.42c0,0,0,0,0-0.01
		c0-0.07,0-0.13-0.01-0.19c0-0.02,0-0.04,0-0.06c0-0.05,0-0.1-0.01-0.14c-0.01-0.21-0.02-0.42-0.04-0.64c0,0,0-0.01,0-0.01
		c-0.01-0.1-0.01-0.2-0.02-0.29s-0.02-0.2-0.02-0.3c-0.01-0.12-0.02-0.26-0.04-0.38c0-0.02,0-0.03,0-0.04
		c0-0.04-0.01-0.09-0.01-0.13c-0.01-0.12-0.02-0.25-0.04-0.38c0-0.03,0-0.05-0.01-0.08c-0.02-0.14-0.03-0.28-0.05-0.42
		c-0.01-0.11-0.02-0.22-0.04-0.33c0-0.06-0.01-0.12-0.02-0.17c0-0.03-0.01-0.05-0.01-0.09c-0.02-0.11-0.03-0.22-0.05-0.33
		c-0.02-0.18-0.05-0.36-0.09-0.55c-0.06-0.35-0.12-0.7-0.2-1.05c-0.03-0.13-0.05-0.27-0.09-0.4c0-0.02,0-0.03-0.01-0.05
		c-0.02-0.06-0.03-0.12-0.04-0.18c-0.02-0.12-0.05-0.25-0.09-0.37c0-0.03-0.01-0.05-0.02-0.08c-0.03-0.14-0.07-0.28-0.11-0.42
		c-0.05-0.21-0.11-0.42-0.17-0.63c-0.03-0.12-0.07-0.24-0.1-0.36c-0.01-0.03-0.02-0.06-0.03-0.09c0,0,0-0.01,0-0.01
		c-0.04-0.12-0.08-0.25-0.12-0.37c0-0.01,0-0.02-0.01-0.02c-0.02-0.07-0.04-0.13-0.06-0.19c-0.03-0.1-0.06-0.2-0.1-0.3
		c-0.02-0.07-0.05-0.14-0.07-0.2c-0.12-0.37-0.26-0.73-0.41-1.09c-0.02-0.06-0.05-0.12-0.07-0.18l0,0
		c-0.02-0.05-0.04-0.11-0.06-0.16c0-0.02-0.02-0.04-0.02-0.07c-0.01-0.03-0.02-0.06-0.04-0.09c-0.01-0.03-0.02-0.05-0.03-0.08
		c-0.01-0.02-0.02-0.05-0.03-0.07c-0.02-0.05-0.04-0.11-0.07-0.16c-0.01-0.02-0.02-0.04-0.02-0.05c-0.02-0.04-0.03-0.07-0.05-0.11
		c0-0.01-0.01-0.02-0.01-0.03c-0.32-0.73-0.7-1.44-1.13-2.11c-0.01-0.02-0.02-0.04-0.03-0.05c-0.02-0.03-0.04-0.06-0.06-0.09
		c-0.02-0.02-0.03-0.04-0.05-0.07c0-0.01-0.01-0.02-0.02-0.03c-0.05-0.07-0.09-0.14-0.14-0.2c0,0,0,0-0.01-0.01
		c-0.51-0.74-1.08-1.43-1.71-2.07v0c-0.09-0.09-0.18-0.18-0.27-0.27c-0.01-0.01-0.02-0.02-0.03-0.03c-0.03-0.02-0.05-0.05-0.08-0.07
		c-0.02-0.01-0.03-0.03-0.04-0.04c-0.05-0.04-0.09-0.09-0.14-0.13c-0.01-0.01-0.02-0.01-0.02-0.02c-0.01-0.01-0.01-0.02-0.02-0.02
		c-0.02-0.02-0.05-0.04-0.07-0.07c-0.02-0.02-0.04-0.03-0.05-0.05c-0.02-0.02-0.05-0.04-0.07-0.06c0,0-0.01-0.01-0.01-0.01
		c-0.05-0.05-0.1-0.09-0.15-0.14c-0.04-0.04-0.09-0.07-0.13-0.12c-0.02-0.02-0.05-0.04-0.07-0.06c-0.02-0.02-0.04-0.03-0.05-0.05
		c-0.04-0.04-0.08-0.07-0.12-0.1c-0.04-0.04-0.09-0.07-0.14-0.11c-0.04-0.03-0.08-0.06-0.12-0.09c0,0-0.01-0.01-0.01-0.01
		s-0.01-0.01-0.02-0.01c-0.02-0.01-0.03-0.02-0.04-0.04c-0.04-0.04-0.09-0.07-0.13-0.1c-0.05-0.04-0.09-0.07-0.14-0.11
		c-0.02-0.01-0.04-0.02-0.05-0.04c-0.01-0.01-0.02-0.02-0.04-0.02c-0.02-0.02-0.05-0.04-0.07-0.05c-0.02-0.01-0.04-0.02-0.05-0.04
		c-0.04-0.02-0.07-0.05-0.1-0.07c-0.02-0.01-0.04-0.02-0.06-0.04c-0.03-0.02-0.05-0.04-0.08-0.05c-0.02-0.01-0.04-0.03-0.06-0.04h0
		c-0.04-0.03-0.08-0.05-0.12-0.08c-0.02-0.01-0.04-0.03-0.07-0.04c-0.16-0.11-0.33-0.21-0.5-0.32c-0.05-0.03-0.1-0.06-0.14-0.09
		c0,0,0,0-0.01,0c-0.48-0.28-0.98-0.54-1.48-0.76c-0.14-0.06-0.28-0.12-0.42-0.18c-0.03-0.01-0.06-0.03-0.09-0.04
		c-0.05-0.02-0.09-0.04-0.14-0.05c-0.12-0.05-0.25-0.1-0.38-0.14c-0.13-0.05-0.26-0.09-0.39-0.13s-0.26-0.09-0.39-0.12
		c-0.13-0.04-0.27-0.07-0.4-0.11s-0.27-0.07-0.4-0.1c-0.18-0.04-0.36-0.07-0.54-0.11c-0.54-0.09-1.09-0.16-1.64-0.18
		c-1.23-0.06-2.48,0.07-3.72,0.41c-0.35,0.1-0.7,0.21-1.04,0.34c-2.76,1.22-4.62,3.71-6.4,5.96c-0.44,0.55-0.84,1.14-1.22,1.74
		c-0.28,0.45-0.54,0.92-0.77,1.39c-0.08,0.16-0.16,0.32-0.23,0.48c0,0,0,0,0,0c-0.04,0.1-0.09,0.2-0.13,0.29v0
		c-0.2,0.45-0.37,0.9-0.52,1.36c-0.05,0.16-0.1,0.31-0.15,0.46c0,0,0,0,0,0.01c-0.03,0.1-0.06,0.2-0.09,0.3v0
		c-0.03,0.1-0.05,0.21-0.08,0.31c0,0,0,0,0,0c-0.02,0.11-0.05,0.21-0.07,0.31v0c-0.02,0.11-0.04,0.21-0.07,0.31c0,0,0,0,0,0
		c-0.02,0.1-0.04,0.21-0.06,0.31c0,0,0,0.01,0,0.01c-0.02,0.11-0.04,0.21-0.05,0.31c0,0,0,0,0,0c-0.02,0.11-0.03,0.21-0.05,0.31v0
		c-0.01,0.11-0.02,0.21-0.04,0.32c0,0,0,0,0,0c-0.01,0.11-0.02,0.21-0.03,0.31c0,0,0,0,0,0c-0.01,0.11-0.02,0.21-0.02,0.32v0
		c0,0.11-0.01,0.21-0.01,0.32v0c0,0.27,0,0.53,0,0.8c0.01,0.14,0.02,0.29,0.03,0.43c0,0.02,0,0.04,0,0.05
		c0.01,0.14,0.02,0.27,0.04,0.41c0,0,0,0.01,0,0.02c0.01,0.12,0.03,0.23,0.05,0.35c0,0.04,0.01,0.08,0.02,0.11
		c0.02,0.14,0.05,0.29,0.08,0.43c0.02,0.11,0.05,0.23,0.07,0.34c0.01,0.04,0.02,0.07,0.02,0.11c0.01,0.02,0.01,0.04,0.02,0.07
		c0.03,0.12,0.06,0.25,0.1,0.38c0.04,0.12,0.07,0.25,0.11,0.38c0.03,0.09,0.06,0.18,0.09,0.28c0.04,0.1,0.07,0.2,0.11,0.3
		c0.46,1.25,1.24,2.29,2.16,3.21c0.81,0.82,1.72,1.54,2.63,2.22c3.82,2.95,7.77,4.96,11.88,7.25c3.59,2.14,7.1,4.48,10.23,7.27
		c0.2-1.11,0.39-2.21,0.59-3.33c0.17-0.95,0.34-1.9,0.5-2.86c0.01-0.03,0.01-0.07,0.02-0.1c0.02-0.09,0.03-0.18,0.05-0.27
		c0.22-1.34,0.43-2.7,0.61-4.05c0-0.05,0.01-0.11,0.02-0.17c0.02-0.1,0.03-0.19,0.04-0.29c0-0.01,0.01-0.02,0-0.03
		C512.34,118.52,512.36,118.42,512.36,118.32z M525.75,407.47c0.03,0.16,0.06,0.33,0.09,0.5
		C525.81,407.8,525.78,407.63,525.75,407.47z M525.96,408.77c-0.02-0.18-0.05-0.34-0.08-0.52
		C525.91,408.43,525.93,408.6,525.96,408.77z M537.41,116.16c0.01-0.32-0.01-0.66-0.06-1c-0.01-0.07-0.02-0.14-0.04-0.21
		c0,0,0,0,0-0.01c0-0.03-0.01-0.05-0.02-0.08c0-0.03-0.01-0.07-0.02-0.1c-0.01-0.04-0.02-0.07-0.03-0.11s-0.02-0.07-0.03-0.11
		c-0.02-0.08-0.05-0.16-0.07-0.24c0-0.01,0-0.02-0.01-0.03c0-0.01-0.01-0.02-0.01-0.03c-0.01-0.02-0.02-0.04-0.02-0.06
		c-0.01-0.03-0.02-0.06-0.04-0.09c-0.01-0.03-0.02-0.05-0.03-0.08c-0.02-0.04-0.03-0.07-0.05-0.11c-0.01-0.03-0.02-0.05-0.04-0.08
		c-0.02-0.04-0.04-0.09-0.07-0.12c-0.01-0.02-0.02-0.04-0.03-0.05c-0.01-0.02-0.02-0.04-0.04-0.07c-0.03-0.05-0.06-0.1-0.1-0.15
		c0-0.01-0.01-0.02-0.02-0.03c-0.02-0.03-0.04-0.06-0.06-0.09c-0.01-0.01-0.01-0.02-0.02-0.03c-0.04-0.05-0.08-0.1-0.12-0.14
		c0,0,0-0.01,0-0.01c-0.02-0.02-0.03-0.03-0.04-0.04c-0.01-0.01-0.02-0.02-0.03-0.03c0-0.01-0.01-0.01-0.02-0.02
		c-0.01-0.01-0.02-0.02-0.04-0.04c-0.01-0.01-0.02-0.02-0.03-0.02c-0.01-0.01-0.02-0.02-0.03-0.03c-0.01-0.01-0.02-0.02-0.03-0.02
		c-0.01-0.01-0.02-0.02-0.03-0.02c-0.01-0.01-0.02-0.02-0.03-0.02c-0.04-0.03-0.07-0.05-0.11-0.08c0,0-0.01-0.01-0.02-0.01
		c0,0-0.01,0-0.02-0.01c-0.09-0.06-0.2-0.12-0.3-0.16c0,0-0.01,0-0.01,0c-0.04-0.02-0.09-0.04-0.13-0.05
		c-0.02-0.01-0.04-0.02-0.05-0.02c-0.02-0.01-0.04-0.01-0.05-0.02c-0.01,0-0.02-0.01-0.02-0.01c-0.02,0-0.04-0.01-0.05-0.01
		c-0.02-0.01-0.03-0.01-0.05-0.01c-0.01,0-0.02,0-0.03,0c-0.01,0-0.02-0.01-0.03-0.01c-0.02,0-0.04-0.01-0.05-0.01
		c-0.01,0-0.02,0-0.03,0c-0.02,0-0.03,0-0.05-0.01c-0.05-0.01-0.1-0.01-0.15-0.02c-0.06,0-0.13-0.01-0.2-0.01
		c-2.75,0.81-4.37,3.81-5.52,6.25c-0.02,0.05-0.04,0.1-0.06,0.14c-0.01,0.02-0.02,0.05-0.02,0.07c-0.04,0.1-0.08,0.21-0.11,0.31
		c-0.01,0.01-0.01,0.02-0.02,0.03c-0.02,0.04-0.03,0.08-0.04,0.11c0,0.01-0.01,0.02-0.01,0.03c0,0.02-0.01,0.03-0.02,0.04v0
		c-0.03,0.09-0.06,0.18-0.09,0.26c-0.01,0.04-0.03,0.09-0.04,0.12c-0.02,0.07-0.05,0.15-0.07,0.22c-0.04,0.12-0.08,0.25-0.11,0.39
		c-0.02,0.06-0.03,0.12-0.05,0.18c0,0,0,0,0,0c-0.04,0.13-0.07,0.27-0.1,0.4v0c-0.03,0.13-0.06,0.27-0.09,0.4c0,0,0,0.01,0,0.01
		c-0.06,0.26-0.11,0.52-0.15,0.79c-0.03,0.15-0.05,0.3-0.07,0.46c-0.01,0.06-0.02,0.13-0.03,0.19c-0.01,0.07-0.02,0.13-0.02,0.2
		c0,0.01,0,0.02,0,0.03c0,0,0,0,0,0.01c0,0.04-0.01,0.07-0.01,0.11c-0.01,0.06-0.02,0.12-0.02,0.18c-0.02,0.13-0.03,0.26-0.04,0.39
		c-0.01,0.11-0.02,0.21-0.02,0.32c-0.01,0.12-0.02,0.25-0.02,0.37c-0.01,0.26-0.02,0.52-0.02,0.78c0,0.16,0,0.32,0.01,0.48
		c0,0.12,0.01,0.25,0.02,0.38c0.01,0.12,0.02,0.25,0.02,0.37c0,0.03,0,0.06,0.01,0.09c0.01,0.12,0.02,0.25,0.04,0.37
		c0.02,0.14,0.03,0.28,0.05,0.42c0.01,0.07,0.02,0.14,0.03,0.2c0,0.02,0,0.04,0.01,0.05s0,0.04,0.01,0.05
		c0.01,0.05,0.01,0.09,0.02,0.14c0.02,0.12,0.04,0.24,0.07,0.35c0,0.02,0.01,0.05,0.02,0.07c0.02,0.1,0.04,0.2,0.06,0.29
		c0.01,0.06,0.03,0.12,0.04,0.18c0,0.02,0.01,0.04,0.02,0.07c0,0.01,0,0.02,0.01,0.03c0.01,0.07,0.03,0.14,0.05,0.2
		c0.01,0.05,0.02,0.09,0.04,0.13c0,0.02,0,0.03,0.01,0.04c0.01,0.05,0.03,0.11,0.05,0.17c0,0.02,0.01,0.03,0.02,0.05
		c0,0.01,0,0.02,0.01,0.03c0.04,0.14,0.09,0.28,0.14,0.41c0.01,0.02,0.01,0.04,0.02,0.05c0.03,0.09,0.07,0.18,0.1,0.27
		c0,0.02,0.01,0.03,0.02,0.04c0.01,0.03,0.02,0.06,0.04,0.09c0.03,0.08,0.07,0.16,0.1,0.24c0.05,0.12,0.11,0.25,0.17,0.37
		c0.04,0.09,0.09,0.19,0.14,0.28c0.01,0.03,0.02,0.05,0.04,0.08c0.07,0.12,0.13,0.25,0.21,0.37c0.01,0.02,0.02,0.04,0.03,0.05
		c0.01,0.02,0.03,0.05,0.04,0.07c0,0.01,0.01,0.02,0.02,0.04c0.02,0.03,0.04,0.06,0.06,0.09c0,0,0,0.01,0.01,0.01
		c0.5,0.8,1.14,1.52,1.91,2.13l0,0c0.03,0.02,0.07,0.05,0.1,0.07c0.01,0.01,0.02,0.02,0.03,0.02c0.02,0.02,0.05,0.04,0.07,0.05
		c0.02,0.01,0.03,0.02,0.05,0.04c0.01,0.01,0.02,0.01,0.03,0.02c0.46,0.34,0.98,0.63,1.54,0.87l0,0c0,0,0,0,0.01,0
		c0.04,0.02,0.09,0.04,0.13,0.05c0,0,0.01,0,0.02,0.01c0.05,0.02,0.1,0.04,0.15,0.06c0.29,0.12,0.57,0.28,0.79,0.5
		c0.03,0.03,0.06,0.06,0.09,0.09c0,0,0,0,0,0c1.04-6.47,2.28-13,2.7-19.51c0-0.03,0-0.05,0-0.08
		C537.41,116.2,537.41,116.18,537.41,116.16L537.41,116.16z M561.68,333.61C561.68,333.61,561.68,333.61,561.68,333.61
		c-2.05-2.95-3.85-6.26-5.45-9.74c-5.01-10.7-9.5-21.66-13.38-32.84c0,0,0-0.01,0-0.01c0-0.01,0-0.01,0-0.02
		c-0.12-0.35-0.24-0.7-0.36-1.05c0,0,0-0.01,0-0.01s0-0.01,0-0.01c-0.09-0.27-0.18-0.54-0.27-0.8c-0.09-0.27-0.19-0.55-0.28-0.82
		c0-0.01-0.01-0.02-0.01-0.02c-0.01-0.04-0.02-0.07-0.04-0.11c-0.02-0.07-0.05-0.15-0.07-0.22c0-0.01,0-0.02-0.01-0.02
		c-0.01-0.02-0.01-0.04-0.02-0.05c-0.05-0.14-0.1-0.29-0.14-0.44c0,0,0-0.01,0-0.01c-0.09-0.28-0.18-0.55-0.27-0.82
		c-0.02-0.07-0.04-0.13-0.07-0.2c-0.06-0.18-0.12-0.35-0.17-0.53c-0.04-0.13-0.09-0.26-0.13-0.39c-0.02-0.04-0.03-0.08-0.04-0.12
		c-0.21-0.63-0.41-1.26-0.61-1.89c-0.01-0.02-0.02-0.05-0.02-0.07c-0.21-0.66-0.42-1.32-0.62-1.98c0-0.01-0.01-0.02-0.01-0.02
		c-0.06-0.2-0.12-0.39-0.18-0.59c-0.02-0.07-0.04-0.14-0.06-0.21c-1.01-3.27-1.98-6.56-2.88-9.86c-0.01-0.04-0.02-0.07-0.03-0.1
		c-0.02-0.08-0.04-0.15-0.06-0.23c-0.03-0.1-0.05-0.2-0.08-0.29c0,0,0-0.01,0-0.01c0-0.01-0.01-0.02-0.01-0.04c0,0,0-0.01,0-0.01
		c-0.03-0.1-0.05-0.2-0.09-0.3c-0.02-0.06-0.03-0.12-0.05-0.18c0-0.01,0-0.01,0-0.02c-0.01-0.04-0.02-0.08-0.04-0.12v0
		c0,0,0-0.01,0-0.01c-0.01-0.03-0.02-0.05-0.02-0.08c-0.04-0.16-0.08-0.31-0.12-0.46c-0.01-0.03-0.01-0.05-0.02-0.08v0
		c-0.03-0.09-0.05-0.18-0.07-0.27c-0.02-0.07-0.04-0.15-0.06-0.22c-0.02-0.06-0.03-0.12-0.05-0.18c0-0.01,0-0.01,0-0.02
		c-0.05-0.2-0.11-0.4-0.16-0.61c-0.01-0.02-0.01-0.04-0.02-0.06c0,0,0-0.01,0-0.01c0-0.02-0.01-0.04-0.02-0.06c0,0,0,0,0,0
		c-0.02-0.07-0.04-0.15-0.06-0.23c0-0.01-0.01-0.02-0.01-0.04c-0.03-0.12-0.06-0.25-0.09-0.38c0,0,0-0.01,0-0.01c0,0,0,0,0,0
		c0-0.03-0.01-0.06-0.02-0.09c0,0,0-0.01,0-0.01s0,0,0-0.01c-0.1-0.38-0.2-0.77-0.29-1.15c0-0.01,0-0.01,0-0.02
		c-0.03-0.12-0.06-0.25-0.09-0.37c0-0.02-0.01-0.04-0.02-0.05c-0.01-0.05-0.02-0.1-0.04-0.15c0,0,0-0.01,0-0.01
		c-0.01-0.04-0.02-0.08-0.03-0.12c0-0.01,0-0.01,0-0.02c0-0.01-0.01-0.02-0.01-0.04c-0.01-0.02-0.01-0.04-0.02-0.05
		c0,0,0-0.01,0-0.01v0c0,0,0,0,0,0c-0.03-0.13-0.07-0.26-0.1-0.39c-0.01-0.03-0.02-0.06-0.02-0.08c-0.07-0.28-0.14-0.55-0.2-0.83
		c-0.02-0.1-0.05-0.19-0.07-0.29v0c-0.03-0.11-0.05-0.22-0.08-0.33c0-0.01,0-0.02,0-0.02c-0.03-0.11-0.06-0.23-0.09-0.35
		c-0.02-0.08-0.04-0.16-0.06-0.24c0,0,0,0,0-0.01c-0.07-0.3-0.14-0.6-0.21-0.89c0-0.02-0.01-0.03-0.01-0.04
		c-0.04-0.18-0.09-0.36-0.12-0.53c-0.01-0.04-0.02-0.07-0.03-0.11c-0.04-0.16-0.07-0.32-0.11-0.48c0-0.01,0-0.02,0-0.02
		c-0.06-0.24-0.11-0.49-0.17-0.73c-0.05-0.21-0.09-0.41-0.14-0.61c-0.01-0.04-0.02-0.09-0.03-0.12c-0.02-0.11-0.05-0.23-0.07-0.34
		c-0.01-0.03-0.02-0.05-0.02-0.08c-0.03-0.14-0.06-0.27-0.09-0.41c-0.02-0.09-0.04-0.18-0.06-0.27c0-0.02-0.01-0.04-0.01-0.07
		c-0.02-0.07-0.04-0.15-0.05-0.22c-0.01-0.04-0.02-0.07-0.02-0.1c-0.07-0.31-0.14-0.62-0.21-0.94c-0.01-0.04-0.02-0.07-0.02-0.11
		c0-0.01,0-0.02,0-0.02c-0.01-0.03-0.02-0.06-0.02-0.1c0-0.01,0-0.02-0.01-0.03c-0.02-0.07-0.03-0.15-0.05-0.22c0,0,0,0,0-0.01
		c-0.01-0.03-0.01-0.05-0.02-0.08v0c0-0.01,0-0.01,0-0.02c0-0.02-0.01-0.03-0.01-0.05c-0.02-0.08-0.04-0.16-0.05-0.24
		c0-0.02-0.01-0.04-0.01-0.05c0-0.03-0.01-0.05-0.02-0.08c-0.01-0.04-0.02-0.07-0.02-0.1c0,0,0,0,0,0c-0.07-0.3-0.13-0.61-0.2-0.91
		c0,0,0,0,0,0c0-0.03-0.01-0.06-0.02-0.09c-0.01-0.05-0.02-0.09-0.03-0.14c-0.01-0.04-0.02-0.07-0.02-0.11c0,0,0,0,0,0
		c-0.03-0.14-0.06-0.28-0.09-0.41c0-0.02-0.01-0.05-0.01-0.07c0,0,0,0,0,0c0-0.01-0.01-0.02-0.01-0.03c0-0.01,0-0.02,0-0.02
		c-0.08-0.39-0.16-0.79-0.25-1.18c-0.01-0.05-0.02-0.11-0.03-0.16c0-0.02-0.01-0.04-0.02-0.06c-0.01-0.06-0.02-0.12-0.04-0.18
		c0-0.02-0.01-0.05-0.01-0.07s-0.01-0.04-0.01-0.05c0,0,0,0,0-0.01c-0.04-0.18-0.07-0.36-0.11-0.54c0-0.01,0-0.02,0-0.03
		c0,0,0,0,0-0.01c0-0.01,0-0.02,0-0.03c-0.03-0.14-0.05-0.28-0.08-0.41c0-0.01,0-0.02-0.01-0.02c0-0.03-0.01-0.06-0.02-0.09
		c0-0.01,0-0.02,0-0.02s0-0.01,0-0.01c-0.02-0.13-0.05-0.26-0.07-0.39c-0.01-0.05-0.02-0.1-0.03-0.15c0,0,0,0,0,0
		c0-0.01,0-0.01,0-0.02s0,0,0,0c-0.01-0.03-0.01-0.06-0.02-0.09c-0.02-0.11-0.04-0.22-0.06-0.33c-0.01-0.03-0.01-0.05-0.02-0.08
		c-0.01-0.06-0.02-0.12-0.04-0.18c-0.02-0.08-0.03-0.16-0.05-0.24c0,0,0-0.01,0-0.01c-0.04-0.23-0.09-0.47-0.13-0.7
		c0,0,0-0.01,0-0.01s0-0.02,0-0.02c0,0,0-0.01,0-0.01c-0.01-0.04-0.02-0.07-0.02-0.12c0-0.01,0-0.02,0-0.02
		c-0.03-0.16-0.06-0.32-0.09-0.48c0,0,0-0.01,0-0.02s0,0,0-0.01c0,0,0-0.01,0-0.01c0-0.01,0-0.02,0-0.02c0,0,0,0,0-0.01v0
		c0-0.01,0-0.02-0.01-0.04c-0.02-0.11-0.04-0.23-0.06-0.34c0,0,0-0.01,0-0.02s0,0,0-0.01c-0.01-0.04-0.02-0.09-0.03-0.14
		c0-0.02,0-0.03-0.01-0.05c0-0.02-0.01-0.04-0.01-0.06c0,0,0,0,0-0.01c0,0,0,0,0-0.01c0-0.01,0-0.02,0-0.03c0,0,0-0.01,0-0.01
		c-0.04-0.22-0.08-0.44-0.12-0.66c-0.01-0.05-0.02-0.09-0.02-0.13c0,0,0,0,0-0.01c-0.01-0.05-0.02-0.11-0.03-0.16c0,0,0-0.01,0-0.01
		c0-0.01,0-0.02-0.01-0.03c0-0.02-0.01-0.04-0.01-0.06c0-0.01,0-0.01,0-0.02c0-0.03-0.01-0.05-0.02-0.08
		c-0.01-0.05-0.02-0.11-0.03-0.17c0-0.02,0-0.04-0.01-0.05c0-0.01,0-0.02,0-0.02c-0.04-0.22-0.08-0.43-0.12-0.65
		c0-0.02,0-0.03-0.01-0.05c0,0,0,0,0,0c0-0.02-0.01-0.04-0.01-0.06c-0.02-0.11-0.04-0.21-0.05-0.31c0-0.01,0-0.02,0-0.02
		c-0.02-0.1-0.04-0.2-0.05-0.3v0c-0.01-0.05-0.02-0.1-0.03-0.15c-0.04-0.25-0.09-0.5-0.13-0.74c-0.01-0.06-0.02-0.11-0.03-0.17
		c0,0,0-0.01,0-0.01c-0.05-0.28-0.09-0.55-0.14-0.82c0-0.01,0-0.02,0-0.02c-0.01-0.04-0.02-0.08-0.02-0.12
		c-0.03-0.17-0.05-0.34-0.08-0.5c0-0.01,0-0.02,0-0.02c0-0.03-0.01-0.06-0.02-0.09c-0.01-0.09-0.03-0.17-0.04-0.26
		c-0.01-0.09-0.03-0.17-0.04-0.25c0-0.01,0-0.02,0-0.03c-0.01-0.06-0.02-0.12-0.03-0.18c0,0,0-0.01,0-0.01c0-0.02,0-0.03-0.01-0.04
		c0,0,0,0,0,0s0-0.01,0-0.02v0c-0.01-0.06-0.02-0.11-0.03-0.17c-0.03-0.19-0.06-0.38-0.09-0.56c-0.01-0.04-0.02-0.08-0.02-0.12
		c-0.01-0.07-0.02-0.14-0.04-0.22v0c-0.01-0.05-0.02-0.11-0.03-0.17c0-0.01,0-0.02,0-0.02c-0.04-0.26-0.08-0.52-0.12-0.77
		c0,0,0,0,0-0.01c0,0,0-0.02,0-0.02v0c0-0.01,0-0.02,0-0.02s0-0.01,0-0.01c-0.01-0.05-0.02-0.1-0.02-0.15c0-0.01,0-0.02-0.01-0.03
		c0-0.04-0.01-0.08-0.02-0.12c0-0.03-0.01-0.05-0.01-0.08s-0.01-0.06-0.02-0.09c-0.01-0.05-0.02-0.11-0.02-0.16
		c0-0.01,0-0.02,0-0.03c-0.02-0.14-0.04-0.27-0.06-0.41c-0.02-0.09-0.03-0.19-0.04-0.29c-1.37-10.61-3.62-21.07-6.29-31.42
		c-3.55,8.82-7.09,17.64-10.81,26.4c-7.59,17.96-17.44,34.84-25.27,52.7c-9.9,21.95-14.94,45.91-26.77,67
		c-4.98,8.39-10.09,16.73-15.56,24.82c0,0,0,0,0,0v0c3.06-0.72,6.09-1.58,9.09-2.57c2.29-0.91,4.5-1.96,6.66-3.12l0,0
		c0.26-0.14,0.52-0.28,0.77-0.42c0.26-0.14,0.51-0.29,0.77-0.43c0.29-0.16,0.58-0.33,0.87-0.5c0.27-0.16,0.52-0.31,0.79-0.47l0,0
		c0,0,0,0,0,0c4.09-2.46,7.95-5.29,11.67-8.31c0.48-0.39,0.97-0.79,1.45-1.19c0.05-0.04,0.11-0.09,0.16-0.13
		c0.47-0.39,0.93-0.79,1.4-1.18c0,0.02,0,0.05,0,0.07c0,0.01,0,0.02,0,0.03c0,0.02,0,0.05,0,0.07c0,0,0,0,0,0
		c-0.01,0.36-0.02,0.7-0.02,1c-0.02,0.73-0.03,1.31-0.04,1.68c0,0.09,0,0.16,0,0.23c-0.02,0.3-0.03,0.61-0.04,0.91
		c-0.02,0.44-0.03,0.89-0.04,1.33c0,0,0,0,0,0h0c0.99-0.5,1.99-0.97,3-1.41c0.02-0.01,0.05-0.02,0.08-0.04
		c0.05-0.03,0.11-0.05,0.16-0.07c3.03-1.32,6.14-2.42,9.31-3.39c0.09-0.03,0.17-0.05,0.26-0.08c0.01,0,0.02,0,0.02,0c0,0,0,0,0.01,0
		c0.13-0.04,0.25-0.08,0.38-0.12c0.01,0,0.02,0,0.04-0.01l0,0c0.09-0.03,0.19-0.05,0.28-0.08c0.01,0,0.01,0,0.02,0
		c0,0,0.01,0,0.02-0.01c0.25-0.07,0.49-0.14,0.74-0.21c0.11-0.03,0.22-0.07,0.33-0.1c0.06-0.02,0.12-0.03,0.18-0.05
		c0.09-0.03,0.19-0.05,0.29-0.08c0.05-0.02,0.11-0.03,0.17-0.05c0.14-0.04,0.27-0.07,0.41-0.11c0.07-0.02,0.14-0.04,0.21-0.06
		s0.14-0.04,0.21-0.06c0.09-0.02,0.17-0.05,0.26-0.07c0.05-0.02,0.1-0.03,0.15-0.04c0.19-0.05,0.38-0.1,0.56-0.15
		c0.02-0.01,0.05-0.01,0.07-0.02c0.11-0.03,0.22-0.06,0.33-0.09c0.02,0,0.04-0.01,0.05-0.01c9.51-2.55,19.31-4.35,28.54-7.66
		c0.02-0.01,0.04-0.02,0.07-0.02c0.15-0.06,0.3-0.11,0.46-0.17c12.51-4.31,24.38-10.22,36.48-15.54
		C561.39,333.74,561.54,333.68,561.68,333.61C561.68,333.61,561.68,333.61,561.68,333.61z M566.82,800.91
		c-1.12-0.36-2.25-0.71-3.38-1.07C564.57,800.2,565.7,800.56,566.82,800.91z M576.82,345.11c-0.3-0.08-0.59-0.16-0.88-0.24
		C576.23,344.96,576.53,345.04,576.82,345.11z M576.94,604.16c1.35-0.14,2.7-0.18,4.06-0.14
		C579.64,603.97,578.28,604.01,576.94,604.16c-0.59,0.05-1.18,0.14-1.77,0.24l0,0C575.76,604.3,576.35,604.21,576.94,604.16z
		 M587.39,345.36c-0.49,0.09-0.97,0.16-1.44,0.22C586.42,345.52,586.9,345.45,587.39,345.36z M586.79,604.7
		c0.35,0.07,0.69,0.14,1.04,0.22C587.48,604.84,587.14,604.77,586.79,604.7s-0.7-0.13-1.05-0.19
		C586.09,604.57,586.44,604.63,586.79,604.7z M591.62,807.65c-1.02-0.24-2.04-0.48-3.05-0.72
		C589.58,807.17,590.6,807.41,591.62,807.65z M588.99,605.2c0.42,0.11,0.85,0.22,1.27,0.34C589.84,605.41,589.41,605.3,588.99,605.2
		z M592.78,606.32c-0.83-0.29-1.67-0.55-2.52-0.78C591.11,605.78,591.95,606.04,592.78,606.32z M591.66,681.15
		c-0.29,0.02-0.59,0.05-0.89,0.07C591.08,681.2,591.37,681.18,591.66,681.15z M594.59,680.8c-0.31,0.05-0.62,0.09-0.95,0.13
		c-0.3,0.04-0.6,0.07-0.91,0.11c0.31-0.03,0.61-0.07,0.91-0.11C593.97,680.89,594.28,680.84,594.59,680.8z M605.19,588.52
		c-0.87-0.24-1.75-0.47-2.62-0.69h0c-0.3-0.08-0.59-0.15-0.89-0.22c-0.02,0-0.05-0.01-0.07-0.02c-0.39-0.09-0.79-0.19-1.18-0.27
		c-0.48-0.11-0.96-0.21-1.44-0.32l0,0c0.48,0.1,0.96,0.21,1.44,0.32c0.39,0.09,0.79,0.18,1.18,0.27c0.02,0,0.05,0.01,0.07,0.02
		c0.3,0.07,0.59,0.14,0.89,0.22h0C603.45,588.05,604.32,588.28,605.19,588.52z M609.4,589.8c-0.84-0.29-1.7-0.55-2.55-0.8
		C607.7,589.25,608.55,589.52,609.4,589.8z M612.04,335.48c0.19-0.05,0.38-0.11,0.56-0.16
		C612.41,335.37,612.23,335.42,612.04,335.48z M618.36,334.4c0.16-0.01,0.33-0.01,0.49-0.02
		C618.69,334.39,618.53,334.39,618.36,334.4c-0.33,0.01-0.66,0.03-0.99,0.06C617.7,334.44,618.04,334.42,618.36,334.4z
		 M632.49,647.19c-0.41,0.15-0.85,0.27-1.31,0.38c-0.35,0.07-0.71,0.14-1.08,0.19c0.37-0.05,0.73-0.11,1.08-0.19
		C631.64,647.46,632.08,647.34,632.49,647.19z M632.6,604.79c-0.11-0.03-0.21-0.05-0.3-0.07c-0.27-0.08-0.53-0.17-0.79-0.26
		c0.26,0.09,0.53,0.18,0.8,0.27C632.39,604.74,632.49,604.76,632.6,604.79z M632.93,604.89c0.08,0.03,0.16,0.05,0.23,0.08
		C633.08,604.93,633,604.91,632.93,604.89z M634.06,646.3c-0.14,0.12-0.29,0.23-0.46,0.34C633.77,646.54,633.92,646.43,634.06,646.3
		z M637.07,605.58c-0.07,0.03-0.14,0.06-0.21,0.08C636.93,605.64,637.01,605.61,637.07,605.58z M640.22,568.71
		c0.04-0.24,0.11-0.65,0.2-1.16C640.32,568.06,640.26,568.46,640.22,568.71c-0.09,0.41-0.16,0.82-0.23,1.23
		c-0.05,0.31-0.11,0.61-0.15,0.92c-1.09,6.91-0.79,13.98-0.7,21.02c-0.1,4.29,0.36,8.78-1.33,12.86c-0.07,0.19-0.16,0.34-0.27,0.47
		c0.11-0.13,0.2-0.28,0.27-0.46c1.69-4.08,1.23-8.57,1.33-12.86c-0.1-7.04-0.39-14.11,0.7-21.02c0.05-0.31,0.1-0.61,0.15-0.92
		C640.06,569.53,640.14,569.12,640.22,568.71z M640.96,564.86C640.96,564.86,640.96,564.86,640.96,564.86
		c-0.08,0.31-0.14,0.63-0.21,0.93C640.82,565.49,640.89,565.18,640.96,564.86z M652.85,445.09c-2.88-1.06-5.91-1.65-8.93-1.65
		c-2.93,0-5.84,0.55-8.59,1.78c0.05,0.02,0.09,0.03,0.14,0.04c2.34,0.79,5.14,1.14,7.53,1.06
		C646.32,446.24,649.59,445.67,652.85,445.09z M646.02,341.65c-0.37-0.05-0.74-0.11-1.11-0.18
		C645.28,341.54,645.65,341.59,646.02,341.65z M653.83,110.14c0.02-0.05,0.03-0.09,0.04-0.14h0c-0.02,0-0.05-0.01-0.07-0.01
		c-0.51-0.09-1.02-0.16-1.54-0.22c-0.02,0-0.04-0.01-0.06-0.01c-0.05-0.01-0.09-0.01-0.14-0.02c-0.14-0.02-0.29-0.03-0.43-0.04
		c-0.08-0.01-0.16-0.02-0.24-0.03c-0.11-0.01-0.22-0.02-0.33-0.03c-0.02,0-0.03,0-0.04,0c-0.01,0-0.01,0-0.02,0
		c-0.24-0.02-0.48-0.04-0.73-0.05c-0.03,0-0.05,0-0.08,0c-0.11-0.01-0.21-0.01-0.32-0.02c-0.05,0-0.11,0-0.17-0.01
		c-0.18-0.01-0.35-0.01-0.53-0.02c-0.1,0-0.19-0.01-0.29-0.01c-0.27,0-0.53-0.01-0.79-0.01c-0.01,0-0.03,0-0.04,0
		c-0.3,0-0.61,0-0.92,0.01c-0.17,0-0.35,0.01-0.52,0.01c-0.19,0-0.38,0.01-0.57,0.02c-0.29,0.01-0.59,0.03-0.88,0.05
		c-0.06,0-0.12,0.01-0.19,0.02c-0.05,0-0.11,0.01-0.17,0.01c-0.02,0-0.03,0-0.05,0c-0.16,0.01-0.32,0.02-0.47,0.04
		c-0.02,0-0.04,0-0.05,0c-0.07,0-0.14,0.01-0.21,0.02c-0.07,0-0.15,0.01-0.23,0.02c-0.16,0.02-0.32,0.03-0.48,0.05
		c-0.34,0.03-0.69,0.07-1.04,0.11c-0.26,0.03-0.52,0.05-0.78,0.09c-0.26,0.03-0.52,0.06-0.77,0.1c-0.06,0-0.12,0.01-0.19,0.02
		c0,0,0,0-0.01,0c-0.46,0.06-0.91,0.12-1.36,0.19c-0.42,0.06-0.84,0.12-1.26,0.2c-0.09,0.02-0.19,0.03-0.29,0.05
		c-0.19,0.03-0.38,0.06-0.57,0.09c-0.32,0.05-0.64,0.11-0.96,0.16c-7.31,1.93-13.93,5.67-20.43,9.36c-2.23,1.32-4.46,2.65-6.72,3.91
		c-0.68,0.38-1.37,0.76-2.05,1.13c-0.56,0.31-1.12,0.61-1.69,0.91c-0.05,0.03-0.09,0.05-0.14,0.08c0,0-0.01,0-0.02,0.01
		c11.28-2.36,45.54-3.43,48.77-16.04C653.83,110.15,653.83,110.15,653.83,110.14z M665.33,670.9c0.15,0.01,0.3,0.02,0.46,0.04
		C665.64,670.92,665.48,670.91,665.33,670.9z M666.26,381.49c-0.19-0.64-0.39-1.27-0.59-1.9
		C665.87,380.22,666.07,380.86,666.26,381.49z M667.5,671.21c0.14,0.03,0.28,0.07,0.42,0.1
		C667.78,671.28,667.64,671.25,667.5,671.21z M668.37,389.19c-0.16-0.64-0.32-1.29-0.49-1.93
		C668.05,387.89,668.21,388.54,668.37,389.19z M670.16,624.01c-0.18-0.04-0.36-0.09-0.54-0.15
		C669.8,623.92,669.98,623.97,670.16,624.01z M670.2,397.97c-0.17-0.98-0.35-1.96-0.54-2.94C669.85,396,670.03,396.98,670.2,397.97z
		 M658.36,434.12c13.37-4.99,14.27-13.41,13.12-26.29c-0.14-1.65-0.32-3.3-0.54-4.95c0.21,1.64,0.39,3.29,0.54,4.94
		C672.63,420.71,671.72,429.13,658.36,434.12c-5.68,2.31-11.86,3.81-18.15,4.5c-11.24,1.29-27.88,1.19-35.84,10.57
		c-16.02,1.87-31.95,5.3-48.16,3.71c-1.7-0.21-3.39-0.52-5.05-0.95c1.67,0.43,3.36,0.74,5.06,0.95c16.21,1.59,32.14-1.84,48.16-3.71
		c7.96-9.38,24.6-9.27,35.84-10.57C646.5,437.94,652.68,436.44,658.36,434.12z M671.91,623.77c-0.09,0.06-0.2,0.11-0.3,0.15
		C671.71,623.89,671.82,623.84,671.91,623.77z M672.15,623.6c0.14-0.12,0.29-0.27,0.41-0.44
		C672.43,623.33,672.3,623.48,672.15,623.6z M673.16,621.98c0.05-0.14,0.09-0.28,0.13-0.43C673.25,621.7,673.2,621.84,673.16,621.98
		z M673.27,618.31c0.04,0.39,0.08,0.79,0.12,1.18C673.36,619.1,673.31,618.71,673.27,618.31z M673.46,620.79
		c-0.01-0.4-0.03-0.8-0.06-1.2C673.42,619.99,673.45,620.39,673.46,620.79c-0.04,0.2-0.08,0.39-0.12,0.57
		C673.38,621.18,673.42,620.99,673.46,620.79z M675.46,674.31c-0.6-0.16-1.19-0.35-1.78-0.55
		C674.27,673.96,674.86,674.14,675.46,674.31z M682.02,588.57C682.02,588.57,682.02,588.57,682.02,588.57
		c-0.36,0.67-0.73,1.34-1.09,2.02c-0.36,0.68-0.72,1.36-1.08,2.03c-0.91,1.73-1.81,3.46-2.69,5.2c-2.37,4.77-4.15,10.18-4.23,15.57
		c-0.05,0.93,0.01,1.85,0.1,2.77c0.02,0.27,0.05,0.55,0.09,0.82c-0.03-0.28-0.06-0.55-0.09-0.82c-0.09-0.92-0.14-1.84-0.09-2.77
		c0.08-5.39,1.86-10.8,4.23-15.57c0.88-1.74,1.77-3.47,2.69-5.2c0.36-0.68,0.71-1.36,1.08-2.03
		C681.3,589.92,681.66,589.25,682.02,588.57z M683.41,675.61c-0.48-0.04-0.96-0.08-1.44-0.13
		C682.45,675.53,682.93,675.57,683.41,675.61z M685.58,759.11c0.04-0.12,0.08-0.23,0.14-0.35
		C685.66,758.88,685.61,759,685.58,759.11c-0.04,0.11-0.06,0.23-0.07,0.35c0,0.04-0.01,0.08-0.01,0.12
		c-0.02,0.16-0.02,0.3-0.02,0.45c0-0.14,0.01-0.29,0.03-0.45c0-0.04,0-0.08,0-0.12C685.52,759.34,685.55,759.23,685.58,759.11z
		 M685.78,758.65c0.05-0.07,0.09-0.15,0.14-0.22C685.87,758.5,685.82,758.57,685.78,758.65z M685.92,758.42
		c0.11-0.15,0.23-0.3,0.38-0.45C686.15,758.12,686.03,758.27,685.92,758.42z M687.3,757.13c-0.2,0.14-0.38,0.28-0.54,0.42
		C686.92,757.41,687.1,757.27,687.3,757.13z M693.46,765.33L693.46,765.33c-1.53,1.7-4.09,2.38-6.11,3.41
		c-3.59,1.57-7.64,2.99-11.33,4.78c-0.39,0.15-0.7,0.37-0.93,0.62c0.24-0.25,0.55-0.46,0.94-0.62c3.68-1.79,7.74-3.2,11.33-4.78
		C689.38,767.71,691.94,767.03,693.46,765.33z M694.98,741.76c-0.56-0.12-1.11-0.23-1.66-0.36
		C693.87,741.52,694.43,741.64,694.98,741.76z M703,750.68c-0.4,0.15-0.81,0.31-1.23,0.47C702.18,751,702.6,750.84,703,750.68z
		 M706.71,597.07C706.71,597.07,706.71,597.07,706.71,597.07c-0.86,0.49-1.72,1.01-2.57,1.54c-0.26,0.16-0.52,0.32-0.78,0.49v0
		c-3.78,2.39-7.39,5.03-10.8,7.94c-2.36,1.66-4.39,4.22-7.29,4.89v0c2.9-0.67,4.93-3.23,7.29-4.89c3.41-2.91,7.02-5.55,10.8-7.94v0
		c0.26-0.17,0.52-0.33,0.78-0.49C704.99,598.08,705.84,597.57,706.71,597.07z M707.36,748.65c-0.09,0.06-0.19,0.12-0.3,0.18
		C707.16,748.78,707.26,748.71,707.36,748.65z M707.76,748.38c-0.08,0.06-0.17,0.12-0.26,0.18
		C707.59,748.5,707.68,748.44,707.76,748.38z M708,748.2c-0.07,0.06-0.15,0.12-0.23,0.18C707.85,748.32,707.93,748.26,708,748.2z
		 M721.04,769.85C721.04,769.85,721.04,769.85,721.04,769.85c-1.05,1.2-2.09,2.39-3.11,3.59c-1.68,1.98-3.41,3.92-5.01,5.97
		c-0.53,0.7-1.02,1.56-1.03,2.46c-0.02,0.33,0.03,0.65,0.12,0.96c-0.09-0.31-0.13-0.63-0.12-0.96c0.01-0.9,0.5-1.76,1.03-2.46
		c1.59-2.05,3.32-3.99,5.01-5.97C718.96,772.24,720,771.05,721.04,769.85z M727.29,715.42c2.43-4.6,3.08-10.16,1.65-15.17
		c-0.07-0.23-0.14-0.46-0.22-0.69c0.07,0.23,0.14,0.46,0.21,0.69C730.36,705.26,729.71,710.81,727.29,715.42
		c-2.94,5.32-9.14,7.12-14.83,7.78c-4.88,0.66-9.78,1.01-14.68,1.29c-5.65,0.39-15.97,0.64-17.4,7.54c0.02,0.37,0.07,0.73,0.14,1.07
		c-0.06-0.34-0.11-0.7-0.13-1.07c1.43-6.9,11.75-7.14,17.4-7.54c4.91-0.28,9.81-0.62,14.68-1.29
		C718.15,722.54,724.35,720.74,727.29,715.42z M736.61,596.57L736.61,596.57c-0.05,0.01-0.11,0.03-0.17,0.05
		c-0.06,0.02-0.12,0.04-0.18,0.06c-0.1,0.03-0.19,0.07-0.29,0.11c-0.11,0.04-0.21,0.08-0.31,0.12c-0.21,0.08-0.42,0.17-0.63,0.27
		c-0.09,0.04-0.19,0.08-0.28,0.12c-0.22,0.1-0.44,0.21-0.66,0.32c-3.64,1.86-7.04,4.94-9.52,7.29c-3.36,3.3-6.36,6.93-9.4,10.5
		c-1.79,1.76-6.14,7.96-8.88,7.13c2.74,0.84,7.09-5.37,8.88-7.13c3.05-3.58,6.04-7.21,9.4-10.5c2.48-2.35,5.88-5.43,9.52-7.29
		c0.22-0.11,0.44-0.22,0.66-0.32c0.09-0.04,0.18-0.09,0.28-0.12c0.21-0.09,0.42-0.18,0.63-0.27c0.1-0.04,0.21-0.08,0.31-0.12
		c0.1-0.04,0.19-0.07,0.29-0.11c0.06-0.02,0.11-0.04,0.17-0.06C736.5,596.61,736.55,596.59,736.61,596.57z M739.31,803.16
		c2.2-1.12,4.33-2.36,6.39-3.71C743.64,800.79,741.51,802.04,739.31,803.16c-10.98,5.09-23.42,6.18-35.09,9.03
		c-31.46,8.39-47.91,7.51-79.61,1.83c-4.88-0.82-9.75-1.67-14.61-2.57c-1.95-0.36-3.89-0.74-5.83-1.12
		c1.94,0.39,3.88,0.76,5.83,1.12c4.86,0.91,9.74,1.76,14.61,2.58c31.71,5.68,48.15,6.56,79.61-1.83
		C715.89,809.34,728.34,808.26,739.31,803.16z M741.95,632.41c0.57-0.58,1.13-1.16,1.69-1.75
		C743.09,631.25,742.52,631.83,741.95,632.41c-0.29,0.29-0.57,0.58-0.86,0.86C741.38,632.99,741.67,632.7,741.95,632.41z
		 M748.57,797.5c-0.65,0.46-1.31,0.92-1.98,1.37C747.26,798.43,747.92,797.97,748.57,797.5z M748.33,624.39L748.33,624.39
		c-0.14-0.01-0.28-0.02-0.42-0.04c-0.08,0-0.16-0.01-0.24-0.02c-0.14-0.01-0.27-0.03-0.41-0.05c-0.17-0.02-0.34-0.04-0.5-0.07
		c-0.21-0.04-0.41-0.07-0.62-0.12c-0.15-0.03-0.3-0.07-0.46-0.11c-0.16-0.04-0.31-0.08-0.47-0.12c-0.18-0.05-0.36-0.11-0.54-0.17
		c0.18,0.06,0.36,0.12,0.54,0.17c0.16,0.05,0.31,0.09,0.47,0.12c0.15,0.04,0.3,0.07,0.46,0.11c0.21,0.04,0.41,0.08,0.62,0.12
		c0.17,0.03,0.34,0.05,0.5,0.07c0.14,0.02,0.27,0.04,0.41,0.05c0.08,0.01,0.16,0.02,0.24,0.02
		C748.05,624.37,748.19,624.38,748.33,624.39z M756.45,643.23C756.45,643.23,756.45,643.22,756.45,643.23
		c-0.43-0.03-0.86-0.05-1.3-0.07c-0.39-0.02-0.78-0.03-1.16-0.05c-0.38-0.02-0.75-0.03-1.12-0.04c-7.39-0.24-14.82-0.03-22.21,0.41
		l0,0c7.39-0.44,14.82-0.66,22.21-0.41c0.38,0.01,0.75,0.02,1.12,0.04c0.39,0.02,0.78,0.03,1.16,0.05
		C755.59,643.18,756.02,643.2,756.45,643.23z M756.29,770.9c0.45-0.44,0.87-0.85,1.27-1.25
		C757.16,770.04,756.74,770.46,756.29,770.9c-0.3,0.29-0.61,0.6-0.92,0.92c-2.32,2.66-4.32,5.7-5.6,9
		c-0.43,1.09-0.78,2.21-1.04,3.36h0c0.26-1.14,0.61-2.26,1.04-3.35c1.29-3.3,3.28-6.34,5.6-9C755.69,771.5,756,771.2,756.29,770.9z
		 M756.71,791c1.74-1.54,3.43-3.12,5.09-4.74C760.14,787.88,758.45,789.46,756.71,791z M769.07,778.8
		C769.07,778.8,769.07,778.8,769.07,778.8c-2.37,2.52-4.78,5.02-7.27,7.45C764.3,783.83,766.71,781.32,769.07,778.8z M842.62,626.28
		c-0.29-0.95-0.58-1.89-0.89-2.83C842.04,624.39,842.34,625.34,842.62,626.28z M825.71,706.34c15.29-16.86,23.75-38.47,21.05-61.29
		c-0.27-1.91-0.58-3.81-0.94-5.71c0.36,1.89,0.67,3.79,0.93,5.7C849.46,667.87,841,689.48,825.71,706.34
		c-6.64,7.73-14.54,14.46-22.82,20.58l0,0C811.18,720.8,819.08,714.07,825.71,706.34z M873.79,645.55
		c4.12,27.48-1.26,46.25-21.12,65.9c-7.91,8.71-10.88,20.86-11.39,32.3c-0.2,4.6-0.09,9.2,0.12,13.79l0,0
		c0.04,0.73,0.07,1.47,0.11,2.21c0.04,0.73,0.08,1.47,0.12,2.2c-0.94,1.13-1.87,2.27-2.82,3.39c-4.75,5.69-9.61,11.28-15.02,16.37
		c-15.16,14.73-35.67,21.01-54.86,28.64c-35.31,14.91-65.62,30.37-105.41,27.92c-24.91-1.39-49.53-5.75-74.32-8.39
		c-16.13-1.77-32.31-3.64-48.1-7.49c-5.93-1.34-11.72-3.08-17.41-5.09c-2.33,8.46-5.28,16.74-9.55,24.45
		c-8.71,18.86-23.68,24.46-41.17,31.59c-0.94,0.38-1.89,0.77-2.84,1.16c-0.21,0.09-0.42,0.18-0.63,0.26
		c-7.48,3.16-15.1,6.06-23,7.98c-13.59,3.25-27.63,3.75-41.52,4.45c-9.91,0.42-19.82,1.36-29.73,1.36c-3.27,0-6.55-0.11-9.82-0.36
		c-11.02-0.6-21.89-2.92-32.62-5.02c-17.54-3.44-35.37-5-53.17-6.29c-44.55-4.2-92.35-4.62-131.56-28.8
		c-11.13-7.23-20.29-16.99-29.39-26.54c-15.13-15.5-27.88-33.11-42.87-48.7c-0.86-0.9-1.73-1.79-2.61-2.67
		c0.16-1.26,0.32-2.52,0.48-3.79c0.84-6.77,1.61-13.54,2.27-20.32c0.01-0.13,0.03-0.27,0.04-0.4c0.09-0.92,0.18-1.84,0.26-2.76
		c0-0.02,0-0.05,0.01-0.07c0.26-2.78,0.5-5.56,0.72-8.34c0.17-1.54,0.33-3.07,0.48-4.61c0.07-0.62,0.12-1.25,0.18-1.88
		c0.04-0.45,0.09-0.9,0.12-1.35c0.02-0.18,0.03-0.35,0.05-0.53c0.73-8.22,1.14-16.44,0.9-24.7c-0.1-16.06-1.2-32.13-0.5-48.18
		c0.36-17.21,10.2-32.6,23.4-43.08c15.24-12.67,32.28-22.93,48.27-34.6c10.07-7.21,19.97-14.67,30.07-21.85
		c9.06-6.45,18.32-12.83,27.21-19.61c1.14-0.87,2.28-1.75,3.41-2.64c0.3-0.24,0.61-0.48,0.91-0.72c0,0,0,0,0.01,0
		c2.98-2.36,5.91-4.78,8.77-7.27c3.57-3.18,6.99-6.5,10.32-9.91c0.07-11.25-0.5-22.51-0.39-33.76v0c0.01-0.84,0.02-1.69,0.04-2.54
		c0-0.36,0.01-0.73,0.02-1.09c0.02-0.7,0.04-1.4,0.06-2.11v0c0.1-2.93,0.25-5.86,0.5-8.79c0.49-9.73-0.05-19.48,0.4-29.21
		c0.66-10.25,2.79-20.51,7.07-29.88c0.62-1.38,1.27-2.73,1.96-4.08c0.36-0.71,0.73-1.42,1.12-2.12c0.08-0.15,0.16-0.3,0.25-0.45
		c0.04-0.07,0.07-0.14,0.12-0.21v0v0c0.18-0.89,0.73-1.93,0.99-2.52c2.51-4.34,6.23-7.98,10.27-10.98c0,0,0.01-0.01,0.02-0.01
		c0.1-0.09,0.2-0.18,0.29-0.26c4.57-4.04,9.47-7.66,15.07-10.29c0.07-0.04,0.14-0.07,0.2-0.1c1.12-0.55,2.25-1.07,3.4-1.57
		c0.48-0.21,0.96-0.41,1.45-0.61c0.67-0.28,1.34-0.55,2.02-0.82c0.53,0.02,1.05,0.04,1.58,0.06c0.38,0.02,0.75,0.03,1.13,0.05
		c0.2,0.01,0.4,0.02,0.6,0.03c0.36,0.02,0.73,0.04,1.1,0.06c0.53,0.03,1.06,0.06,1.59,0.09c0.66,0.04,1.33,0.08,2,0.13
		c5.28,0.36,10.55,0.86,15.82,1.23c18.94,1.18,37.73,0.79,56.67,1.27c10.45,0.19,20.89,0.59,31.29,1.58
		c4.66,0.33,9.34,1.01,14.02,1.64c5.05-9.63,9.43-19.63,14.25-29.4c14.55-31.64,33.33-61.41,45.57-94.07
		c7.21-20.42,11.23-41.53,16.84-62.36c-0.48-0.31-0.97-0.62-1.46-0.93h0c-0.83-0.52-1.66-1.05-2.51-1.58
		c-5.97-3.75-12.24-7.64-18.14-11.8c-0.5-0.35-0.99-0.7-1.48-1.05c-0.34-0.25-0.67-0.49-1.01-0.73c-1.5-1.09-2.96-2.21-4.38-3.34
		c0,0-0.01,0-0.01-0.01c-0.4-0.32-0.8-0.64-1.19-0.96c-0.4-0.32-0.79-0.66-1.18-0.98c-0.88-0.74-1.74-1.5-2.57-2.26h0c0,0,0,0,0,0
		c-0.4-0.36-0.79-0.73-1.18-1.1c-0.26-0.24-0.51-0.48-0.76-0.73c-0.39-0.39-0.79-0.77-1.17-1.16c-0.29-0.3-0.58-0.6-0.86-0.9l0,0
		c0.85,0.17,1.68,0.34,2.5,0.51c0.41,0.08,0.82,0.16,1.22,0.25c0.41,0.08,0.8,0.16,1.2,0.25c0.14,0.03,0.29,0.06,0.43,0.09
		c2.12,0.44,4.15,0.87,6.11,1.31c7.37-5.44,15.19-10.27,23.82-13.46c4.68-1.66,9.39-3.23,14.05-4.93c-2.72-1.31-5.54-2.38-8.23-3.24
		c-3.49-1.37-9.8-3.27-16.54-5.52c-1.22-0.41-2.45-0.82-3.68-1.25c-0.83-0.29-1.67-0.58-2.5-0.88c1.62-0.23,3.25-0.47,4.87-0.7
		c0.5-0.07,0.99-0.14,1.48-0.21c4.38-0.6,8.76-1.1,13.17-1.29c7.45-0.46,14.91-0.31,22.35,0.12c-5.96-4.4-12.59-7.86-18.3-12.6
		c-19.31-15.5-15.64-32.61,7.52-40.38c21.07-5.32,32.78,6.41,46.48,20.27c3.79,3.78,7.69,7.46,11.71,10.99
		c4.23,3.56,9.39,7.84,5.19,13.59c-2.27,4.29-5.73,7.67-9.74,10.29c6.29,0.96,12.79,0.85,18.8-1.18c8.37-3.1,15.77-7.67,23.41-12.1
		c11.45-6.48,20.99-15.84,33.67-19.84c14.46-4.77,31.69-3.44,46.6,1.73c1.09,0.38,2.18,0.78,3.24,1.2c0.09,0.81,0.12,1.62,0.09,2.43
		c-0.09,2.8-0.88,5.56-2.41,7.9c-6.94,9.09-19.5,9.84-29.93,11.64c-7.41,1.12-14.65,2.55-21.73,4.92
		c-7.33,2.26-14.35,5.24-21.7,7.39c-12.4,3.68-26.15,4.79-36.79,12.77c-3.77,2.61-8.68,5.69-7.61,10.99
		c0.72,5.32,3.24,10.16,4.67,15.3c1.98,7.8,3.72,15.66,5.89,23.42c1.12,4.96,2.03,9.91,3.39,14.77c2.32,8.35,5.09,16.57,8.1,24.67
		c1.67,5.89,3.65,11.69,5.56,17.5c5.19,18.63,8.08,38.15,16.89,55.56c0.78,1.42,1.48,2.64,2.68,3.63c2.12,1.22,4.77,1.63,7.09,1.77
		c15.75,0.56,28.32-11.41,43.73-12.8c4.22-0.35,9.08,0.52,13.9,2.09c0.13,0.04,0.27,0.09,0.4,0.13c0.34,0.11,0.68,0.23,1.02,0.35
		c0.17,0.06,0.34,0.12,0.51,0.18s0.34,0.12,0.5,0.19c0.05,0.02,0.09,0.03,0.14,0.05c0.13,0.05,0.27,0.1,0.39,0.15
		c0.33,0.12,0.65,0.25,0.98,0.38c0.14,0.3,0.27,0.61,0.4,0.91c0.13,0.3,0.27,0.61,0.39,0.91c4.84,11.25,8.38,23.06,10.27,35.16
		c0.05,0.29,0.09,0.57,0.13,0.86c0.05,0.34,0.11,0.68,0.15,1.01c0.03,0.21,0.06,0.42,0.09,0.63c0.04,0.27,0.07,0.55,0.11,0.82
		c0.04,0.28,0.07,0.55,0.1,0.82c1.46,12.34,0.59,24.95,3.86,37.04c3.65,13.17,10.11,25.46,17.84,36.67
		c12.05,18.39,25.88,28.53,29.06,50.97c5.11,4.27,10.25,8.5,15.29,12.83c34.43,28.91,71.49,55.4,100.27,90.3
		C857.9,600.55,870.95,621.48,873.79,645.55z M573.36,802.88c1.6,0.46,3.2,0.91,4.8,1.34c3.2,0.91,6.43,1.75,9.66,2.54
		c-3.23-0.79-6.46-1.63-9.67-2.54C576.55,803.78,574.95,803.34,573.36,802.88z M582.57,604.11c-0.34-0.03-0.67-0.05-1-0.07
		C581.91,604.06,582.24,604.08,582.57,604.11z M693.44,754.16c0.33-0.13,0.66-0.25,1-0.38
		C694.11,753.91,693.77,754.03,693.44,754.16z M693.44,754.16c-0.33,0.12-0.66,0.25-0.97,0.38
		C692.79,754.42,693.11,754.29,693.44,754.16z M614.95,615.27c-0.05,0.06-0.11,0.12-0.16,0.17c-0.03,0.03-0.06,0.05-0.09,0.07
		c-0.66,0.12-1.29,0.01-1.92-0.21c0.62,0.22,1.27,0.34,1.92,0.21c0.03-0.02,0.06-0.05,0.09-0.08
		C614.85,615.39,614.9,615.33,614.95,615.27z M615.35,614.38c-0.05,0.22-0.11,0.42-0.2,0.59
		C615.24,614.8,615.31,614.6,615.35,614.38z M623.22,647.9c-0.06,0-0.12,0-0.17-0.01c-6.73-0.05-13.45-0.51-20.18-0.89
		c-9.5-0.51-20.2,0.53-27.63,7.07c-7.46,6.98-15.33,14.26-19.43,23.83c-0.03,0.07-0.06,0.13-0.09,0.2c-0.36,0.77-0.7,1.58-0.99,2.42
		h0c0.29-0.84,0.62-1.65,0.99-2.42c0.03-0.07,0.06-0.13,0.09-0.2c4.1-9.57,11.97-16.84,19.43-23.83c7.43-6.54,18.13-7.58,27.63-7.07
		c6.73,0.38,13.44,0.85,20.18,0.89C623.11,647.9,623.16,647.9,623.22,647.9z M615.35,614.38c0.1-0.47,0.08-1.03-0.01-1.63
		C615.43,613.35,615.44,613.91,615.35,614.38z M624.09,647.94c-0.16-0.01-0.32-0.01-0.47-0.02
		C623.77,647.93,623.93,647.93,624.09,647.94z M759.82,767.43c0.49-0.51,0.92-0.99,1.29-1.46c0,0,0,0-0.01,0
		C760.73,766.43,760.31,766.91,759.82,767.43z"/>
	<path class="st0" d="M645.69,453.11c-0.09-0.72-0.2-1.44-0.29-2.01c-0.06-0.34-0.12-0.68-0.18-1.02c-0.79,0.54-1.57,1.07-2.43,1.5
		c-0.56,0.29-1.21,0.27-1.74-0.03c-1.01,1-2.83,0.19-2.59-1.26c0.14-0.77,0.65-1.36,1.08-2c-0.21-0.87,0.43-1.67,1-2.26
		c-0.25-0.09-0.5-0.23-0.68-0.38c-0.01-0.01-0.02-0.02-0.03-0.03c-0.21,0.13-0.44,0.25-0.68,0.35c-0.34,0.14-0.74,0.17-1.1,0.08
		c-0.9,0.77-1.82,2.33-3.19,1.74c-0.63-0.29-0.94-0.95-0.85-1.62c0.35-1.28,1.49-1.97,2.45-2.75c0.84-0.83,1.84-1.71,3.09-1.59
		c1.31-1.48,2.55-3.02,3.86-4.5c0.69-0.98,2.17-1.69,3.04-0.52c0.55,0.71,0.32,1.81-0.47,2.23c-1.27,1.18-2.29,2.65-3.45,3.94
		c1.1-0.49,2.57,0.26,2.51,1.54c0.41,0.29,0.66,0.77,0.65,1.29c0,0.27-0.09,0.51-0.21,0.73c3.15-0.55,2.65,4.27,3.18,6.27
		C648.84,454.75,645.91,455.05,645.69,453.11z"/>
	<path class="st0" d="M640.47,449c-0.51-0.13-0.91-0.61-1.02-1.14c-0.07-0.16-0.12-0.34-0.13-0.52c-1.49-0.27-1.52-2.6-0.01-2.9
		c0.36-0.07,0.72-0.16,1.09-0.23c0.16-1.13,1.29-1.76,2.14-2.37c0.92-0.73,2.51-1.2,3.21,0.03c2.11-0.41,4.13-1.15,6.22-1.62
		c0.8-0.18,1.62,0.31,1.81,1.11c0.19,0.79-0.31,1.62-1.11,1.8c-2.23,0.5-4.39,1.32-6.65,1.69c0.02,0.81-0.79,1.24-1.23,1.81
		C644.75,448.36,641.88,449.32,640.47,449z"/>
	<path class="st0" d="M647.36,448.47c-1.45,0.01-3.04,0.46-4.42-0.09c-0.93-0.41-1.13-1.66-0.47-2.39c1.11-1.08,3.27-2.21,4.81-1.56
		c1.15-0.22,2.5-1.53,3.45-0.21c0.04-0.02,0.07-0.03,0.11-0.04c0.37-0.12,0.75-0.11,1.08,0.01c0.25-0.12,0.49-0.25,0.73-0.39
		c0.45-0.25,0.99-0.22,1.42,0.03c1.39-0.37,3.57-2.02,4.45-0.09c0.64,2.28-2.62,2.33-4.03,3.1c-0.17,1.92-2.46,1.31-3.75,1.46
		C649.76,449.03,648.15,449.92,647.36,448.47z"/>
</g>
<g id="Vector_layer_2_">
	<path class="st1" d="M489.35,397.25c-0.14,0.59-0.29,1.18-0.42,1.77c-0.94,4.05-1.73,8.14-2.52,12.2
		c-1.76,10.85-1.59,21.92-3.6,32.73c-2.18,11.02-5.86,21.66-8.86,32.47c-4.55,15.94-8.61,32.06-13.76,47.82
		c-0.75,2.47-1.48,4.95-2.2,7.43c-0.46-0.19-0.93-0.38-1.4-0.57s-0.93-0.38-1.4-0.56c-2.04-0.81-4.08-1.6-6.15-2.32
		c-13.2-4.52-26.73-8.24-40.65-9.53c-13.82-1.7-27.7-0.07-41.53,0.43c-15.6,0.33-31.21,0.36-46.8,0.46
		c-14.75-0.3-29.63-0.27-44.22-2.61c-3.09-0.74-6.2-1.47-9.34-2.11c-0.14-0.03-0.29-0.06-0.44-0.09c-0.9-0.18-1.79-0.35-2.69-0.51h0
		c-0.07-0.34-0.14-0.67-0.21-1c-0.05-0.23-0.1-0.46-0.16-0.7c-0.04-0.17-0.08-0.35-0.12-0.52c-0.04-0.19-0.09-0.38-0.14-0.56
		c-0.95-3.74-2.32-7.36-4.13-10.77c-2-3.77-4.83-6.97-7.96-9.83c-0.74-0.68-1.49-1.33-2.25-1.97c0.05-0.63,0.09-1.26,0.11-1.89
		c0.01-0.31,0.02-0.62,0.03-0.94c0.01-0.25,0.01-0.5,0.01-0.76c0-0.06,0-0.12,0-0.18c0.02-9.76-2.65-19.53-3.94-29.16
		c-1.13-8.48-1.03-17.24,1.19-25.55c2.73-10,7.45-19.49,11.19-29.09c0.02-0.05,0.04-0.1,0.05-0.14c0.42-1.11,0.83-2.22,1.23-3.34
		c0.29-0.06,0.57-0.11,0.86-0.16c0.56-0.11,1.12-0.2,1.68-0.29c0.29-0.05,0.57-0.09,0.86-0.12c7.5-1.07,15.3-0.93,22.72-1.91
		c7.78-0.82,15.52-2.57,23.39-2.07c6.51,0.48,12.94,1.68,19.45,2.23c9.16,0.93,18.39,1.29,27.5,0.19c10.3-0.99,20.2-4.27,30.49-5.31
		c10.57-1.32,21.29-1.57,31.85,0.01c14.55,2.34,28.95,5.52,43.56,7.2c8.41,0.89,17.13,2.26,25.46,0.45
		c0.48-0.11,0.97-0.22,1.46-0.35C488.15,397.58,488.75,397.42,489.35,397.25z"/>
	<path class="st1" d="M454.74,830.24c0.37-0.06,0.74-0.12,1.11-0.18c-1.06,0.86-2.13,1.7-3.21,2.54c-0.68,0.54-1.36,1.07-2.03,1.6
		c-17.07,13.36-33.31,23.81-56.08,22.69c-14.75-0.27-28.5-6.11-42.38-10.43c-5.09-1.6-10.28-3.11-15.52-4.08
		c-0.32-0.06-0.64-0.12-0.96-0.17c-0.3-0.05-0.61-0.11-0.92-0.16c-0.82-0.13-1.65-0.25-2.48-0.35c1.05-0.71,2.1-1.41,3.15-2.11
		c0.2-0.12,0.39-0.25,0.58-0.38c2.93-1.89,5.87-3.76,8.81-5.63c-1.73-0.43-3.46-0.84-5.2-1.23c-10.5-2.3-21.16-3.5-31.85-4
		c-14.02-0.62-28.64-0.07-41.36,6.5c-2.33,1.14-4.53,2.48-6.61,3.95c-0.63,0.45-1.26,0.91-1.87,1.39c-0.13,0.1-0.25,0.2-0.38,0.3
		c-0.18,0.14-0.36,0.29-0.55,0.43c-0.5-0.2-1.01-0.39-1.52-0.58c-0.61-0.22-1.23-0.44-1.84-0.65c-21.62-7.6-44.04-12.7-66.35-17.73
		c-44.77-10.11-68.22-20.77-93.32-54.65c-0.93-1.26-1.86-2.55-2.8-3.87c0.06-0.42,0.12-0.84,0.2-1.25c0.07-0.4,0.16-0.8,0.25-1.2
		c0.05-0.21,0.1-0.42,0.15-0.63c0.08-0.34,0.18-0.68,0.27-1.01c0,0,0,0,0,0c3-10.59,11.58-19.98,20.19-28.38
		c0.23-0.23,0.46-0.45,0.7-0.68c0.16-0.16,0.32-0.32,0.49-0.47c0.32-0.32,0.65-0.63,0.97-0.94c0.76,0.71,1.53,1.41,2.31,2.08
		c0.86,0.74,1.74,1.45,2.64,2.1c5.74,4.23,11.88,6.39,18.15,6.65c0.47-2.05,0.89-4.11,1.23-6.19c2.98-23.95,1.4-49.82-7.07-72.7
		c-12.17-2.12-18.5-11.61-29.88-16.54c0.28,0.98,0.55,1.96,0.84,2.93c3.12,10.38,6.18,20.77,9.07,31.2
		c3.54,12.61,5.25,26.98-5.67,36.54c-1.97,1.58-4.2,2.65-6.55,3.45c-0.02,0.01-0.04,0.02-0.07,0.02c-0.16,0.05-0.32,0.11-0.48,0.16
		c-0.14,0.05-0.29,0.09-0.44,0.13c-0.21,0.06-0.42,0.12-0.63,0.18c-0.42,0.12-0.84,0.23-1.27,0.34c-0.16-0.47-0.32-0.95-0.48-1.43
		c-0.16-0.47-0.32-0.95-0.47-1.43c-1.97-5.97-3.74-12.02-5.25-18.12c-2.1-8.92-4.09-18.01-3.87-27.22
		c0.26-8.86,2.73-17.45,6.01-25.63c0.39-1.02,0.79-2.04,1.18-3.05c0.38-0.98,0.76-1.96,1.14-2.94c0.23-0.57,0.45-1.15,0.68-1.72
		c0.26-0.66,0.52-1.32,0.78-1.97c-0.24-0.86-0.48-1.73-0.71-2.59c0.4-0.44,0.8-0.88,1.21-1.32c0.39-0.42,0.79-0.83,1.19-1.24
		c0.22-0.23,0.45-0.46,0.68-0.69c0.04-0.05,0.09-0.09,0.13-0.14c0.33-0.33,0.66-0.66,1-0.99c0.14-0.14,0.29-0.29,0.43-0.42
		c0.26-0.26,0.53-0.51,0.79-0.77c0.21-0.2,0.41-0.39,0.62-0.59c0.27-0.25,0.53-0.5,0.8-0.75c0.16-0.16,0.33-0.31,0.5-0.46
		c0.42-0.38,0.84-0.76,1.26-1.14c11.43-10.19,24.86-18.75,36.73-27.23c21.89-15.04,43.55-30.51,63.42-48.16
		c4.53-3.91,8.93-7.97,13.41-11.93c0.64-0.46,1.86-1.57,3.29-2.79c0.3-0.25,0.6-0.52,0.91-0.77c0.13-0.11,0.26-0.21,0.39-0.32
		c0.18-0.14,0.35-0.29,0.53-0.43c0.09-0.07,0.17-0.14,0.25-0.2c0.8-0.63,1.6-1.23,2.35-1.71c0.12-0.08,0.24-0.15,0.36-0.22
		c0.12-0.07,0.23-0.14,0.35-0.21c0.23-0.13,0.46-0.25,0.67-0.35c0.87-0.41,1.6-0.57,2.09-0.3c11.88-1.55,23.89-1.02,35.84-1.39
		c15.51-0.83,31.06-1.84,46.54,0c8.42,0.71,16.86,1.08,25.3,0.52c10.66-0.79,21.34-0.87,32.01-0.36c15.8,0.51,31.39,3.42,47.15,4.43
		c7.88,0.6,15.83,1.16,23.5,3.19c3.56,0.97,7.04,2.21,10.45,3.62c0.52,0.21,1.05,0.44,1.57,0.66c0.4,0.17,0.8,0.35,1.2,0.53
		c-0.47,0.88-0.92,1.75-1.36,2.64c-14.89,29.77-15.02,63.98-15.96,96.6c-0.29,8.8-0.18,17.63,0.53,26.41
		c0.27,3.41,0.7,6.81,1.16,10.2c0.2,1.57,0.02,3.12-0.59,4.59c-1.72,4.41-6.72,5.94-10.77,7.52c-6.39,2.2-13.18,3.12-19.93,3.07
		c-9.1-0.2-18.34-1.45-27.33,0.46c-0.01,0-0.02,0-0.04,0.01c2.64,2.01,5.24,4.09,7.84,6.14c7.03,5.75,13.99,11.2,20.12,17.86
		c3.45,3.76,6.86,7.62,9.66,11.9c1.73,3.93,4.05,4.4,7.91,5.29c2.18,0.48,3.02,2.36,1.46,4.14c-1.36,1.69-3.42,2.69-5.33,3.61
		c-4.26,2.06-8.75,3.63-13.19,5.26c-2.84,1.02-5.64,2.13-8.44,3.23c8.16,3.44,16.88,5.14,25.18,8.17
		c10.19,3.57,18.5,12.09,15.45,23.56c-0.9,2.92-2.25,5.57-3.9,8.04c9.48-0.18,14.57,6.2,5.36,19.06
		c-8.71,12.75-21.68,21.79-31.57,33.48c0.93-0.03,1.85-0.07,2.77-0.12c12.57-0.78,23.8-6.61,35.62-10.28c1.32-0.42,2.65-0.79,4-1.09
		c0.01,0,0.02,0,0.03-0.01c0.27-0.06,0.54-0.12,0.81-0.18c0.17-0.04,0.35-0.08,0.52-0.11c0.11-0.02,0.21-0.04,0.32-0.06
		c0.27-0.06,0.55-0.11,0.83-0.16c0.01,0,0.02,0,0.02,0C454.02,830.37,454.38,830.3,454.74,830.24z"/>
	<path class="st1" d="M90.45,685.79c-5.7-10.82-3.02-35.36,1.47-46.64c4.39-12.87,17.96-18.22,29.78-22.29
		c2.11-0.8,4.21-1.62,6.3-2.45c0.76-0.3,1.65,0.21,1.89,0.96c0.26,0.77-0.2,1.64-0.96,1.89c-4.05,1.59-8.1,3.16-12.2,4.62
		c-7.62,2.79-15.42,6.73-19.84,13.79c-6.29,11.61-7.36,27.28-6.14,40.2c0.27,3.2,1.29,6.32,1.43,9.52
		C92.12,686.44,91.07,686.68,90.45,685.79z"/>
	<path class="st1" d="M847.69,649.91c0.78,18.11-4.49,35.74-16.34,49.57c-2.14,2.79-4.5,5.39-6.98,7.89
		c-0.36,0.58-0.73,1.16-1.09,1.74c-5.13,7.66-12.41,13.82-19.61,19.46c-0.19,0.15-0.38,0.3-0.57,0.45
		c-0.52,0.39-1.04,0.77-1.55,1.16c-0.31-0.43-0.62-0.85-0.94-1.27c-0.09-0.13-0.19-0.26-0.29-0.39v0
		c-3.26-4.37-6.75-8.57-10.34-12.67c-2.83-3.36-5.81-6.57-8.68-9.88c-3.47-4.14-6.77-8.62-10.57-12.44
		c-3.52-3.52-7.36-6.73-11.45-9.58c-0.04-0.03-0.08-0.06-0.12-0.08c-0.26-0.18-0.52-0.36-0.79-0.54c-0.48-0.33-0.98-0.66-1.47-0.98
		c0.75-0.15,1.49-0.3,2.23-0.45h0c9.34-1.88,18.67-3.7,27.61-6.93c0.77-0.3,1.53-0.61,2.29-0.93c-3.16-3.3-6.48-6.41-10.36-8.79
		c-4.85-3.1-10.13-5.42-15.57-7.28c-4.21-1.86-9.38-3.01-12.22-6.91c-1.14-2.19-0.81-4.42,0.35-6.57c-2.53-0.34-5.07-0.63-7.62-0.85
		c-3.56-0.18-7.14-0.16-10.72-0.05c-0.07,0-0.14,0.01-0.21,0.01c-0.59,0.02-1.18,0.04-1.77,0.07c-0.79,0.03-1.57,0.07-2.36,0.11
		c0.61-0.63,1.22-1.26,1.83-1.89c1.69-1.73,3.38-3.44,5.09-5.14c4.05-4.12,8.27-8.04,12.56-11.88c-7.1-1.32-13.79-4.32-13.72-11.26
		c0.92-5.32,3.62-10.38,3.39-15.71c-1.55,0.64-3.06,1.34-4.53,2.04c-4.93,2.39-9.3,5.59-13.33,9.25c-3.42,2.8-8.06,8.64-12.86,11.59
		c-0.7,0.43-1.39,0.79-2.09,1.07c-0.06-0.16-0.11-0.32-0.16-0.48c-0.05-0.16-0.09-0.31-0.12-0.48c0-0.01-0.01-0.02-0.01-0.02
		c-0.73-3.15,0.17-7.31,0.55-9.96c0.78-3.91,1.32-7.87,1.57-11.84c-1.48,0.53-2.92,1.15-4.24,1.99c-4.13,2.27-7.87,5.23-11.41,8.25
		c-1.06,0.98-2.18,1.9-3.34,2.75c-0.11,0.09-0.23,0.17-0.34,0.25c-0.21,0.16-0.43,0.31-0.65,0.46c-0.01,0.01-0.02,0.02-0.03,0.02
		c-0.25,0.18-0.5,0.35-0.76,0.51c-0.26,0.17-0.52,0.34-0.78,0.5c-0.17-0.41-0.33-0.83-0.49-1.25c-0.06-0.15-0.11-0.31-0.17-0.46
		c-0.09-0.27-0.19-0.53-0.28-0.79c-1.08-3.18-1.75-6.48-1.71-9.84c0.18-3.96-0.09-7.87-0.28-11.78c-1.22,1.55-2.03,3.39-3.23,4.97
		c-2.47,3.56-3.95,7.69-5.03,11.82c-0.64,2.62-1.5,5.16-1.3,7.8c0.2,3.35,1.02,6.43,0.05,9.05c-0.33,0.88-0.86,1.71-1.69,2.48
		c-0.18-0.08-0.36-0.16-0.54-0.24c-0.16-0.07-0.33-0.15-0.49-0.23c-0.2-0.09-0.39-0.19-0.58-0.29c-4.84-2.5-7.79-6.04-11.44-12.17
		c-4.36-7.71-7.63-16.04-10.11-24.53c-1.89-7.01-3.05-14.18-5.5-20.99c-0.05-0.12-0.11-0.25-0.17-0.38
		c-2.34,5.22-2.75,11.48-2.75,17c-0.26,6.12,4.3,23.47-6.29,21.99c-5.74-1.24-9.57-6.19-13.87-9.8c-2.86-2.31-5.95-4.29-9.3-5.73
		c-2.73-1.11-5.65-1.99-8.59-2.51c0.64,1.57,1.48,3.07,2.62,4.45c5.15,6.39,10.78,12.95,12.35,21.18c0.05,0.23,0.09,0.47,0.13,0.71
		s0.07,0.48,0.11,0.72c0.03,0.37,0.15,0.85,0.29,1.38c-0.15,0-0.31,0-0.46,0c-0.31-0.04-0.62-0.08-0.93-0.12
		c-0.3-0.05-0.6-0.1-0.9-0.16c-3.98-0.73-7.73-2.29-11.21-4.38c-8.19-4.01-16.79-9.75-26.29-8.15c-0.23,0.03-0.46,0.06-0.69,0.09
		c8.58,9.76,19.53,17.17,31.23,22.73c8.27,4.11,17.28,7.14,24.61,12.88c1.06,0.82,1.94,1.8,2.69,2.86c0.13,0.18,0.25,0.37,0.38,0.55
		c0.3,0.47,0.58,0.95,0.84,1.45c0.11,0.2,0.21,0.4,0.31,0.61c-0.16,0.11-0.32,0.22-0.48,0.32c-0.08,0.05-0.16,0.11-0.25,0.16
		c-0.18,0.11-0.36,0.22-0.55,0.33c-0.17,0.1-0.34,0.2-0.52,0.29c-0.1,0.05-0.2,0.11-0.3,0.16c-0.17,0.09-0.34,0.17-0.5,0.25
		c-6.66,3.22-14.92,2.79-23.83,1.89c-5.89-0.49-11.86-1.44-17.75-0.61c-8.56,1.47-17.5,4.28-23.81,10.45
		c-4.48,4.55-7.49,10.25-10.29,15.91c-0.95,1.93-1.88,3.88-2.75,5.85c7.24,1.22,14.51,2.18,21.82,2.12
		c7.35-0.03,14.56-1.26,21.39-3.83c9.91-3.77,21.36-7.92,31.46-2.53c1.68,0.75,3.15,1.8,4.54,2.98c0.23-0.1,0.46-0.2,0.68-0.29
		c0.05-0.02,0.11-0.04,0.16-0.07c0.05-0.02,0.11-0.05,0.16-0.07l0,0c0,0,0.01,0,0.01,0c0.02-0.01,0.05-0.02,0.07-0.03c0,0,0,0,0,0
		c2-0.85,4.03-1.65,6.06-2.43c2.06-0.79,4.14-1.57,6.26-2.19c2.15-0.64,4.32-1.17,6.51-1.68c2.06-0.47,4.13-0.88,6.21-1.23
		c0.58-0.1,1.16-0.2,1.58-0.25c1.3-0.19,2.61-0.34,3.93-0.38c0.68-0.02,1.37-0.03,2.04,0.04c0.8,0.09,1.59,0.33,2.33,0.61
		c0.45,0.18,0.88,0.38,1.3,0.61c1.03,0.58,2,1.23,2.98,1.89c0.97,0.66,1.97,1.28,2.99,1.86c0.95,0.52,1.91,0.99,2.91,1.39
		c0.76,0.29,1.53,0.53,2.31,0.74c1.11,0.27,2.23,0.44,3.18,0.55c1.08,0.12,2.17,0.19,3.25,0.23c1.09,0.04,2.17,0.04,3.25,0.06
		c2.12,0.05,4.25,0.18,6.37,0.34c2.64,0.21,5.28,0.42,7.91,0.71c1.32,0.15,2.66,0.3,3.91,0.6c0.46,0.11,0.92,0.23,1.37,0.37
		c0.52,0.17,1.03,0.39,1.53,0.63c0.91,0.44,1.81,0.93,2.66,1.49c1.75,1.13,3.29,2.55,4.76,4.02c1.46,1.47,2.77,3.09,3.91,4.82
		c0.59,0.9,1.13,1.83,1.64,2.77c0.51,0.96,1,1.93,1.43,2.93c0.39,0.9,0.75,1.83,1.02,2.78c0.27,0.96,0.48,1.94,0.61,2.81
		c0.02,0.12,0.04,0.24,0.04,0.24c0.16,1.06,0.23,2.13,0.31,3.2c0.08,1.09,0.12,2.18,0.07,3.27c-0.04,1.05-0.19,2.1-0.44,3.12
		c-0.25,1.02-0.51,2.04-0.95,3c-0.45,0.99-1.02,1.94-1.73,2.76c-0.7,0.81-1.5,1.5-2.36,2.14c-0.88,0.65-1.82,1.18-2.79,1.68
		c-0.93,0.48-1.91,0.91-2.91,1.24c-2.09,0.71-4.25,1.18-6.44,1.43c-2.18,0.25-4.37,0.29-6.57,0.31c-0.36,0.01-0.71,0.01-1.02,0.02
		c-4.5,0.08-8.99,0.24-13.48,0.55c-1.96,0.14-3.93,0.27-5.88,0.52c-0.42,0.07-0.84,0.16-1.22,0.25c-0.02,0-0.03,0.01-0.05,0.02
		c-0.01,0-0.01,0-0.01,0c-0.17,0.05-0.34,0.1-0.5,0.17c-0.36,0.16-0.71,0.34-1.01,0.51c-0.44,0.27-0.88,0.55-1.28,0.86
		c-0.43,0.34-0.85,0.71-1.19,1.04c-0.25,0.26-0.47,0.54-0.68,0.8c-0.11,0.16-0.21,0.32-0.29,0.46c-0.16,0.3-0.3,0.6-0.39,0.82
		c-0.06,0.17-0.13,0.33-0.18,0.5c-0.01,0.05-0.02,0.09-0.03,0.14c0,0.04,0,0.07,0,0.1c0,0.06,0,0.11,0.01,0.17
		c0.01,0.06,0.02,0.12,0.04,0.18c0.02,0.04,0.04,0.09,0.05,0.13c0.1,0.2,0.2,0.41,0.31,0.61c0.25,0.42,0.53,0.82,0.82,1.21
		c0.3,0.38,0.61,0.73,0.95,1.07c0.66,0.65,1.34,1.29,1.98,1.77c0.74,0.55,1.52,1.06,2.33,1.52l0.02,0.01
		c0.03,0.02,0.05,0.03,0.06,0.04l0.02,0.01c0.88,0.48,1.79,0.9,2.71,1.27c2.02,0.77,4.12,1.32,6.17,1.83
		c0.05,0.01,0.09,0.02,0.12,0.03c0.03,0.01,0.06,0.02,0.09,0.02c0.01,0,0.02,0,0.02,0c0.53,0.13,1.06,0.27,1.56,0.39
		c1.55,0.38,3.1,0.74,4.63,1.12c1.77,0.44,3.53,0.89,5.25,1.46c1.11,0.38,2.22,0.78,3.27,1.29c0.43,0.2,0.83,0.44,1.23,0.7
		c0.27,0.18,0.51,0.39,0.7,0.66c0.25,0.36,0.35,0.79,0.35,1.22c-0.01,1.21-0.87,2.18-1.88,2.73c-0.74,0.41-1.55,0.62-2.24,0.72
		c-1.87,0.28-3.75,0.47-5.5,0.72c-0.98,0.15-1.95,0.34-2.91,0.55c-0.87,0.19-1.73,0.43-2.47,0.64c-1.2,0.34-2.38,0.7-3.54,1.18
		c-1.37,0.58-2.71,1.22-3.98,1.96c-0.58,0.34-1.13,0.7-1.67,1.1c-0.38,0.3-0.74,0.61-0.98,0.84c-0.22,0.23-0.44,0.48-0.6,0.67
		c-0.02,0.02-0.04,0.05-0.05,0.07l-0.01,0.01c-0.05,0.07-0.11,0.15-0.16,0.23c-0.02,0.05-0.05,0.09-0.07,0.14
		c0.07,0.11,0.14,0.21,0.21,0.31c0.14,0.17,0.29,0.34,0.45,0.49c0.16,0.15,0.33,0.3,0.51,0.43c0.44,0.32,0.9,0.62,1.24,0.8
		c0.93,0.52,1.91,0.92,2.76,1.25c0.68,0.27,1.37,0.49,1.94,0.63c0.46,0.11,0.92,0.23,1.24,0.31c0.19,0.05,0.37,0.09,0.55,0.16
		c0.32,0.13,0.59,0.38,0.75,0.68c0.16,0.32,0.18,0.72,0.04,1.05c-0.11,0.28-0.27,0.48-0.48,0.68c-0.44,0.42-1.07,0.64-1.64,0.85
		c-0.57,0.21-1.17,0.36-1.76,0.51c-0.53,0.14-1.05,0.28-1.59,0.38c-0.42,0.08-0.84,0.13-1.25,0.23c-0.38,0.09-0.76,0.2-1.08,0.28
		c-0.02,0.01-0.04,0.02-0.07,0.02c-0.56,0.16-1.1,0.38-1.5,0.55c-1.32,0.57-2.6,1.24-3.82,1.94c-0.01,0.01-0.02,0.02-0.04,0.02h0
		c-0.44,0.27-0.86,0.57-1.29,0.86c-0.35,0.24-0.7,0.48-1.04,0.74c-0.14,0.11-0.29,0.22-0.43,0.34c-0.13,0.11-0.28,0.2-0.44,0.24
		c-0.01,0.19-0.02,0.38-0.02,0.57c0.08,0.88,0.41,1.69,0.9,2.4c2.16-0.36,4.32-0.66,6.49-0.96c7.93-1.07,15.57-3.53,23.38-5.2
		c3.16-0.83,6.44-1.27,9.66-1.93c0.13-0.03,0.26-0.05,0.39-0.08c0.27-0.05,0.53-0.11,0.8-0.17c0.84-0.19,1.68-0.4,2.51-0.64
		c-0.12,0.3-0.24,0.6-0.38,0.89c-0.05,0.12-0.11,0.25-0.16,0.37c-0.02,0.05-0.04,0.09-0.06,0.14c-0.19,0.41-0.39,0.82-0.61,1.23
		c-0.03,0.05-0.05,0.11-0.09,0.16c-0.12,0.23-0.24,0.46-0.37,0.69c-2.38,4.31-5.62,8.18-7.98,12.48c2.25,0.93,4.77-0.32,6.93-1.04
		c0.4-0.14,0.83-0.1,1.19,0.09c4.84-3.12,10.21-5.35,15.37-7.89c3.36-1.57,6.23-3.92,9.5-5.64c4.01-2.25,8.38-3.71,12.84-4.78
		c0.06-0.02,0.13-0.03,0.2-0.05c0.3-0.07,0.61-0.14,0.92-0.21c0.51-0.11,1.03-0.22,1.54-0.33c0.12-0.02,0.23-0.05,0.35-0.07
		c-0.12,1.21-0.25,2.2-0.31,2.73c-0.02,0.14-0.04,0.27-0.07,0.41c-0.53,2.67-2.32,4.79-4.11,6.78c-2.12,2.58-4.41,5.14-5.97,7.95
		c5.12-1.16,10.34-1.58,15.49-2.44c0.49-0.08,0.98-0.16,1.46-0.25c0.3-0.06,0.57-0.04,0.8,0.05c0.09,0.03,0.18,0.07,0.27,0.12
		c0,0,0,0,0,0c0.08,0.05,0.16,0.11,0.23,0.18c0.04,0.03,0.07,0.07,0.1,0.1c0.06,0.07,0.12,0.15,0.17,0.24
		c0.14,0.25,0.21,0.53,0.22,0.81c0,0.63-0.35,1.25-1.16,1.44c-0.29,0.05-0.57,0.11-0.85,0.15c-2.57,2.04-5.1,4.12-7.62,6.23
		c-9.79,8.53-20.33,16.86-32.95,20.63c-9.5,2.85-19.56,2.39-29.31,3.71c-16.63,1.91-32.96,7-49.82,6.54
		c-22.65-1.12-44-10.56-65.55-16.59c-13.68-3.73-27.66-6.16-41.32-9.93c-17.79-4.94-35.61-10.95-51.4-20.68
		c-9.78-6.55-17.23-16.18-22.96-26.36c-4.92-9.18-6.92-19.52-8.76-29.67c-2.42-12.34-3.85-24.89-3.18-37.47
		c0.09-3.06,0.4-6.2,0.11-9.23c-0.23-1.64-0.99-3.13-0.72-4.82c0.62-3.82,1.92-7.55,1.93-11.48c0.34-4.96,0.07-9.82-0.41-14.75
		c-0.17-3.61-0.78-7.3,0.32-10.83c1.06-4.36,2.3-8.55,3.63-12.79c1.96-5.93,5.01-11.44,7.46-17.16c2.27-5.26,3.88-10.77,6.19-16.02
		c2.84-6.06,6.2-11.88,9.65-17.61c2.21-3.51,4.79-6.77,6.93-10.34c6.29-10.63,8.13-23.18,9.17-35.27c1.17-8.92,0.75-15.97-1-22.56
		c-0.01-0.05-0.02-0.09-0.04-0.14c-0.09-0.32-0.18-0.64-0.27-0.95c-0.18-0.63-0.38-1.26-0.59-1.89c0.49-0.3,0.98-0.59,1.48-0.88
		c1.2-0.71,2.42-1.4,3.63-2.07c22.07-12.5,47.26-17.63,72.33-19.41c13.68-1.28,27.37-2.66,41.12-2.64
		c11.96-10.31,28.75-13.1,44.02-10.56c15.87,2.72,30.21,10.72,43.18,19.98c4.84,3.4,9.62,6.91,14.21,10.64
		c2.48,2.06,5.1,4.11,5.85,7.41c1.91,4.81,5.51,8.8,9.23,12.3c2.31,1.73,4.54,3.35,6.23,5.73c7.15,8.48,13.35,17.93,20.91,26.01
		c3.91,4.17,8.2,8.08,13.02,11.18c3.84,2.52,8.03,4.34,12.12,6.34c3.72-0.24,7.43-0.41,10.9,1.2c14.32,7.04,23.54,24.68,30.23,38.52
		c6.82,14.38,15.23,28.34,18.05,44.19c0.01,0.07,0.03,0.14,0.04,0.21c1.73-0.64,2.18,1.25,2.33,2.61
		C847.23,645.25,847.51,647.56,847.69,649.91z"/>
	<path class="st1" d="M651.53,444.9c0.31,0.16,0.62,0.35,0.92,0.55c-0.49,0.05-0.98,0.09-1.47,0.13c-0.04,0-0.07,0.01-0.11,0.02
		c-3.36,0.5-6.73,1.12-10.13,0.96c-1.83,0-3.71-0.14-5.47-0.64c-0.01,0-0.03-0.01-0.04-0.01c-0.14-0.04-0.27-0.08-0.41-0.12
		c-0.27-0.09-0.54-0.18-0.8-0.29c0.13-0.09,0.27-0.18,0.4-0.25c0.25-0.16,0.5-0.3,0.76-0.43c2.54-1.32,5.51-1.65,8.43-1.4
		c2.79-0.11,5.25,0.21,7.41,1.23c0.04,0.02,0.08,0.04,0.11,0.05c0.02,0,0.03,0.01,0.04,0.02
		C651.29,444.78,651.41,444.84,651.53,444.9z"/>
	<path class="st1" d="M602.34,448.77c1.07-0.44,2-1.11,2.82-1.92c-1.17,0.55-2.3,1.18-3.37,1.91
		C601.98,448.76,602.16,448.76,602.34,448.77z M614.73,434.49c0.02-0.05,0.05-0.09,0.07-0.13
		C614.77,434.4,614.75,434.45,614.73,434.49z M668.41,382.65c3.85,11.95,6.21,25.32,3.62,37.77c0.1,0.38,0.06,0.65,0.05,1.04
		c-0.49,5.82-3.67,12.07-9.61,13.7c-7.15,1.93-14.58,2.62-21.88,3.77c-7.36,0.99-14.74,2.21-21.99,3.77
		c-2.6,0.66-5.28,1.28-7.89,2.07c-3.15,4.56-7.45,8.79-13.36,7.2c-0.21-0.04-0.41-0.08-0.61-0.13c-6.22,0.18-12.46,0.82-18.68,1.15
		c-23.53,1.15-48,0.31-53.03-27.84c-0.01-0.11-0.02-0.23-0.04-0.35c-0.01-0.1-0.03-0.2-0.04-0.3c-0.02-0.09-0.03-0.18-0.05-0.27l0,0
		l0,0c-0.63-1.32-0.88-2.84-0.77-4.28c0.07-2.45,0.38-4.86,0.8-7.25c-0.08-1.66-0.18-3.29-0.45-4.88
		c-1.91-10.47-9.3-18.62-18.78-22.92c-6.59-3.42-13.71-5.59-20.87-7.4c-0.54,0.07-1.09,0.09-1.64,0.03
		c-2.35-0.48-4.49-1.63-6.41-3.11c0,0,0,0-0.01,0c-0.18-0.14-0.35-0.27-0.52-0.41c-0.05-0.04-0.1-0.08-0.15-0.12
		c-0.2-0.16-0.39-0.33-0.58-0.5c-0.42-0.38-0.83-0.76-1.23-1.15c0.5-0.22,1-0.44,1.49-0.65c0.5-0.22,1-0.43,1.5-0.65
		c11.93-5.12,24.23-9.46,37.08-11.49c10.46-1.48,21.07-2.89,30.81-7.14c7.59-3.36,14.85-7.42,21.89-11.82
		c0.89-0.55,1.77-1.12,2.66-1.68c0.25,0.18,0.5,0.37,0.75,0.55c0.15,0.11,0.3,0.21,0.46,0.32c0.5,0.34,1.01,0.67,1.53,0.98
		c0.35,0.21,0.7,0.41,1.06,0.6c26.43,13.68,38.18-22.09,70.88-1.8c1.02,0.59,2.07,1.13,3.14,1.64c0.58,0.28,1.17,0.55,1.77,0.8
		c0.27,0.11,0.53,0.23,0.8,0.34c0.33,0.13,0.66,0.27,0.99,0.39c0.11,0.37,0.23,0.73,0.34,1.1c0.13,0.41,0.27,0.82,0.41,1.23
		c0.09,0.26,0.18,0.52,0.27,0.78C656.52,358.38,664.49,371.23,668.41,382.65z"/>
	<path class="st1" d="M599.91,449.54c-0.18-0.07-0.36-0.15-0.55-0.22c-0.12-0.05-0.23-0.1-0.35-0.16c-1.95,0.05-1.41-2.93,0.39-2.2
		c1.35,0.15,2.92,0.16,3.52-1.31c1.15-1.59,3.49,0.17,2.61,1.8C604.29,449.12,601.99,450.54,599.91,449.54z"/>
	<path class="st1" d="M598.58,452.53c-5.26-0.63-10.18-2.81-15.21-4.35c-1.62-0.49-1.03-2.9,0.6-2.66
		c6.19,0.92,12.19,5.22,18.59,3.73c3.01-0.61,5.2-2.81,7.29-4.9c2.39-2.37,5.49-4.16,8.61-5.27c3.05-1.16,6.15-2.16,9.27-3.11
		c0.76-0.23,1.59,0.2,1.83,0.97c0.53,2.32-3.09,2.19-4.52,2.96c-3.17,1.02-5.99,2.02-8.9,3.48c-3.23,1.64-5.36,4.67-8.26,6.74
		C605.21,451.97,601.82,452.85,598.58,452.53z"/>
	<path class="st1" d="M603.44,449.03c-2.21-0.14-4.65-0.15-6.59-1.34c-1.51-1.19-0.02-2.3,1.41-2.07
		c6.07,0.82,12.59,0.88,17.68-2.91c2.12-1,12.32-7.9,13.49-4.82c0.2,0.64-0.17,1.35-0.81,1.54c-2.79,1.33-5.69,2.56-8.51,3.8
		c-2.95,1.56-5.67,3.68-8.76,4.91C608.75,449.01,606.14,449.13,603.44,449.03z"/>
	<path class="st1" d="M603.01,450.24c-0.11-0.13-0.18-0.27-0.23-0.43c-1.14,0.1-2.31-0.08-3.43,0.09c-0.8,0.14-1.57-0.41-1.71-1.21
		c-0.12-0.73,0.32-1.45,1.02-1.67c2.28-0.26,4.66-0.05,6.9-0.51c2.07-0.5,3.91-1.28,5.76-2.19c0.81-0.85,2.34-1.07,2.93,0.14
		c4.86-2.49,10.08-4.17,15.34-5.56c0.32-0.16,0.71,0.04,0.8,0.36c0.13,0.42-0.24,0.81-0.66,0.77c-5.36,1.33-10.82,2.95-15.53,5.88
		C613.1,447.66,604.58,452.1,603.01,450.24z"/>
</g>
</svg>
