<?xml version="1.0" encoding="utf-8"?>
<!-- Generator: Adobe Adobe Illustrator 24.2.0, SVG Export Plug-In . SVG Version: 6.00 Build 0)  -->
<svg version="1.1" id="Layer_group_1_" xmlns="http://www.w3.org/2000/svg" xmlns:xlink="http://www.w3.org/1999/xlink" x="0px"
	 y="0px" width="1000px" height="1000px" viewBox="0 0 1000 1000" style="enable-background:new 0 0 1000 1000;"
	 xml:space="preserve">
<style type="text/css">
	.st0{fill:#FCEAA2;}
	.st1{fill:#9502FF;}
	.st2{fill:#120B17;}
</style>
<g id="Vector_layer_3_">
	<path class="st0" d="M857.88,721.9c3.43,23.51,5,47.86-4.34,70.01c-12.59,29.19-41.88,44.16-72.34,48.36
		c-0.59,0.08-1.18,0.16-1.77,0.23c-0.46,0.06-0.92,0.11-1.38,0.16c-0.53,0.06-1.05,0.12-1.58,0.17c-0.53,0.05-1.05,0.1-1.58,0.15
		s-1.05,0.09-1.58,0.13c-0.52,0.04-1.05,0.08-1.58,0.11c-4.21-4.21-8.44-8.41-12.68-12.59c-12.85-12.7-25.79-25.3-38.81-37.82
		c-25.25-24.3-50.44-48.66-75.89-72.74c-25.69-24.32-51.45-48.57-77.07-72.96c-24.74-23.56-49.73-46.86-74.49-70.39
		c-12.27-11.66-24.5-23.37-36.48-35.33c-12.1-12.07-23.91-24.43-35.7-36.81c-16.14-16.95-32.38-33.82-48.87-50.45
		c-7.41-7.47-14.92-14.84-22.46-22.18c-2.63-2.57-5.28-5.12-7.95-7.65c-17.86-3.38-35.84-6.09-53.88-8.28
		c-11.05-1.34-22.11-2.48-32.75-3.43c-0.21-0.02-0.41-0.04-0.62-0.05l-0.15-0.02c-11.03-0.94-22.08-1.68-33.14-2.24
		c-6.11-0.31-12.23-0.62-18.35-0.78c-2.5-0.07-4.99-0.03-7.49-0.1c-1.81-0.05-3.61-0.1-5.42-0.11c-0.74-0.01-1.47-0.01-2.21,0
		c-2.76,0.07-5.52,0.11-8.29,0.13c0.55-1.83,1.12-3.65,1.73-5.46c0.24-0.7,0.46-1.41,0.68-2.12c0.07-0.23,0.14-0.47,0.21-0.71
		c1-3.39,1.84-6.82,2.88-10.2c0.6-1.95,1.23-3.88,1.8-5.83c0.62-2.16,1.18-4.34,1.76-6.51c1.02-3.84,2.24-7.61,3.22-11.46
		c0.53-2.08,1.17-4.13,1.79-6.18c0.68-2.21,1.29-4.43,1.89-6.66c0.45-1.66,0.93-3.32,1.43-4.97c-5.46-5-10.62-10.33-15.48-15.87
		c-10.04-11.43-18.88-23.89-26.64-36.96c-8.73-14.69-15.91-30.21-21.94-46.19c-5.89-15.61-10.29-31.73-13.57-48.08
		c-1.46-7.29-2.61-14.62-3.46-21.75c-0.09-0.74-0.17-1.48-0.25-2.22c-0.07-0.62-0.14-1.24-0.2-1.86c-0.05-0.51-0.11-1.01-0.15-1.51
		c-0.02-0.11-0.02-0.22-0.04-0.33c-0.06-0.59-0.11-1.17-0.16-1.75c-0.06-0.63-0.11-1.26-0.17-1.89c1.86,1.57,3.73,3.14,5.6,4.7
		c1.34,1.12,2.68,2.24,4.03,3.35c16.9,14.02,34.12,27.64,51.44,41.16c15.19,11.97,30.88,24.34,49.31,30.81
		c0.57,0.2,1.14,0.4,1.72,0.59c1.56,0.55,3.28,1.06,5.11,1.5c14.18,3.42,34.71,2.69,34.31-15.38c-2.9-11.93-19.93-19.26-29.3-26.15
		c-16.63-10.78-34.08-20.29-50.27-31.75c-7.85-5.25-15.48-10.8-23.02-16.48c-0.09-0.07-0.18-0.14-0.28-0.21
		c-0.6-0.45-1.2-0.91-1.8-1.36c-0.85-0.64-1.7-1.29-2.55-1.94c-0.77-0.59-1.54-1.18-2.3-1.77c-0.77-0.59-1.53-1.18-2.3-1.77
		c0.39-0.46,0.79-0.92,1.21-1.37c0.15-0.17,0.31-0.34,0.48-0.52c0.09-0.1,0.19-0.2,0.29-0.3c0.12-0.14,0.26-0.27,0.39-0.4
		c0.51-0.52,1.04-1.04,1.57-1.54c0.2-0.18,0.39-0.36,0.59-0.54c0.27-0.24,0.54-0.48,0.8-0.71c0.01-0.01,0.02-0.02,0.02-0.02
		c0.25-0.21,0.5-0.43,0.75-0.64c0.02-0.02,0.04-0.04,0.06-0.05c1.5-1.27,3.07-2.45,4.68-3.57c12.02-8.34,26.3-13.15,40.5-16.22
		c9.5-2.05,19.18-3.33,28.88-4.04c8.88-0.65,17.8-0.85,26.7-0.59c16.76,0.5,33.4,2.36,49.88,5.43c14.58,2.73,29.01,6.42,43.07,11.16
		c2.26,0.76,4.51,1.55,6.75,2.37c0.69,0.25,1.38,0.5,2.07,0.76c0.07,0.03,0.15,0.05,0.22,0.08c0.7,0.26,1.39,0.52,2.09,0.79
		c0.73,0.28,1.45,0.55,2.18,0.84c0.72,0.28,1.45,0.57,2.17,0.86c0.62,1.58,1.24,3.16,1.87,4.74c0.85,2.14,1.7,4.27,2.54,6.41
		c1.27,3.23,2.54,6.45,3.77,9.7c3.93,10.3,7.96,20.55,12.09,30.78c2.42,6,4.78,12.02,7.11,18.05c2.4,6.23,4.9,12.42,7.31,18.64
		c4.42,11.39,9.11,22.68,13.5,34.07c3.29,8.52,6.62,17.02,9.92,25.54c4.52,11.63,9.05,23.26,13.55,34.89
		c1.11,2.87,2.22,5.74,3.34,8.61c14,12.64,28,25.28,42.01,37.91c33.14,29.89,66.24,59.81,99.48,89.58
		c47.36,42.41,94.31,85.25,141.65,127.68c23.95,21.46,47.89,42.93,71.7,64.55c18.84,17.11,37.64,34.24,56.52,51.3
		c0.18,1.11,0.36,2.21,0.54,3.33s0.36,2.23,0.54,3.34c0.01,0.08,0.03,0.16,0.04,0.24c0.14,0.93,0.29,1.85,0.43,2.79
		c0.02,0.11,0.04,0.22,0.05,0.34c0.17,1.12,0.34,2.24,0.5,3.36C857.88,721.89,857.88,721.89,857.88,721.9z"/>
</g>
<g id="Vector_layer_2_">
	<path class="st1" d="M490.38,494.06c0.08,0.04,0.17,0.08,0.25,0.13c0.11,0.08,0.23,0.15,0.34,0.23
		C490.78,494.29,490.58,494.18,490.38,494.06z"/>
	<path class="st1" d="M491.11,494.52c0.04,0.03,0.09,0.06,0.13,0.09l0,0c0.01,0.01,0.03,0.02,0.04,0.04
		C491.22,494.6,491.17,494.56,491.11,494.52z"/>
	<path class="st1" d="M491.69,494.98c0.01,0.01,0.03,0.02,0.05,0.03c0.02,0.03,0.05,0.05,0.07,0.08
		C491.77,495.06,491.73,495.02,491.69,494.98z"/>
	<path class="st1" d="M714.03,645.77C714.03,645.77,714.03,645.77,714.03,645.77c0.01,0,0.01,0.01,0.02,0.02
		C714.05,645.78,714.04,645.78,714.03,645.77z"/>
	<path class="st1" d="M687.87,609.26c0.01,0.01,0.02,0.01,0.02,0.02C687.89,609.28,687.88,609.27,687.87,609.26z"/>
	<path class="st1" d="M687.89,609.29c0.02,0.02,0.03,0.03,0.05,0.05C687.93,609.32,687.91,609.3,687.89,609.29z"/>
	<path class="st1" d="M688.06,609.45c0.03,0.03,0.07,0.06,0.1,0.09C688.13,609.51,688.09,609.48,688.06,609.45z"/>
	<path class="st1" d="M714.02,645.75C714.02,645.76,714.02,645.76,714.02,645.75C714.02,645.76,714.02,645.76,714.02,645.75z"/>
	<path class="st1" d="M732.83,649.53C732.83,649.53,732.83,649.53,732.83,649.53C732.83,649.53,732.83,649.53,732.83,649.53
		C732.83,649.53,732.83,649.53,732.83,649.53z"/>
	<path class="st1" d="M726.47,657.64c0-0.02-0.01-0.04-0.02-0.05c0.01,0.02,0.02,0.05,0.03,0.08
		C726.48,657.66,726.47,657.65,726.47,657.64z"/>
	<path class="st1" d="M728.77,659.69c-0.02,0-0.05-0.01-0.07-0.01c0.18,0.01,0.36,0.01,0.55,0c-0.12,0.01-0.25,0.02-0.37,0.03
		C728.84,659.7,728.81,659.7,728.77,659.69z"/>
	<path class="st1" d="M734.05,672.54c0.03,0.17,0.05,0.34,0.08,0.51C734.1,672.88,734.07,672.71,734.05,672.54z"/>
	<path class="st1" d="M694.76,695.48c0.13,0.05,0.26,0.1,0.39,0.15c0.02,0.01,0.05,0.02,0.07,0.03
		C695.07,695.6,694.91,695.54,694.76,695.48z"/>
	<path class="st1" d="M695.53,695.78c0.02,0.01,0.04,0.02,0.07,0.02c0.11,0.04,0.23,0.09,0.34,0.13
		C695.8,695.88,695.66,695.83,695.53,695.78z"/>
	<path class="st1" d="M710.98,697.52c-0.05,0.02-0.11,0.03-0.16,0.04C710.87,697.55,710.93,697.54,710.98,697.52z"/>
	<path class="st1" d="M714.01,645.75C714.01,645.75,714.01,645.75,714.01,645.75C714.01,645.75,714.01,645.75,714.01,645.75z"/>
	<path class="st1" d="M695.22,695.66c0.02,0.01,0.03,0.01,0.04,0.02C695.25,695.67,695.23,695.67,695.22,695.66z"/>
	<path class="st1" d="M763.45,733.49c-0.01,0.01-0.02,0.02-0.03,0.03c-0.01,0.01-0.02,0.03-0.04,0.04
		C763.4,733.54,763.42,733.51,763.45,733.49z"/>
	<path class="st1" d="M755.56,753.08c0-0.01,0-0.02,0-0.03c0,0,0,0,0,0C755.56,753.06,755.56,753.08,755.56,753.08
		C755.56,753.09,755.56,753.09,755.56,753.08z"/>
	<path class="st1" d="M755.57,753.25c0,0.02,0,0.03,0,0.05C755.57,753.29,755.57,753.27,755.57,753.25z"/>
	<path class="st1" d="M808.51,756.88c0,0.02,0,0.04-0.01,0.05C808.5,756.91,808.5,756.9,808.51,756.88z"/>
	<path class="st1" d="M808.49,756.96c-0.02,0.15-0.05,0.29-0.07,0.44C808.45,757.26,808.47,757.11,808.49,756.96z"/>
	<path class="st1" d="M803.27,768.38c-0.06,0.07-0.12,0.13-0.18,0.2C803.15,768.51,803.21,768.44,803.27,768.38z"/>
	<path class="st1" d="M808.49,756.96c0-0.01,0-0.03,0.01-0.04c-0.05,0.27-0.1,0.54-0.15,0.81
		C808.4,757.48,808.45,757.22,808.49,756.96z"/>
	<path class="st1" d="M808.35,757.75c-0.01,0.04-0.02,0.09-0.03,0.13C808.33,757.84,808.34,757.8,808.35,757.75z"/>
	<path class="st1" d="M808.31,757.92c-0.01,0.04-0.02,0.07-0.02,0.11C808.3,757.99,808.3,757.96,808.31,757.92z"/>
	<path class="st1" d="M808.28,758.09c-0.01,0.03-0.01,0.06-0.02,0.1C808.26,758.15,808.27,758.12,808.28,758.09z"/>
	<path class="st1" d="M808.24,758.25c-0.01,0.03-0.01,0.06-0.02,0.09C808.23,758.31,808.23,758.28,808.24,758.25z"/>
	<path class="st1" d="M808.2,758.4c-0.01,0.03-0.01,0.06-0.02,0.09C808.19,758.46,808.2,758.43,808.2,758.4z"/>
	<path class="st1" d="M808.17,758.55c-0.01,0.03-0.02,0.07-0.02,0.1C808.15,758.62,808.16,758.59,808.17,758.55z"/>
	<path class="st1" d="M808.13,758.7c-0.01,0.04-0.02,0.08-0.03,0.11C808.11,758.77,808.12,758.74,808.13,758.7z"/>
	<path class="st1" d="M808.1,758.85c-0.01,0.04-0.02,0.09-0.03,0.13C808.07,758.93,808.09,758.89,808.1,758.85z"/>
	<path class="st1" d="M808.06,758.98c-0.25,0.97-0.56,1.93-0.91,2.86C807.51,760.91,807.81,759.95,808.06,758.98z"/>
	<path class="st1" d="M350.28,162.78c0.09,0.05,0.18,0.09,0.26,0.14c-0.01,0.02-0.01,0.04-0.02,0.05
		C350.45,162.91,350.37,162.85,350.28,162.78z"/>
	<path class="st1" d="M344.72,170.03C344.72,170.03,344.72,170.03,344.72,170.03C344.72,170.03,344.72,170.03,344.72,170.03
		C344.72,170.03,344.72,170.04,344.72,170.03C344.73,170.04,344.73,170.04,344.72,170.03C344.72,170.04,344.72,170.04,344.72,170.03
		z"/>
	<path class="st1" d="M344.75,170.06C344.75,170.05,344.75,170.05,344.75,170.06c0,0,0.01,0,0.01,0.01
		C344.76,170.06,344.76,170.06,344.75,170.06z"/>
	<path class="st1" d="M344.76,170.06c-0.01-0.01-0.02-0.01-0.03-0.02c0,0,0,0,0,0c0.01,0,0.01,0.01,0.02,0.01
		C344.76,170.06,344.76,170.06,344.76,170.06C344.77,170.07,344.77,170.07,344.76,170.06z"/>
	<path class="st1" d="M344.82,170.1c-0.01-0.01-0.03-0.02-0.04-0.03c0.01,0.01,0.02,0.01,0.03,0.02
		C344.81,170.1,344.82,170.1,344.82,170.1C344.82,170.1,344.82,170.1,344.82,170.1z"/>
	<path class="st1" d="M344.83,170.11C344.83,170.11,344.82,170.11,344.83,170.11C344.83,170.11,344.83,170.11,344.83,170.11
		C344.83,170.11,344.83,170.11,344.83,170.11z"/>
	<path class="st1" d="M344.84,170.12C344.84,170.11,344.83,170.11,344.84,170.12C344.83,170.11,344.83,170.11,344.84,170.12
		C344.83,170.11,344.84,170.11,344.84,170.12C344.84,170.12,344.84,170.12,344.84,170.12z"/>
	<path class="st1" d="M344.84,170.12C344.84,170.12,344.84,170.12,344.84,170.12c-0.01,0-0.01-0.01-0.02-0.01c0,0,0,0,0,0
		C344.83,170.11,344.84,170.12,344.84,170.12C344.85,170.12,344.85,170.12,344.84,170.12z"/>
	<path class="st1" d="M344.84,170.12C344.84,170.12,344.84,170.12,344.84,170.12C344.85,170.12,344.85,170.12,344.84,170.12
		C344.85,170.12,344.85,170.12,344.84,170.12z"/>
	<path class="st1" d="M344.84,170.12C344.84,170.12,344.84,170.12,344.84,170.12C344.85,170.12,344.85,170.12,344.84,170.12
		C344.85,170.12,344.85,170.12,344.84,170.12z"/>
	<path class="st1" d="M344.86,170.13C344.86,170.13,344.86,170.13,344.86,170.13C344.86,170.13,344.86,170.13,344.86,170.13
		C344.86,170.13,344.86,170.13,344.86,170.13z"/>
	<path class="st1" d="M344.88,170.14C344.88,170.14,344.88,170.14,344.88,170.14C344.88,170.14,344.88,170.14,344.88,170.14
		C344.88,170.15,344.88,170.14,344.88,170.14z"/>
	<path class="st1" d="M344.89,170.15C344.89,170.15,344.89,170.15,344.89,170.15C344.89,170.15,344.89,170.15,344.89,170.15
		C344.89,170.15,344.89,170.15,344.89,170.15z"/>
	<path class="st1" d="M344.89,170.15C344.89,170.15,344.89,170.15,344.89,170.15C344.89,170.15,344.89,170.15,344.89,170.15
		C344.89,170.15,344.89,170.15,344.89,170.15z"/>
	<path class="st1" d="M345.25,170.37c0.02,0.01,0.03,0.02,0.05,0.03C345.28,170.4,345.26,170.38,345.25,170.37z"/>
	<path class="st1" d="M345.87,170.81c0.01,0,0.01,0.01,0.02,0.01c0.01,0,0.01,0.01,0.02,0.01
		C345.9,170.82,345.89,170.81,345.87,170.81z"/>
	<path class="st1" d="M269.11,401.27c-0.67,1.83-1.35,3.66-2.02,5.48C267.76,404.93,268.44,403.1,269.11,401.27z"/>
	<path class="st1" d="M329.7,160.37c-0.18-0.13-0.37-0.26-0.55-0.38c0.23,0.16,0.46,0.31,0.69,0.46
		C329.8,160.41,329.75,160.39,329.7,160.37z"/>
	<path class="st2" d="M354.03,319.34c0,0,0-0.01,0-0.01C354.03,319.34,354.03,319.34,354.03,319.34
		C354.03,319.35,354.03,319.35,354.03,319.34z"/>
	<path class="st2" d="M354.04,319.37c0.01,0.03,0.01,0.06,0.02,0.08C354.05,319.43,354.04,319.4,354.04,319.37z"/>
	<path class="st2" d="M742.87,679.04c0.4-1.89,0.56-3.73,0.42-5.67c-0.07-0.98-0.18-1.95-0.32-2.91c-0.42-3.1-1.04-6.12-1.94-9.12
		c-0.11-0.36-0.22-0.72-0.34-1.08c0.49-0.9,0.54-1.98-0.11-3.01c-0.4-0.63-0.95-1.14-1.58-1.54c-0.02-0.03-0.05-0.06-0.07-0.09
		c-0.14-0.18-0.29-0.34-0.46-0.49c-0.57-0.99-1.23-1.93-1.99-2.78c-0.77-0.87-1.57-1.7-2.46-2.44c-0.56-0.47-1.14-0.84-1.77-1.07
		c-0.44-0.37-1-0.64-1.57-0.7c-0.79-0.74-1.58-1.46-2.38-2.18c-0.96-0.86-1.97-1.66-2.92-2.54c-1.16-1.11-2.3-2.23-3.53-3.28
		c-1.38-1.18-2.73-2.38-4.09-3.6c-2.96-2.68-5.94-5.36-8.88-8.07c-3.48-3.21-6.99-6.39-10.46-9.61c-3.25-3.01-6.59-5.92-9.83-8.93
		c-0.14-0.13-0.28-0.27-0.43-0.4c-0.04-0.03-0.07-0.06-0.1-0.09s-0.07-0.06-0.1-0.09h0c0-0.01-0.01-0.01-0.02-0.02
		c-0.02-0.02-0.03-0.03-0.05-0.05c0,0-0.01-0.01-0.01-0.01c0,0-0.01-0.01-0.01-0.01h0c-0.02-0.01-0.03-0.03-0.05-0.04
		c-0.07-0.06-0.14-0.12-0.21-0.19c0.04,0.03,0.07,0.06,0.11,0.09c-1.53-1.46-3.07-2.91-4.64-4.33
		c-16.87-15.39-33.72-30.8-50.65-46.12c-14.2-12.86-28.38-25.74-42.55-38.63c-7.45-6.77-14.93-13.5-22.36-20.29
		c-5.82-5.31-11.64-10.62-17.5-15.89c-5.09-4.58-10.14-9.21-15.23-13.79c-3.96-3.56-7.95-7.11-11.84-10.75
		c0.05,0.05,0.11,0.11,0.16,0.16c-0.98-0.93-1.89-1.73-3.12-2.36c-0.09-0.05-0.19-0.09-0.29-0.14c-0.88-0.82-1.92-1.54-2.89-2.18
		c-1.14-0.75-2.32-1.44-3.59-1.97c-2.54-1.08-5.34-1.54-8.09-1.61c-0.22,0-0.45-0.01-0.68-0.01c-2.71,0-5.42,0.38-7.98,1.26
		c-3.55,1.23-6.81,3.33-9.48,5.96c-3.53,3.46-6.05,7.73-7.7,12.38c-1.64,4.6-2.11,9.56-1.8,14.42c0.21,3.45,0.84,6.86,2.4,9.97
		c0.86,1.72,2.05,3.3,3.31,4.75c1.47,1.69,3.12,3.23,4.8,4.7c0.41,0.35,0.82,0.7,1.23,1.05c2.06,2.06,4.12,4.13,6.2,6.18
		c11.5,11.36,22.86,22.86,34.3,34.27c12.94,12.91,25.84,25.85,38.73,38.81c9.43,9.48,18.94,18.87,28.38,28.32
		c8.82,8.84,17.66,17.68,26.5,26.5c7.63,7.61,15.22,15.25,22.86,22.84c7.52,7.47,15.02,14.98,22.51,22.48
		c3.36,3.36,6.73,6.69,10.09,10.04c0.92,0.92,1.84,1.83,2.76,2.75c-0.03,0.45-0.03,0.9,0.02,1.34c0.12,1.21,0.56,2.79,1.62,3.54
		c0.29,0.21,0.58,0.41,0.88,0.61c1.17,0.8,2.35,1.57,3.59,2.27c1.68,0.94,3.48,1.66,5.29,2.3c3.9,1.38,8.04,2.19,12.19,2.19
		c0.43,0,0.85-0.01,1.28-0.03c2.84-0.12,5.55-0.72,8.17-1.85c3.86-1.66,7.65-3.71,11.14-6.05c4.55-3.05,8.56-6.74,11.6-11.33
		C739.7,687.3,741.96,683.32,742.87,679.04z M815.68,765.64c3.2-6.08,4.18-13.36,2.64-20.05c-1.39-6.07-4.68-11.61-9.38-15.7
		c-5-4.36-11.24-6.9-17.8-7.58c-3.21-0.29-6.43-0.19-9.61,0.42c-4.79,0.91-9.3,2.84-13.3,5.62c-3.51,2.45-6.55,5.71-8.73,9.39
		c-0.74,1.26-1.43,2.54-1.97,3.89c-0.25,0.64-0.57,1.28-0.74,1.95c-0.16,0.65-0.33,1.44-0.13,2.1c0.02,0.08,0.05,0.17,0.08,0.25
		c-0.22,0.66-0.43,1.33-0.59,2.01c-0.23,0.96-0.34,1.95-0.49,2.93c-0.11,0.72-0.14,1.38-0.11,2.08c0,0.03,0,0.06,0,0.09v0
		c0,0.01,0,0.02,0,0.04c0,0,0,0,0,0.01c0,0.05,0,0.1,0.01,0.15c0,0,0,0,0,0v0c0,0.02,0,0.04,0,0.05c0,0,0,0.01,0,0.01
		c0.02,0.59-0.06,1.18-0.05,1.78c0.02,0.75,0.09,1.49,0.2,2.23c0.2,1.29,0.46,2.59,0.79,3.84c0.2,0.77,0.47,1.52,0.76,2.25
		c0.23,0.57,0.38,1.18,0.62,1.75c0.39,0.96,0.93,1.83,1.48,2.71c2.02,3.71,5.07,6.8,8.49,9.25c5.39,3.85,11.97,5.73,18.55,5.73
		c3.02,0,6.03-0.39,8.94-1.17C804,779.36,811.49,773.58,815.68,765.64z M836.32,731.41c13.38,34.82-17.43,74-53.3,74.35
		c-0.2,0-0.39,0-0.59,0c-0.4,0-0.8-0.01-1.2-0.02c-0.8-0.02-1.6-0.06-2.4-0.12c-0.29-0.02-0.59-0.05-0.88-0.07
		c-0.22-0.02-0.44-0.04-0.66-0.07c-2.79-0.27-5.55-0.65-8.29-1.12c-1.87-1.84-3.74-3.68-5.58-5.54c-2.77-2.76-5.61-5.45-8.48-8.11
		c-0.34-0.32-0.68-0.64-1.03-0.95c-0.66-0.61-1.33-1.22-1.99-1.84c-3.8-3.48-7.62-6.94-11.39-10.45c-1.4-1.3-2.81-2.59-4.19-3.91
		c-1.62-1.56-3.22-3.14-4.88-4.66c-3.25-2.98-6.32-6.17-9.46-9.25c-8.07-7.9-16.11-15.84-24.16-23.76
		c-9.3-9.13-18.6-18.26-27.96-27.33c-27.32-26.48-54.56-53.04-81.71-79.7c-23.39-22.96-46.73-45.98-70.23-68.82
		c-16.67-16.21-33.3-32.45-49.98-48.65c-16.84-16.36-33.54-32.87-50.41-49.2c-14.2-13.74-28.25-27.62-42.41-41.39
		c-0.43-0.42-0.86-0.84-1.29-1.26c-7.56-5.28-15.49-9.97-24.07-13.52c-19.21-8-39.31-11.68-59.7-12.94
		c-0.52-0.03-1.04-0.06-1.56-0.09c-0.46-0.03-0.93-0.05-1.39-0.07c-0.91-0.05-1.83-0.09-2.75-0.12c-0.35-0.02-0.7-0.03-1.06-0.04
		c-0.65-0.02-1.3-0.05-1.95-0.06c-0.23-0.01-0.46-0.02-0.69-0.02c-0.52-0.02-1.05-0.03-1.57-0.04c-0.52-0.01-1.03-0.02-1.55-0.03
		c-0.01,0-0.02,0-0.02,0h0c0.38-1.05,0.76-2.1,1.15-3.15c0.27-0.74,0.54-1.48,0.82-2.23c0.22-0.62,0.45-1.23,0.68-1.84
		c0.12-0.34,0.25-0.69,0.38-1.03h0c2.09-5.64,4.24-11.25,6.46-16.84c0.15-0.39,0.3-0.77,0.46-1.16c1.05-2.65,2.11-5.3,3.19-7.93
		c0.38,0.14,0.75,0.29,1.12,0.43s0.75,0.29,1.13,0.43c0.38,0.14,0.75,0.28,1.13,0.42s0.75,0.27,1.13,0.41
		c0.75,0.27,1.51,0.53,2.27,0.79c0.35,0.12,0.7,0.23,1.04,0.35c0.71,0.24,1.43,0.46,2.15,0.69c0.45,0.14,0.9,0.28,1.36,0.41
		c0.02,0.01,0.05,0.01,0.07,0.02c9.27,2.75,18.68,4.35,28.14,3.96c26.25-2,43.02-36.29,24.64-56.71
		c-8.32-9.09-19.43-14.55-30.72-19.23c-0.23-0.1-0.47-0.2-0.7-0.29c-0.42-0.18-0.85-0.35-1.27-0.52c-1.97-0.8-3.95-1.59-5.91-2.36
		c0.98-2.85,1.95-5.7,2.93-8.54c0.43-1.27,0.87-2.53,1.3-3.8c5.99-17.61,12.05-35.19,18.12-52.77c3.87-11.2,7.7-22.41,11.54-33.62
		c1.92-5.6,3.84-11.2,5.75-16.8c1.57,4.12,3.12,8.26,4.64,12.4c1.41,3.81,2.79,7.63,4.13,11.47c4.2,12,8.24,24.04,12.64,35.86
		c0.04,0.09,0.07,0.19,0.11,0.28c0.05,0.12,0.09,0.25,0.11,0.28c8.19,21.82,17.31,43.25,26.66,64.59
		c4.93,11.25,9.81,22.52,14.54,33.86c4.04,9.67,8.2,19.29,12.5,28.84c0.7,1.55,1.39,3.09,2.1,4.64
		c13.19,11.86,26.38,23.71,39.6,35.54c20.26,18.13,40.59,36.19,60.88,54.29c19.96,17.82,39.87,35.69,59.77,53.58
		c28.46,25.59,56.97,51.11,85.54,76.57c23.16,20.64,46.34,41.25,69.42,61.97c10.47,9.4,20.99,18.75,31.48,28.12
		c2.15,1.91,4.29,3.84,6.44,5.75c1.95,1.73,3.82,3.54,5.74,5.3c1,0.92,1.95,1.89,2.96,2.8c1.03,0.92,2.07,1.82,3.08,2.76
		c0.88,0.81,1.7,1.68,2.59,2.47c1.09,0.98,2.18,1.96,3.27,2.93c2.21,1.97,4.35,4.01,6.55,5.98c2.25,2.01,4.53,4,6.76,6.03
		c0.94,0.86,1.84,1.77,2.78,2.64c1.05,0.98,2.14,1.93,3.2,2.91c0.04,0.03,0.07,0.06,0.1,0.09c0.01,0.01,0.02,0.02,0.02,0.02
		c1.18,0.99,2.3,2.02,3.38,3.11c0.42,0.38,0.84,0.76,1.27,1.13c0.28,0.23,0.56,0.45,0.86,0.66c0.64,0.4,1.29,0.77,1.79,1.35
		c0.48,0.55,0.92,1.1,1.12,1.83c0.09,0.31,0.11,0.59,0.1,0.83c0,0.12-0.01,0.24-0.02,0.36
		C833.69,725.44,835.16,728.25,836.32,731.41z"/>
	<path class="st2" d="M734.62,677.18c0,0.01,0,0.02,0,0.02c0,0,0,0.01,0,0.01c-0.03,0.14-0.07,0.29-0.11,0.43
		c-0.12,0.37-0.25,0.73-0.4,1.09c-0.32,0.73-0.68,1.44-1.05,2.14c-0.61,1.07-1.27,2.11-1.96,3.13c-0.46,0.64-0.95,1.27-1.46,1.88
		c-0.79,0.88-1.61,1.73-2.48,2.52c-1.14,0.98-2.35,1.88-3.59,2.73c-2.82,1.86-5.81,3.5-8.87,4.95c-1.15,0.53-2.32,1.01-3.53,1.37
		c-0.92,0.22-1.85,0.36-2.79,0.44c-0.52,0.03-1.05,0.04-1.57,0.04c-1.32,0-2.64-0.09-3.95-0.25c-2.48-0.38-4.93-1.03-7.28-1.89
		c-0.02-0.01-0.04-0.02-0.07-0.02c-0.04-0.02-0.09-0.03-0.13-0.05c-0.05-0.02-0.09-0.04-0.14-0.05c-0.02,0-0.03-0.01-0.04-0.02
		c-0.02-0.01-0.05-0.02-0.07-0.03c-1.57-0.62-3.05-1.41-4.49-2.3c-1.6-1.6-3.21-3.2-4.8-4.8c-6.91-6.91-13.82-13.82-20.73-20.73
		c-7.3-7.31-14.57-14.67-21.95-21.91c-8.57-8.41-16.98-16.99-25.52-25.44c-9.31-9.22-18.57-18.5-27.84-27.76
		c-11.5-11.49-23.02-22.95-34.54-34.42c-12.35-12.3-24.73-24.57-37.06-36.89c-5.5-5.5-11-11.02-16.52-16.51
		c-1.4-1.39-2.8-2.79-4.19-4.19c-0.3-0.6-0.72-1.13-1.27-1.52c-0.17-0.12-0.35-0.22-0.53-0.3c-0.27-0.27-0.53-0.54-0.8-0.81
		c-0.91-0.93-1.88-1.8-2.77-2.75c0.16,0.18,0.32,0.35,0.49,0.53c-0.39-0.42-0.78-0.79-1.21-1.11c-0.15-0.13-0.3-0.26-0.46-0.39
		c-0.56-0.46-1.24-0.83-1.97-1.1c-0.52-0.52-1.03-1.06-1.52-1.61c-0.53-0.64-1.03-1.31-1.49-2c-0.2-0.33-0.4-0.66-0.58-1.01
		c-0.08-0.18-0.16-0.36-0.23-0.55c-0.09-0.27-0.17-0.54-0.24-0.82c-0.12-0.54-0.21-1.08-0.29-1.62c-0.09-0.77-0.15-1.55-0.18-2.33
		c-0.02-0.91,0-1.82,0.05-2.74c0.07-0.83,0.17-1.66,0.3-2.49c0.09-0.47,0.2-0.95,0.32-1.42c0.21-0.67,0.44-1.32,0.69-1.97
		c0.41-0.99,0.87-1.96,1.37-2.91c0.42-0.74,0.86-1.47,1.35-2.17c0.46-0.62,0.95-1.21,1.47-1.79c0.8-0.82,1.65-1.6,2.54-2.32
		c0.91-0.68,1.86-1.3,2.85-1.85c1.05-0.54,2.14-0.99,3.27-1.36c1.18-0.34,2.39-0.56,3.61-0.68c1.62-0.11,3.24-0.09,4.85,0.09
		c1.17,0.17,2.32,0.43,3.45,0.79c0.63,0.24,1.25,0.53,1.85,0.85c0.25,0.22,0.5,0.43,0.73,0.64c0.48,0.44,0.96,0.86,1.43,1.3
		c1.26,1.17,2.55,2.31,3.82,3.46c4.17,3.77,8.34,7.55,12.49,11.34c11.58,10.57,23.22,21.07,34.85,31.59
		c14.22,12.85,28.39,25.76,42.61,38.62c14.94,13.51,29.85,27.05,44.78,40.56c4.77,4.32,9.56,8.63,14.34,12.94
		c2.98,2.68,5.93,5.41,8.95,8.05c2.7,2.35,5.37,4.71,8,7.12c8.96,8.19,18.15,16.12,27.04,24.38c0.84,0.81,1.68,1.61,2.53,2.41h0
		c0,0,0,0,0,0l0,0c0,0,0.01,0.01,0.01,0.01c0,0,0,0,0,0c0.01,0.01,0.02,0.01,0.02,0.02c0.97,0.91,2,1.72,3,2.6
		c1.81,1.73,3.68,3.39,5.52,5.1c0.61,0.58,1.19,1.17,1.8,1.75c0.43,0.39,0.86,0.78,1.28,1.17c0.07,0.29,0.16,0.57,0.27,0.84
		c0.3,0.7,0.67,1.36,1.26,1.83c0.3,0.47,0.67,0.91,1.12,1.3c0.43,0.37,0.86,0.73,1.26,1.12c0.51,0.55,1,1.14,1.43,1.75
		c0.26,0.41,0.49,0.84,0.71,1.27c0.54,1.23,1,2.5,1.4,3.79c0.43,1.56,0.77,3.14,1.04,4.73c0,0.04,0.01,0.08,0.02,0.12
		C734.35,674.51,734.53,675.84,734.62,677.18z"/>
	<path class="st2" d="M347.68,171.79c-0.13,0.41-0.26,0.81-0.4,1.21c-0.54,1.58-1.09,3.14-1.61,4.73
		c-1.21,3.93-2.46,7.84-3.49,11.05c-0.45,1.4-0.89,2.8-1.35,4.2c-0.59,1.88-1.17,3.77-1.76,5.66c-0.68,2.17-1.47,4.3-2.2,6.45
		c-0.17,0.54-0.35,1.07-0.52,1.61c-0.41,1.31-0.79,2.62-1.07,3.5c-0.23,0.71-0.46,1.43-0.52,1.62c-0.79,2.45-1.59,4.89-2.41,7.33
		c-0.32,1.05-0.64,2.09-0.97,3.13c0,0,0,0.01,0,0.01c-0.08,0.24-0.16,0.49-0.17,0.54c-0.21,0.63-0.41,1.27-0.61,1.9
		c-2.98,9.41-6.16,18.77-9.25,28.16c-2.11,6.44-4.24,12.88-6.39,19.3c-1.14,3.41-2.31,6.81-3.41,10.23
		c-0.31,1.02-0.65,2.04-0.89,2.78c-0.54,1.64-1.31,3.35-3.34,3.35c-0.07,0-0.14,0-0.21,0c-0.66-0.04-1.27-0.25-1.84-0.58
		c-0.63,0.65-1.48,1.15-2.56,1.43c-14.55,7.02-23.95,23.11-23.58,39.11c1.11,3.77,2.86,7.34,5.08,10.6
		c1.26,1.55,2.77,2.59,3.37,4.57c0.2,0.54,0.34,1.05,0.43,1.55c0.59,1.7,0.64,3.59,0.06,5.27c-0.41,1.17-0.86,2.32-1.29,3.48
		c-0.01,0.05-0.02,0.1-0.03,0.15c-0.11,0.48-0.3,0.96-0.46,1.42c-0.19,0.56-0.39,1.12-0.59,1.68c-0.55,1.55-1.09,3.1-1.63,4.66
		c-0.52,1.51-1,3.05-1.59,4.53c-0.3,0.75-0.65,1.49-0.95,2.25c-0.35,0.89-0.71,1.75-0.98,2.3c-0.6,1.15-1,2.4-1.46,3.61
		c-0.74,1.89-1.51,3.77-2.23,5.67c-0.52,1.36-1.03,2.72-1.54,4.09h-1.62h-7.23h-44.91v0h-10.05v0c0.76-2.23,1.52-4.45,2.29-6.68
		c0.98-2.88,1.97-5.76,2.97-8.63c0.71-2.05,1.43-4.11,2.14-6.16c1.13-3.27,2.31-6.5,3.38-9.37c0.29-0.78,0.57-1.55,0.86-2.32
		c1.2-3.34,2.38-6.68,3.34-9.29c1.32-3.7,2.59-7.42,3.94-11.11c1.64-4.48,3.2-8.98,4.77-13.48c2.94-8.42,5.86-16.85,8.7-24.57
		c1.07-2.91,2.19-5.79,3.26-8.68c0.64-1.75,1.23-3.52,1.82-5.29c0.18-0.52,0.35-1.05,0.52-1.57c0.67-2.02,1.43-4.02,2.14-6.03
		c0.53-1.46,1.02-2.94,1.5-4.42c0.7-0.23,1.41-0.48,2.1-0.75c0.29-0.1,0.59-0.2,0.88-0.31c0.35-0.12,0.7-0.26,1.05-0.4
		c0.27-0.11,0.54-0.22,0.81-0.34c0,0,0,0,0.01,0c0.3-0.13,0.61-0.27,0.91-0.41c0.24-0.11,0.48-0.23,0.72-0.35
		c0.59-0.29,1.18-0.61,1.77-0.94c0.12-0.07,0.25-0.14,0.37-0.21c0.22-0.13,0.45-0.26,0.66-0.39c0.01-0.01,0.02-0.01,0.02-0.02
		c17.64-10.7,29.57-36.59,12.11-52.18c-11.62-11.01-27.56-18.76-40.97-25.92c-7.58-3.9-15.2-7.74-22.83-11.54
		c-2.18-1.09-4.36-2.17-6.54-3.24c-2.18-1.08-4.36-2.16-6.55-3.23c0.7-0.35,1.41-0.7,2.11-1.04c0.1-0.05,0.21-0.1,0.31-0.15
		c0.81-0.39,1.62-0.78,2.44-1.16c0.82-0.38,1.63-0.76,2.45-1.13c0.04-0.02,0.09-0.04,0.14-0.06c0.71-0.32,1.43-0.64,2.16-0.96
		c0.06-0.02,0.11-0.05,0.17-0.07c20.19-8.86,41.76-14.61,63.9-14.34c19.24,0.62,38.99,3.89,56.71,11.71
		c0.34,0.32,0.71,0.6,1.11,0.82c0.2,0.11,0.39,0.21,0.59,0.32h0c0.05,0.03,0.11,0.05,0.16,0.09c0.96,0.6,1.97,1.1,3.02,1.55
		c0.73,0.31,1.45,0.65,2.15,1.01c0.7,0.4,1.38,0.83,2.04,1.28c0.78,0.55,1.55,1.13,2.33,1.68c-0.22-0.16-0.45-0.31-0.66-0.46
		c0.32,0.22,0.62,0.45,0.93,0.68c0.05,0.04,0.11,0.09,0.17,0.13c0.15,0.11,0.3,0.22,0.45,0.34c0.18,0.14,0.36,0.28,0.54,0.42
		c0.93,0.72,1.84,1.46,2.79,2.16c0.28,0.21,0.56,0.41,0.84,0.62c0,0,0,0,0.01,0.01c0,0,0,0,0,0c0.01,0.01,0.03,0.02,0.04,0.03
		c0.01,0,0.02,0.01,0.02,0.02s0.02,0.01,0.02,0.02l0,0c0.02,0.01,0.03,0.02,0.04,0.03c0,0,0,0,0,0s0,0,0.01,0.01c0,0,0,0,0,0v0
		c0,0,0,0,0,0c0,0,0,0,0,0c0,0,0,0,0,0h0v0h0c0,0,0,0,0,0l0,0.01h0c0,0,0,0,0,0c0,0,0.01,0,0.01,0.01s0,0,0,0h0c0,0,0,0,0.01,0.01h0
		c0,0,0,0,0,0.01c0,0,0,0,0.01,0h0c0.01,0.01,0.02,0.02,0.03,0.02c0,0,0,0,0.01,0v0h0c0,0,0,0,0,0c0,0,0,0,0,0h0c0,0,0,0,0.01,0.01
		l0,0h0l0,0l0,0h0c0,0,0,0,0,0c0,0,0,0,0,0h0l0,0h0v0c0,0,0,0,0,0s0,0,0,0h0h0v0h0c0.01,0.01,0.02,0.01,0.02,0.02h0
		c0,0,0.01,0.01,0.02,0.01c0,0,0,0,0.01,0c0,0,0,0,0,0l0,0h0c0.16,0.11,0.32,0.21,0.49,0.32c-0.09-0.07-0.19-0.13-0.28-0.2
		c0.04,0.03,0.09,0.06,0.13,0.09c0.01,0.01,0.02,0.02,0.03,0.02c0,0,0.01,0,0.01,0c0.04,0.02,0.07,0.05,0.1,0.07
		c0.02,0.02,0.04,0.03,0.07,0.05c0.02,0.01,0.04,0.02,0.05,0.04c0.02,0.02,0.04,0.03,0.05,0.04c0.03,0.03,0.06,0.05,0.09,0.07
		C346.29,171.12,346.96,171.5,347.68,171.79z"/>
	<path class="st2" d="M336.3,353c0.79-2.27,1.57-4.53,2.35-6.8c-2.68-1.12-5.34-2.31-8.03-3.43c-1.04-0.43-2.06-0.89-3.02-1.28
		c-0.85-0.35-1.68-0.72-2.53-1.07c-0.09-0.04-0.18-0.07-0.27-0.11l-0.23-0.09c-0.71-0.28-1.39-0.6-2.09-0.89
		c-1.02-0.42-2.03-0.86-2.37-1c-0.93-0.37-1.84-0.77-2.09-0.88c-0.92-0.37-1.82-0.78-2.43-1.03c-0.32-0.13-0.64-0.26-0.75-0.31
		c-1.57-0.64-3.13-1.32-4.02-1.69c-0.96-0.38-1.89-0.81-2.17-0.92l-0.6-0.24c-1.31-0.53-2.61-1.11-3.92-1.64
		c-0.08-0.04-0.17-0.07-0.25-0.1c-0.12-0.05-0.24-0.1-1.28-0.55c-0.77-0.3-1.54-0.64-1.96-0.82c-0.11-0.05-0.23-0.09-0.95-0.41
		c-1.4-0.56-2.79-1.17-3.85-1.6c-0.09-0.04-0.17-0.07-0.25-0.1c-0.14,0.35-0.29,0.7-0.43,1.05c-0.77,1.96-1.49,3.94-2.23,5.92
		c0.75,0.32,1.51,0.65,2.26,0.97c7.55,3.25,15.19,6.29,22.77,9.48c3.86,1.62,7.74,3.22,11.63,4.75
		C331.86,351.11,334.07,352.05,336.3,353z M341.69,336.96c0-0.01,0.01-0.01,0.01-0.02c-0.01,0-0.01,0-0.02,0l0,0
		c-0.22-0.02-0.44-0.04-0.67-0.06c-0.05,0.01-0.11,0.02-0.16,0.03c0.05,0,0.1,0,0.16,0C341.24,336.9,341.47,336.92,341.69,336.96z
		 M341.73,336.86c0.53-1.55,1.07-3.1,1.57-4.66c-1.11-0.46-2.21-0.91-3.3-1.38c-1.82-0.79-3.68-1.5-5.48-2.33
		c-1.36-0.63-2.74-1.18-4.11-1.77c-1.69-0.72-3.36-1.48-5.05-2.19c-7.73-3.26-15.51-6.41-23.23-9.7c-0.41-0.18-0.81-0.35-1.21-0.52
		c-0.58,1.57-1.12,3.15-1.7,4.73c0.08,0.04,0.16,0.07,0.25,0.11c0.61,0.24,1.21,0.5,1.71,0.7c0.6,0.25,1.19,0.51,1.65,0.7
		c0.05,0.02,0.1,0.04,0.14,0.06c0.04,0.01,0.07,0.03,0.1,0.04c0.05,0.02,0.11,0.05,0.17,0.07c0.68,0.28,1.35,0.57,1.35,0.58
		c0.91,0.36,1.8,0.76,2.02,0.85c1.07,0.42,2.11,0.9,2.5,1.06c1.01,0.4,2.01,0.83,2.34,0.97c1.66,0.66,3.3,1.4,4.52,1.91
		c1.61,0.64,3.18,1.34,4.79,1.99c-0.09-0.03-0.18-0.07-0.26-0.1c1.09,0.43,2.15,0.91,3.2,1.34c0.79,0.32,1.57,0.67,2.36,1
		c0.88,0.35,1.73,0.73,2.6,1.09c0.04,0.02,0.07,0.03,0.11,0.04c0.14,0.05,0.28,0.11,0.42,0.17c0,0,0.01,0,0.02,0.01
		c0.03,0.01,0.06,0.02,0.09,0.04c0.01,0,0.02,0,0.03,0.01c0.01,0,0.02,0.01,0.04,0.01c0.04,0.02,0.07,0.03,0.11,0.04c0,0,0,0,0,0
		c0.02,0.01,0.04,0.02,0.06,0.02c0.02,0.01,0.05,0.02,0.07,0.03c0.59,0.25,1.1,0.48,1.16,0.5c0.61,0.25,1.21,0.5,1.82,0.75
		c1.5,0.6,2.97,1.26,4.45,1.86c0.62,0.25,1.23,0.52,1.84,0.77c0.54,0.21,1.07,0.43,1.13,0.45c0.45,0.19,0.9,0.38,1.24,0.52
		C341.39,336.72,341.56,336.79,341.73,336.86z M348.45,316.2c-1.2-0.55-2.39-1.11-3.58-1.66c-6.81-3.05-13.66-6.02-20.48-9.04
		c-5.51-2.45-11.11-4.72-15.81-6.86c-0.42-0.19-0.85-0.38-1.27-0.56l-0.04,0.09c-0.23,0.6-0.47,1.2-0.71,1.8
		c-0.39,0.99-0.77,1.97-0.95,2.42c-0.39,1.01-0.79,2.02-1.15,2.93c-0.01,0.03-0.02,0.07-0.04,0.09c1.71,0.71,3.43,1.42,5.13,2.17
		c1.8,0.8,3.62,1.61,5.45,2.36c2.98,1.22,5.89,2.6,8.88,3.81c2.95,1.19,5.88,2.41,8.8,3.66c0.95,0.41,1.91,0.76,2.86,1.14
		c0.86,0.35,1.7,0.77,2.57,1.11c2.66,0.97,5.21,2.27,7.17,3c0.34,0.12,0.68,0.25,0.88,0.34c0.39-1.18,0.78-2.36,1.17-3.54
		C347.7,318.37,348.07,317.28,348.45,316.2z M355.48,325.61c-0.7,2.18-1.41,4.35-2.11,6.52c-0.64,1.98-1.35,3.93-1.96,5.91
		c-0.66,2.16-1.29,4.32-1.99,6.47c-0.91,2.8-1.76,5.62-2.59,8.45c-0.21,0.18-0.42,0.35-0.64,0.52c-0.97,0.72-1.96,1.41-2.98,2.05
		c-0.11,0.06-0.21,0.13-0.32,0.19c0,0,0.01,0,0.01,0c-0.72,0.43-1.45,0.84-2.2,1.23c-0.28,0.15-0.57,0.3-0.85,0.45
		c-0.23,0.11-0.47,0.22-0.7,0.32c-0.18,0.08-0.35,0.16-0.53,0.23c-0.53,0.23-1.07,0.45-1.61,0.66c-1,0.35-2.02,0.66-3.05,0.93
		c-0.05,0.02-0.1,0.03-0.14,0.04c-0.64,0.15-1.29,0.28-1.94,0.4c-3.02-1.23-6.02-2.52-9.03-3.77c-7.54-3.13-15.09-6.24-22.67-9.28
		c-3.33-1.33-6.67-2.63-10.01-3.95c-0.04-0.05-0.07-0.1-0.11-0.15c-0.03-0.04-0.05-0.08-0.08-0.12c-0.1-0.14-0.19-0.29-0.29-0.44
		s-0.19-0.29-0.27-0.43c-0.26-0.42-0.52-0.84-0.76-1.27c-0.14-0.27-0.29-0.55-0.42-0.82c-0.23-0.45-0.44-0.9-0.64-1.35
		c-0.18-0.38-0.34-0.77-0.51-1.15c-0.1-0.25-0.19-0.5-0.29-0.76c-0.25-0.7-0.5-1.41-0.72-2.11c-0.16-0.48-0.3-0.97-0.45-1.45
		c-0.07-0.25-0.14-0.49-0.21-0.73c-0.04-0.15-0.09-0.3-0.13-0.45h0c-0.03-0.1-0.05-0.19-0.08-0.29c-0.39-1.55-0.67-3.16-1.24-4.66
		c0.42-1.02,0.84-2.04,1.25-3.06c1.03-2.62,1.98-5.27,2.98-7.89c0.97-2.55,2.12-5.04,3.15-7.56c0.58-1.51,1.16-3.02,1.73-4.54
		c0.13-0.02,0.27-0.04,0.4-0.07c0.99-0.22,1.66-0.76,2.29-1.51c0.73-0.89,1.5-1.75,2.33-2.54c1-0.87,2.1-1.6,3.25-2.27
		c0.68-0.37,1.36-0.71,2.06-1.02c0.71-0.32,1.44-0.6,2.18-0.85c0.52-0.15,1.04-0.29,1.56-0.41c0.22-0.05,0.45-0.11,0.68-0.16
		c0.25-0.05,0.5-0.11,0.75-0.16c0.73-0.14,1.46-0.27,2.21-0.37c2.22-0.25,4.46-0.42,6.7-0.57c9.53,4.64,19.12,9.17,28.72,13.65
		c0.34,0.16,0.69,0.31,1.04,0.46c0.39,0.35,0.78,0.71,1.16,1.08c0.53,0.55,1.04,1.12,1.52,1.7c0.08,0.11,0.16,0.21,0.25,0.32
		c0.12,0.15,0.23,0.31,0.34,0.46c0.14,0.2,0.29,0.4,0.43,0.61c0.08,0.12,0.16,0.23,0.23,0.35c0.11,0.16,0.21,0.32,0.32,0.49
		c0.27,0.46,0.53,0.93,0.77,1.42c0.08,0.16,0.16,0.32,0.23,0.48c0.07,0.18,0.14,0.35,0.21,0.53c0.28,0.71,0.53,1.43,0.76,2.16
		c0.11,0.33,0.21,0.67,0.3,1c0.01,0.04,0.02,0.07,0.03,0.11c0.03,0.11,0.06,0.21,0.09,0.32c0.03,0.1,0.05,0.2,0.08,0.3
		c0,0.01,0.01,0.02,0.01,0.04c0,0,0,0.01,0,0.01c0,0,0,0.01,0,0.01v0c0,0,0,0.01,0,0.01c0,0.01,0.01,0.02,0.01,0.02
		c0.01,0.02,0.01,0.05,0.02,0.07C354.6,321.49,355.04,323.55,355.48,325.61z"/>
	<path class="st2" d="M244.13,265.35c0.55,0.1,1.1,0.19,1.65,0.28c-3.2,10.7-6.43,21.39-9.68,32.07
		c-3.12,10.23-6.05,20.51-9.19,30.73c-0.05,0.18-0.11,0.36-0.17,0.55c-0.86,2.8-1.7,5.61-2.53,8.41c-0.59-0.51-1.18-1.02-1.77-1.53
		c-0.59-0.51-1.17-1.03-1.75-1.55c-0.48-0.43-0.97-0.87-1.45-1.3c-0.67-0.61-1.34-1.23-2-1.84c-1.49-1.39-2.96-2.8-4.41-4.23
		c-11.87-11.71-22.39-24.66-31.82-38.4c-4.96-7.23-9.46-14.77-13.74-22.43c-4.97-8.9-9.35-18.2-13.16-27.66
		c-0.5-1.25-1-2.52-1.48-3.78c0,0,0,0,0,0c-0.25-0.65-0.49-1.29-0.73-1.94c-0.23-0.62-0.46-1.25-0.68-1.88
		c-0.25-0.69-0.49-1.38-0.73-2.07c-0.22-0.64-0.44-1.28-0.65-1.92c-0.17-0.51-0.34-1.02-0.5-1.53c-0.09-0.27-0.18-0.55-0.27-0.82
		c-0.14-0.45-0.29-0.91-0.43-1.36c-0.05-0.17-0.11-0.34-0.16-0.51c-0.17-0.54-0.33-1.07-0.49-1.61c-0.21-0.7-0.41-1.4-0.62-2.1
		c2.76,2.04,5.55,4.04,8.39,5.96c0.75,0.49,1.49,0.98,2.24,1.47c0.62,0.41,1.24,0.81,1.86,1.21c0.28,0.18,0.56,0.36,0.84,0.54
		c22.45,14.39,46.46,26.86,71.95,34.77c1.63,0.42,3.26,0.82,4.9,1.18c0.65,0.14,1.29,0.29,1.94,0.42s1.3,0.26,1.95,0.39
		c0.15,0.03,0.3,0.06,0.45,0.09c0.39,0.07,0.78,0.15,1.16,0.21C243.43,265.23,243.78,265.29,244.13,265.35z"/>
</g>
</svg>
