<?xml version="1.0" encoding="utf-8"?>
<!-- Generator: Adobe Adobe Illustrator 24.2.0, SVG Export Plug-In . SVG Version: 6.00 Build 0)  -->
<svg version="1.1" id="Layer_group_1_" xmlns="http://www.w3.org/2000/svg" xmlns:xlink="http://www.w3.org/1999/xlink" x="0px"
	 y="0px" width="1000px" height="1000px" viewBox="0 0 1000 1000" style="enable-background:new 0 0 1000 1000;"
	 xml:space="preserve">
<style type="text/css">
	.st0{fill:#FCEAA2;}
	.st1{fill:#1F122C;}
</style>
<g id="Vector_layer_7_">
	<path class="st0" d="M903.47,774.21c-0.18,6.35-0.36,12.69-0.53,19.04c-0.1,3.59-0.2,7.17-0.29,10.76
		c-0.33,12.5-0.77,25.01-1.21,37.51c-0.01,0.35-0.03,0.69-0.04,1.04c-0.15,4.28-0.3,8.56-0.46,12.84
		c-5.06,0.71-10.13,1.42-15.19,2.14c-3.3,0.46-6.59,0.93-9.89,1.4c-16.71,2.37-33.42,4.78-50.13,7.19
		c-6.03,0.86-12.05,1.74-18.08,2.61c-4.18-4.04-8.37-8.08-12.55-12.13c-27.23-26.33-54.42-52.72-81.65-79.05
		c-12.35-11.94-24.71-23.88-37.05-35.83c-29.56,28.43-59.22,56.77-88.84,85.14c-1.45,1.39-2.9,2.78-4.35,4.17
		c-3.46,3.32-6.93,6.63-10.4,9.94c-3.6-3.65-7.2-7.31-10.79-10.96c-9.82-9.96-19.61-19.89-29.33-29.69
		c-0.31-0.31-0.61-0.62-0.92-0.92c-0.01-0.02-0.03-0.03-0.04-0.05c-10.08-10.15-20.12-20.33-30.18-30.5
		c-3.75-3.81-7.51-7.61-11.27-11.41c3.37-3.23,6.74-6.47,10.11-9.71c1.24-1.19,2.47-2.38,3.71-3.56
		c29.28-28.12,58.52-56.28,87.76-84.43c-1.78-1.73-3.56-3.45-5.35-5.17c-21.22-20.43-42.41-40.9-63.61-61.35
		c-26.96-26.01-54.02-51.92-80.91-78.01c-49.12-47.66-98.23-95.35-147.49-142.86c-14.25-13.74-28.16-27.84-42.65-41.32
		c-14.91-13.87-29.47-28.13-44.06-42.34c-9.18-8.94-18.39-17.85-27.61-26.75c-0.43-3.7-0.86-7.41-1.29-11.12
		c-0.01-0.03-0.01-0.06-0.01-0.09c-0.42-3.62-0.84-7.24-1.27-10.87c-0.01-0.11-0.03-0.22-0.04-0.34c-0.27-2.34-0.55-4.68-0.84-7.02
		c-2.6-21.32-4.31-42.74-7.06-64.05c-0.86-6.68-1.64-13.38-2.38-20.08c-0.15-1.29-0.29-2.58-0.43-3.87
		c-0.21-1.94-0.42-3.88-0.63-5.82c-0.3-2.73-0.61-5.47-0.92-8.2c4.98,0.68,9.96,1.37,14.94,2.05c9.91,1.37,19.81,2.73,29.71,4.1
		c27.78,3.81,55.55,7.75,83.31,11.66c4.2,0.59,8.4,1.19,12.6,1.77c3.09,0.44,6.19,0.87,9.28,1.31h0.01l0.01,0.01
		c6.33,6.68,12.65,13.37,18.97,20.06c41.67,44.06,83.23,88.2,124.79,132.37c32.83,34.9,65.96,69.52,98.89,104.34
		c31.95,33.78,63.83,67.63,95.64,101.54c14.94,15.92,29.9,31.82,44.88,47.7c2.26-2.18,4.51-4.35,6.76-6.53
		c26.45-25.58,52.88-51.19,79.28-76.83c2.99-2.9,5.98-5.81,8.97-8.71c3.62,3.74,7.24,7.48,10.88,11.21
		c5.2,5.34,10.4,10.67,15.62,15.99c10.22,10.43,20.27,21.03,30.31,31.63c5.19,5.47,10.4,10.92,15.61,16.37
		c3.44,3.61,6.89,7.22,10.34,10.83c-3.48,3.3-6.95,6.59-10.43,9.89c-6.5,6.16-13.02,12.32-19.53,18.47
		c-17.77,16.75-35.55,33.49-53.15,50.41c-4.51,4.33-9.01,8.65-13.52,12.97c25.14,26.66,50.2,53.4,75.44,79.97
		c11.33,11.93,22.67,23.87,34,35.81C893.77,763.98,898.62,769.09,903.47,774.21z"/>
</g>
<g id="Vector_layer_6_">
	<path class="st0" d="M96.53,774.97c0.18,6.35,0.36,12.69,0.53,19.04c0.1,3.59,0.2,7.17,0.29,10.76c0.33,12.5,0.77,25.01,1.21,37.51
		c0.01,0.35,0.03,0.69,0.04,1.04c0.15,4.28,0.3,8.56,0.46,12.84c5.06,0.71,10.13,1.43,15.19,2.14c3.3,0.46,6.59,0.93,9.89,1.4
		c16.71,2.37,33.42,4.78,50.13,7.19c6.03,0.86,12.05,1.74,18.08,2.61c4.18-4.04,8.37-8.08,12.55-12.13
		c27.23-26.33,54.42-52.72,81.65-79.05c12.35-11.94,24.71-23.88,37.05-35.83c29.56,28.43,59.22,56.77,88.84,85.14
		c1.45,1.39,2.9,2.78,4.35,4.17c3.46,3.32,6.93,6.63,10.4,9.94c3.6-3.65,7.2-7.31,10.79-10.96c9.82-9.96,19.61-19.89,29.33-29.69
		c0.31-0.31,0.61-0.62,0.92-0.92c0.01-0.02,0.03-0.03,0.04-0.05c10.08-10.15,20.12-20.33,30.18-30.5
		c3.75-3.81,7.51-7.61,11.27-11.41c-3.37-3.23-6.74-6.47-10.11-9.71c-1.24-1.19-2.47-2.38-3.71-3.56
		c-29.28-28.12-58.52-56.28-87.76-84.43c1.78-1.73,3.56-3.45,5.35-5.17c21.22-20.43,42.41-40.9,63.61-61.35
		c26.96-26.01,54.02-51.92,80.91-78.01c49.12-47.66,98.23-95.35,147.49-142.86c14.25-13.74,28.16-27.84,42.65-41.32
		c14.91-13.87,29.47-28.13,44.06-42.34c9.18-8.94,18.39-17.85,27.61-26.75c0.43-3.7,0.86-7.41,1.29-11.12
		c0.01-0.03,0.01-0.06,0.01-0.09c0.42-3.62,0.84-7.24,1.27-10.87c0.01-0.11,0.03-0.22,0.04-0.34c0.27-2.34,0.55-4.68,0.84-7.02
		c2.6-21.32,4.31-42.74,7.06-64.05c0.86-6.68,1.64-13.38,2.38-20.08c0.15-1.29,0.29-2.58,0.43-3.87c0.21-1.94,0.42-3.88,0.63-5.82
		c0.3-2.73,0.61-5.47,0.92-8.2c-4.98,0.68-9.96,1.37-14.94,2.05c-9.91,1.37-19.81,2.73-29.71,4.1
		c-27.78,3.81-55.55,7.75-83.31,11.66c-4.2,0.59-8.4,1.19-12.6,1.77c-3.09,0.44-6.19,0.87-9.28,1.31h-0.01l-0.01,0.01
		c-6.33,6.68-12.65,13.37-18.97,20.06c-41.67,44.06-83.23,88.2-124.79,132.37c-32.83,34.9-65.96,69.52-98.89,104.34
		c-31.95,33.78-63.83,67.63-95.64,101.54c-14.94,15.92-29.9,31.82-44.88,47.7c-2.26-2.18-4.51-4.35-6.76-6.53
		c-26.45-25.58-52.88-51.19-79.28-76.83c-2.99-2.9-5.98-5.81-8.97-8.71c-3.62,3.74-7.24,7.48-10.88,11.21
		c-5.2,5.34-10.4,10.67-15.62,15.99c-10.22,10.43-20.27,21.03-30.31,31.63c-5.19,5.47-10.4,10.92-15.61,16.37
		c-3.44,3.61-6.89,7.22-10.34,10.83c3.48,3.3,6.95,6.59,10.43,9.89c6.5,6.16,13.02,12.32,19.53,18.47
		c17.77,16.75,35.55,33.49,53.15,50.41c4.51,4.33,9.01,8.65,13.52,12.97c-25.14,26.66-50.2,53.4-75.44,79.97
		c-11.33,11.93-22.67,23.87-34,35.81C106.23,764.74,101.38,769.86,96.53,774.97z"/>
</g>
<g id="Vector_layer_5_">
	<path class="st1" d="M859.54,779.87c4.49,4.92,8.99,9.84,13.48,14.76c-0.05,3.52-0.1,7.03-0.15,10.55
		c-0.05,3.51-0.09,7.03-0.13,10.55c-0.01,1.32-0.03,2.63-0.04,3.95c-0.08,6.69-0.15,13.39-0.23,20.08
		c-4.53,0.31-9.06,0.63-13.59,0.94c-1.21,0.08-2.41,0.17-3.63,0.26c-7.98,0.57-15.97,1.13-23.96,1.7
		c-5.21-4.87-10.42-9.75-15.64-14.61c-1.46-1.35-2.91-2.71-4.37-4.06c-42.14-39.23-84.26-78.47-126.37-117.73
		c-20.67,20.6-41.39,41.15-62.03,61.79c-9.61,9.6-19.2,19.21-28.8,28.81c-4.64,4.64-9.29,9.29-13.93,13.92
		c-3.4-3.34-6.8-6.68-10.2-10.01c-12.84-12.61-25.65-25.24-38.49-37.85c-3.39-3.33-6.78-6.67-10.18-10
		c25.98-25.15,51.9-50.36,77.9-75.48c8.99-8.69,17.97-17.38,26.95-26.07c-6.68-6.26-13.36-12.52-20.07-18.74
		c-18.02-16.73-36.04-33.46-54.07-50.19c-33.28-30.88-66.68-61.63-99.93-92.55c-33.23-30.89-66.29-61.97-99.51-92.87
		c-30.8-28.64-61.72-57.14-92.6-85.69c-11.19-10.34-22.36-20.7-33.52-31.07c0.01,0.01,0.01,0.01,0.01,0.02
		c-5.5-5.11-11-10.23-16.5-15.35c-1.89-9.64-3.79-19.29-5.66-28.93c-0.65-3.38-1.31-6.75-1.96-10.13
		c-3.2-16.54-6.4-33.09-9.59-49.64c-0.87-4.51-1.73-9.02-2.61-13.52c3.41,0.25,6.81,0.5,10.22,0.75c1.14,0.08,2.27,0.17,3.41,0.25
		c25.56,1.89,51.13,3.65,76.7,5.48c1.22,0.09,2.43,0.17,3.65,0.26c5.88,0.42,11.76,0.85,17.63,1.28h0.01
		c3.29,3.6,6.58,7.2,9.88,10.79c1.18,1.28,2.36,2.57,3.53,3.87c26.29,28.72,52.57,57.45,78.88,86.16
		c30.85,33.66,61.61,67.43,92.37,101.18c31.01,34.01,62.22,67.83,93.4,101.68c35.99,39.07,71.75,78.34,107.56,117.57
		c27.42-26.62,54.83-53.24,82.28-79.82c0.25-0.24,0.51-0.49,0.76-0.74c4.69-4.53,9.36-9.09,14.04-13.65
		c3.28,3.17,6.56,6.33,9.84,9.49c11.97,11.56,23.94,23.12,35.9,34.69c2.14,2.06,4.28,4.14,6.42,6.21c1.12,1.09,2.24,2.16,3.36,3.25
		c-2.34,2.32-4.67,4.64-7,6.95c-30.79,30.6-61.47,61.32-92.15,92.03c6.97,7.6,13.95,15.18,20.93,22.76
		C794.41,708.66,827,744.24,859.54,779.87z"/>
</g>
<g id="Vector_layer_4_">
	<path class="st1" d="M140.46,780.63c-4.49,4.92-8.99,9.84-13.48,14.76c0.05,3.52,0.1,7.03,0.15,10.55
		c0.05,3.51,0.09,7.03,0.13,10.55c0.01,1.32,0.03,2.63,0.04,3.95c0.08,6.69,0.15,13.39,0.23,20.08c4.53,0.31,9.06,0.63,13.59,0.94
		c1.21,0.08,2.41,0.17,3.63,0.26c7.98,0.57,15.97,1.13,23.96,1.7c5.21-4.87,10.42-9.75,15.64-14.61c1.46-1.35,2.91-2.71,4.37-4.06
		c42.14-39.23,84.26-78.47,126.37-117.73c20.67,20.6,41.39,41.15,62.03,61.79c9.61,9.6,19.2,19.21,28.8,28.81
		c4.64,4.64,9.29,9.29,13.93,13.92c3.4-3.34,6.8-6.68,10.2-10.01c12.84-12.61,25.65-25.24,38.49-37.85c3.39-3.33,6.78-6.67,10.18-10
		c-25.98-25.15-51.9-50.36-77.9-75.48c-8.99-8.69-17.97-17.38-26.95-26.07c6.68-6.26,13.36-12.52,20.07-18.74
		c18.02-16.73,36.04-33.46,54.07-50.19c33.28-30.88,66.68-61.63,99.93-92.55c33.23-30.89,66.29-61.97,99.51-92.87
		c30.8-28.64,61.72-57.14,92.6-85.69c11.19-10.34,22.36-20.7,33.52-31.07c-0.01,0.01-0.01,0.01-0.01,0.02
		c5.5-5.11,11-10.23,16.5-15.35c1.89-9.64,3.79-19.29,5.66-28.93c0.66-3.38,1.31-6.75,1.96-10.13c3.2-16.54,6.4-33.09,9.59-49.64
		c0.87-4.51,1.73-9.02,2.61-13.52c-3.41,0.25-6.81,0.5-10.22,0.75c-1.14,0.08-2.27,0.17-3.41,0.25c-25.56,1.89-51.13,3.65-76.7,5.48
		c-1.22,0.09-2.43,0.17-3.65,0.26c-5.88,0.42-11.76,0.85-17.63,1.28h-0.01c-3.29,3.6-6.58,7.2-9.88,10.79
		c-1.18,1.28-2.36,2.57-3.53,3.87c-26.29,28.72-52.57,57.45-78.88,86.16c-30.85,33.66-61.61,67.43-92.37,101.18
		c-31.01,34.01-62.22,67.83-93.4,101.68c-35.99,39.07-71.75,78.34-107.56,117.57c-27.42-26.62-54.83-53.24-82.28-79.82
		c-0.25-0.24-0.51-0.49-0.76-0.74c-4.69-4.53-9.36-9.09-14.04-13.65c-3.28,3.17-6.56,6.33-9.84,9.49
		c-11.97,11.56-23.94,23.12-35.9,34.69c-2.14,2.06-4.28,4.14-6.42,6.21c-1.12,1.09-2.24,2.16-3.36,3.25c2.34,2.32,4.67,4.64,7,6.95
		c30.79,30.6,61.47,61.32,92.15,92.03c-6.97,7.6-13.95,15.18-20.93,22.76C205.59,709.42,173,745.01,140.46,780.63z"/>
</g>
</svg>
