<?xml version="1.0" encoding="utf-8"?>
<!-- Generator: Adobe Adobe Illustrator 24.2.0, SVG Export Plug-In . SVG Version: 6.00 Build 0)  -->
<svg version="1.1" xmlns="http://www.w3.org/2000/svg" xmlns:xlink="http://www.w3.org/1999/xlink" x="0px" y="0px" width="1000px"
	 height="1000px" viewBox="0 0 1000 1000" style="enable-background:new 0 0 1000 1000;" xml:space="preserve">
<style type="text/css">
	.st0{fill:#120B17;}
	.st1{fill:#1F122C;}
	.st2{fill:#FBEAA2;}
</style>
<g id="Vector_layer_11_">
	<path d="M775.25,366.29c0,0.04,0,0.07,0,0.11C775.25,366.36,775.25,366.32,775.25,366.29z"/>
	<path d="M775.25,366.04c0,0.04,0,0.09,0,0.13C775.25,366.13,775.25,366.09,775.25,366.04z"/>
	<path d="M775.24,365.75c0,0.07,0,0.14,0,0.21C775.24,365.89,775.24,365.82,775.24,365.75z"/>
	<path class="st0" d="M820.5,329.54c0.74,0.2,1.47,0.43,2.2,0.69C821.97,329.98,821.24,329.75,820.5,329.54z"/>
	<path class="st0" d="M823.41,330.49c1.12,0.42,2.22,0.9,3.28,1.43C825.62,331.39,824.53,330.91,823.41,330.49z"/>
	<path class="st0" d="M827.64,332.41c-0.32-0.17-0.63-0.33-0.95-0.49C827.01,332.08,827.33,332.24,827.64,332.41z"/>
	<path class="st0" d="M828.58,332.93c-0.31-0.18-0.62-0.35-0.93-0.52C827.96,332.58,828.27,332.76,828.58,332.93z"/>
	<path class="st0" d="M829.8,333.67c0.8,0.5,1.59,1.04,2.35,1.61C831.39,334.72,830.61,334.18,829.8,333.67z"/>
	<path class="st1" d="M849.42,371.12c0,0.12,0,0.25,0,0.38c0,0.02,0,0.05,0,0.08c0,0.26-0.01,0.52-0.02,0.79c0,0.01,0,0.02,0,0.04
		c-0.49,16.78-10.54,31.14-24.85,37.72c-0.01,0.3-0.01,0.59-0.02,0.89c-0.03,2.73-0.15,5.47-0.28,8.2c-0.19,3.85-0.42,7.7-0.7,11.4
		c-0.37,5.01-0.91,10.02-1.57,15c-0.66,5.11-1.46,10.2-2.32,15.28c-0.76,4.49-1.59,8.96-2.51,13.42c-0.18,0.87-0.36,1.74-0.51,2.46
		c-0.41,1.95-0.78,3.92-1.23,5.86c-0.51,2.18-1.05,4.36-1.58,6.54c-0.91,3.75-1.86,7.5-2.84,11.24c-1.17,4.46-2.46,8.9-3.77,13.33
		c-0.6,2.02-1.25,4.03-1.89,6.04c-0.58,1.81-1.15,3.62-1.75,5.42c-0.64,1.93-1.3,3.85-1.98,5.77c-0.78,2.27-1.57,4.53-2.38,6.79
		c-1.44,4-2.96,7.97-4.54,11.92c-0.66,1.64-1.34,3.26-2.02,4.89c-0.83,1.95-1.64,3.91-2.47,5.86c-0.8,1.89-1.63,3.76-2.45,5.65
		c-0.76,1.76-1.5,3.54-2.29,5.29c-1.63,3.59-3.32,7.14-5.06,10.68c-2.06,4.2-4.22,8.34-6.45,12.45c-1.83,3.37-3.71,6.71-5.65,10.02
		c-2.06,3.53-4.2,7.01-6.38,10.45c-2.01,3.14-4.06,6.24-6.18,9.3c-2.22,3.21-4.5,6.39-6.87,9.5c-2.37,3.12-4.81,6.18-7.33,9.18
		c-2.66,3.15-5.4,6.22-8.24,9.2c-2.8,2.95-5.73,5.8-8.76,8.51c-0.35,0.32-0.7,0.62-0.99,0.89c-3.2,2.81-6.53,5.48-10.01,7.95
		c-3.87,2.73-7.93,5.21-12.19,7.28c-3.95,1.92-8.11,3.49-12.4,4.48c-1.26,6.32-2.8,12.59-4.43,18.84c-0.81,2.47-0.9,5.34-2.3,7.55
		c-0.28,0.28-0.65,0.41-1.02,0.41c-0.61,0-1.22-0.38-1.41-1.04c1.72-8.36,4.38-16.7,5.98-25.14c-1.46,0.23-2.94,0.39-4.42,0.46
		c-0.41,0.02-0.81,0.03-1.22,0.03c-1.58,0-3.15-0.16-4.66-0.6c-0.1-0.03-0.21-0.05-0.31-0.08c0,0,0,0-0.01,0
		c-0.05-0.01-0.11-0.02-0.17-0.03c-0.48-0.04-0.84-0.51-0.84-0.97c0.01-0.51,0.45-1,0.98-0.96c0.04,0,0.09,0,0.12,0.01
		c0.01,0,0.01,0,0.01,0c0.08,0,0.16,0,0.24,0c0.42-0.03,0.84-0.08,1.27-0.11c0.48-0.04,0.96-0.06,1.45-0.08
		c0.81-0.04,1.62-0.07,2.44-0.11c1.92-0.12,3.84-0.35,5.73-0.7c2.32-12.44,3.64-25.05,4.38-37.68c-1.65,0.84-3.06,1.31-4,1.13
		c-1.35-0.68-0.66-2.14,0.45-2.66c1.27-0.68,2.52-1.38,3.75-2.12c0.15-3.03,0.27-6.06,0.36-9.09c0.02-1.93,2.98-1.98,3,0
		c-0.07,2.36-0.16,4.73-0.27,7.09c0.01,0,0.02-0.01,0.03-0.02c9.12-6.11,16.21-14.14,23.06-22.55
		c10.18-12.22,18.61-25.73,25.97-39.79c9.1-17.2,17.26-34.8,23.25-53.33c3.91-11.7,7.81-23.57,10.21-35.69
		c3.7-19.04,6.62-38.3,8.35-57.64c0.5-5.92,0.97-11.84,1.45-17.76c-4.84-2.71-9.1-6.34-12.54-10.67c0,0,0.01,0,0.01,0
		c-5.61-7.05-9.06-15.92-9.33-25.6c0-0.02,0-0.04,0-0.05c0-0.06,0-0.11,0-0.17c0-0.03,0-0.06,0-0.09c0-0.05,0-0.1,0-0.15
		c0-0.04,0-0.08,0-0.12c0-0.04,0-0.09,0-0.13c0-0.05,0-0.1,0-0.15c0-0.04,0-0.07,0-0.1c0-0.08,0-0.16,0-0.23c0-0.01,0-0.02,0-0.02
		c0-23.66,19.01-42.84,42.46-42.84c0.74,0,1.47,0.02,2.2,0.05c0.68-0.04,1.36-0.06,2.04-0.06c0.38,0,0.75,0,1.12,0.02
		c-0.38-0.01-0.75-0.02-1.12-0.02c-0.68,0-1.34,0.02-2.01,0.06c14.68,0.77,27.38,9.05,34.4,21.11c-0.05-0.12-0.11-0.25-0.17-0.37
		c0.06,0.13,0.12,0.26,0.18,0.39c0,0.01,0.01,0.02,0.01,0.02v0C847.3,355.84,849.42,363.23,849.42,371.12z"/>
</g>
<g id="Vector_layer_10_">
	<path class="st2" d="M815.96,337.43c10.93,0,19.79,9.21,19.79,20.57c0,11.36-8.86,20.57-19.79,20.57s-19.79-9.21-19.79-20.57
		C796.18,346.64,805.04,337.43,815.96,337.43z"/>
</g>
<g id="Vector_layer_9_">
	<path class="st1" d="M703.46,826.52c0.05,3.4,0.1,6.8,0.15,10.21c-0.02,0.05-0.03,0.1-0.04,0.14c-0.19,0.63-0.39,1.27-0.61,1.89
		c-2.77,8.18-7.38,15.75-14.86,20.36c-3.03,1.95-6.24,3.57-9.48,5.14h0c-2.08,1-4.18,1.98-6.25,3.01c-2.18,0.01-4.35,0.02-6.52,0.02
		c-7.46,0.02-14.93,0.05-22.39,0.07c-11.29,0.03-22.58,0.06-33.86,0.09c-10.2,0.03-20.39,0.06-30.59,0.09
		c-10.71,0.02-21.41,0.06-32.12,0.09c-1.38,0-2.76,0-4.14-0.01c-1.38,0-2.76,0-4.14,0c-2.06,0.01-4.12,0.01-6.18,0.01
		c-2.29-0.01-4.57,0-6.86,0c-3.05,0.01-6.1,0.02-9.14,0.01c-3.54-0.02-7.08-0.02-10.62,0c-2.36,0.01-4.72,0.02-7.08,0.02
		c-6.06-0.01-12.13,0.01-18.19,0.02c-2.93,0.01-5.85,0-8.77-0.02c-3.11-0.02-6.21,0-9.32,0c-3.94,0-7.88,0.01-11.81,0.01
		c-3.4-0.01-6.8-0.02-10.2-0.02c-4.88,0-9.77,0.02-14.65,0.04c-6.08,0.02-12.17,0.08-18.25,0.09c-7.56,0.02-15.13,0.05-22.69,0.08
		c-2.06,0-4.11,0-6.17,0c-2.05,0-4.11,0-6.17,0.01c-4.38,0.01-8.76,0.02-13.14,0.03c-4.92,0.02-9.85,0.05-14.77,0.05
		c-4.97,0-9.93-0.05-14.9-0.04c-5.19,0.02-10.38,0.02-15.57,0c-5.2-0.01-10.39-0.05-15.58-0.04c-5.56,0.02-11.11,0.06-16.67,0.09
		c-5.7,0.02-11.4,0.02-17.1,0.04c-2.51,0.02-5.02,0.04-7.54,0.02c-0.07,0-0.14,0-0.2,0c-2.25-0.02-4.5-0.03-6.75-0.05
		c-0.35,0-0.7-0.01-1.04-0.01c-1.62-0.55-3.19-1.18-4.71-1.9c-9.15-4.31-16.57-11.54-22.57-19.87c-0.16-0.23-0.32-0.45-0.48-0.68
		c-0.1-0.14-0.2-0.28-0.29-0.42c-0.12-0.17-0.24-0.34-0.36-0.52c-0.36-0.52-0.71-1.05-1.06-1.57c-0.12-0.17-0.23-0.34-0.34-0.52
		c0,0,0,0,0-0.01c0-0.68,0-1.37,0-2.05c0-1.21-0.02-2.41-0.02-3.62c0-1.27-0.01-2.55,0-3.82c0.03-4.09,0-8.17-0.01-12.26
		c-0.01-2.52,0-5.03-0.02-7.55c-0.03-2.71-0.05-5.42-0.08-8.14c-0.05-5.07-0.04-10.13-0.03-15.2c0.01-4.08,0-8.16,0.04-12.24
		c0.02-1.53,0.07-3.06,0.09-4.59c0.01-1.6,0.03-3.19,0.04-4.79c0.02-3.74,0.03-7.48,0.02-11.21c-0.02-3.12-0.09-6.24-0.08-9.36
		c0.01-3.55,0.05-7.11,0.06-10.66c0-3.52,0.01-7.03,0.07-10.54c0.05-3.2-0.02-6.4,0-9.6c0.01-2.09,0.01-4.18,0.04-6.27
		c0.03-2.02,0.05-4.03,0.06-6.04c0-1.76,0-3.52,0.01-5.29c0-1.07,0.02-2.13,0.05-3.2c0.04-1.58,0.05-3.15,0.04-4.73
		c-0.02-3.65-0.09-7.3-0.14-10.96c-0.05-3.46-0.13-6.93-0.13-10.39c-0.01-6.59,0.01-13.17,0.02-19.75
		c0.01-6.49,0.02-12.98,0.02-19.48c0.01-6.77,0.02-13.54,0.02-20.3c0-1,0-2,0-3c0-1.17,0-2.34,0-3.51
		c0.01-7.06,0.02-14.12,0.02-21.18c0.01-7.11,0.02-14.22,0.03-21.33c0-0.69,0-1.38,0-2.07c0-0.05,0-0.1,0-0.15c0-0.03,0-0.06,0-0.09
		c0-0.82,0.61-1.52,1.45-1.55c0.79-0.03,1.55,0.62,1.55,1.44c0,0.03,0,0.06,0,0.09c0,0.05,0,0.1,0,0.16c0,0,0,0,0,0
		c0,6.69-0.02,13.38-0.02,20.07c-0.01,7.09-0.02,14.17-0.02,21.25c0,2.29-0.01,4.57-0.01,6.86c7.18,0,14.37,0.01,21.55,0.01
		c9.27,0,18.53,0.01,27.79,0.01c9.92,0,19.83,0.01,29.75,0.01c8.55,0,17.11,0,25.67,0.01c5.5,0,11,0,16.49,0.01
		c3.82,0,7.64,0.02,11.46,0.02c3.13,0,6.26,0,9.39,0c3.13,0,6.26,0.01,9.39,0.01c7.51-0.01,15.02-0.01,22.52,0
		c8.99,0.01,17.98,0.09,26.98,0.09c5.53,0,11.06,0.02,16.59,0.06c5.19,0.04,10.39,0.1,15.58,0.14c5.71,0.05,11.42,0.02,17.13,0.01
		c5.37-0.01,10.73-0.01,16.1,0c11.83,0.01,23.66,0.05,35.5,0.08c5.57,0.02,11.14,0.03,16.7,0.07c5.95,0.04,11.89,0.11,17.84,0.15
		c11.95,0.08,23.9,0.07,35.84,0.05c4.96-0.01,9.92-0.03,14.74-0.07c6.34-0.07,12.69-0.17,19.04-0.22
		c6.59-0.05,13.18-0.04,19.77-0.05c6.13-0.01,12.26-0.04,18.39-0.03c5.97,0.01,11.95,0.02,17.92,0.04
		c4.91,0.02,9.81,0.04,14.71,0.06c-0.02-0.54-0.04-1.08-0.06-1.62c-0.07-1.64-0.22-3.27-0.27-4.91c-0.04-1.27-0.02-2.53-0.07-3.79
		c-0.05-1.32-0.1-2.65-0.15-3.97c-0.04-1.22-0.05-2.44-0.08-3.65c-0.02-0.82-0.09-1.62-0.14-2.44c-0.04-0.77-0.02-1.54-0.04-2.3
		c-0.03-0.77-0.09-1.54-0.14-2.32c-0.05-0.79-0.07-1.58-0.12-2.37c-0.05-0.61-0.1-1.22-0.13-1.84c-0.03-0.59-0.04-1.19-0.07-1.79
		c-0.04-0.71-0.07-1.43-0.09-2.15c-0.02-0.64-0.02-1.27-0.02-1.91c-0.04-3.45-0.11-6.9-0.16-10.36c-0.03-2.5-0.09-5-0.03-7.5
		c0.01-0.59,0.07-1.17,0.08-1.59c0-0.07,0-0.14,0-0.2c0-0.35,0.08-0.68,0.31-0.95c0.23-0.27,0.56-0.44,0.91-0.46
		c0.69-0.05,1.39,0.51,1.4,1.23c0.01,0.41,0.05,0.81,0.09,1.21c0.02,0.34,0.04,0.68,0.06,1.02c0.06,1.3,0.09,2.61,0.11,3.91
		c0.06,2.93,0.09,5.85,0.14,8.78c0.03,1.75,0.04,3.5,0.07,5.26c0.02,1.34,0.02,2.68-0.01,4.02c-0.01,0.58,0,1.16-0.02,1.75
		c-0.02,0.65-0.06,1.29-0.09,1.94c-0.02,0.77-0.02,1.54-0.05,2.3c-0.04,0.73-0.06,1.46-0.06,2.19c0,0.73,0.04,1.46,0.02,2.2
		c-0.02,0.81-0.06,1.61-0.06,2.42v0.02c0,0.93,0.02,1.87,0.02,2.68c0.01,1.9-0.04,3.8-0.04,5.59c0,1.16,0.05,2.31,0.04,3.46
		c-0.01,1.65-0.12,3.29-0.13,4.94c0,0.41,0,0.81,0,1.21c0,0.83,0,1.66-0.01,2.5c0,0.12,0,0.23,0,0.35c0,1.21-0.04,2.43-0.03,3.64
		c0,1.16,0.01,2.34,0.02,3.44c0,0.09,0,0.18,0,0.21c0.01,3.44,0.08,6.87,0.11,10.3c0.01,1.69,0.04,3.38,0.07,5.07
		c0.03,1.55,0.02,3.1,0.03,4.6c0.02,3.74,0.09,7.48,0.14,11.22c0.05,3.46,0.1,6.92,0.15,10.38c0.1,7.16,0.21,14.32,0.32,21.48
		c0.09,6.18,0.18,12.36,0.27,18.54c0.03,1.7,0.05,3.4,0.07,5.1c0.03,1.64,0.07,3.28,0.09,4.93c0.04,4.26,0.11,8.52,0.17,12.79
		c0.14,9.7,0.29,19.39,0.43,29.09c0.12,8.58,0.25,17.16,0.38,25.74c0.1,6.66,0.2,13.32,0.29,19.98c0.11,7.81,0.23,15.62,0.34,23.43
		C703.41,822.61,703.43,824.56,703.46,826.52z"/>
</g>
<g id="Vector_layer_8_">
	<path class="st2" d="M463.12,118.79c167.48,0,303.25,137.79,303.25,307.76c0,169.96-135.77,307.75-303.25,307.75
		c-167.47,0-303.25-137.79-303.25-307.75C159.88,256.58,295.65,118.79,463.12,118.79z"/>
</g>
<g id="Vector_layer_7_">
	<path class="st1" d="M462.43,130.67c160.47,0,290.56,132.02,290.56,294.89S622.9,720.44,462.43,720.44S171.86,588.42,171.86,425.55
		S301.95,130.67,462.43,130.67z"/>
</g>
<g id="Vector_layer_6_">
	<path class="st2" d="M713.46,355.61c0.12,0.58,0.23,1.16,0.35,1.75c-0.34-0.09-0.68-0.19-1.01-0.29c-0.34-0.1-0.68-0.2-1.01-0.31
		c-0.27-0.08-0.54-0.17-0.8-0.25c-0.15-0.05-0.29-0.09-0.44-0.14c-1.59-0.52-3.18-1.09-4.74-1.68c-4.01-1.52-7.95-3.23-11.83-5.04
		c-4.5-2.1-8.93-4.37-13.31-6.72c-5.93-3.19-11.77-6.57-17.53-10.06c-4.53-2.75-9.01-5.57-13.46-8.45
		c-6.14-3.98-12.2-8.09-18.21-12.28c-4.37-3.05-8.7-6.15-13-9.3c-6.64-4.86-13.21-9.82-19.66-14.86
		c-7.24-5.65-14.4-11.41-21.46-17.29c-7.35-6.12-14.61-12.36-21.75-18.73c-6.4-5.71-12.7-11.52-18.91-17.45
		c-6.87-6.56-13.61-13.27-20.17-20.14c-6.57-6.88-12.97-13.93-19.05-21.25c-3.29-3.96-6.49-7.99-9.56-12.12
		c-2.8-3.76-5.47-7.63-7.93-11.62c-0.75-1.23-1.49-2.46-2.2-3.72c-0.23-0.41-0.45-0.82-0.68-1.23c-0.13-0.23-0.25-0.47-0.38-0.7
		c-0.17-0.33-0.34-0.66-0.51-0.98c0.45-0.03,0.91-0.05,1.36-0.08c0.33-0.02,0.65-0.04,0.98-0.05c0.32-0.02,0.64-0.04,0.95-0.05
		c6.38-0.28,12.78-0.18,19.14,0.26c8.01,0.55,15.99,1.64,23.86,3.2c6.66,1.32,13.25,2.99,19.74,4.95c8.53,2.58,16.89,5.7,25.05,9.26
		c8.74,3.82,17.24,8.18,25.47,13c7.66,4.48,15.08,9.37,22.23,14.62c5.87,4.3,11.56,8.85,17.05,13.62
		c7.29,6.32,14.21,13.05,20.78,20.12c6.53,7.02,12.65,14.41,18.38,22.1c5.4,7.24,10.41,14.78,15.01,22.56
		c4.55,7.7,8.7,15.64,12.37,23.8c4.2,9.32,7.79,18.92,10.68,28.73c1.48,5.03,2.78,10.12,3.86,15.25
		C713.25,354.55,713.36,355.08,713.46,355.61z"/>
	<path class="st2" d="M460.56,387.9c21.78,0,39.44,18.2,39.44,40.65c0,22.45-17.66,40.65-39.44,40.65
		c-21.79,0-39.44-18.2-39.44-40.65C421.12,406.1,438.78,387.9,460.56,387.9z"/>
</g>
</svg>
